STARTFONT 2.1
COMMENT
COMMENT Converted from OpenType font "simsun.ttf" by "otf2bdf 3.0".
COMMENT
FONT -FreeType-SimSun-Medium-R-Normal--16-120-96-96-P-157-ISO10646-1
SIZE 12 96 96
FONTBOUNDINGBOX 16 18 0 -4
STARTPROPERTIES 19
FOUNDRY "FreeType"
FAMILY_NAME "SimSun"
WEIGHT_NAME "Medium"
SLANT "R"
SETWIDTH_NAME "Normal"
ADD_STYLE_NAME ""
PIXEL_SIZE 16
POINT_SIZE 120
RESOLUTION_X 96
RESOLUTION_Y 96
SPACING "P"
AVERAGE_WIDTH 157
CHARSET_REGISTRY "ISO10646"
CHARSET_ENCODING "1"
FONT_ASCENT 13
FONT_DESCENT 2
COPYRIGHT "(c) Copyright ZHONGYI Electronic Co. 1995"
_OTF_FONTFILE "simsun.ttf"
_OTF_PSNAME "SimSun"
ENDPROPERTIES
CHARS 22066
STARTCHAR 0020
ENCODING 32
SWIDTH 500 0
DWIDTH 8 0
BBX 0 0 0 0
BITMAP
ENDCHAR
STARTCHAR 0021
ENCODING 33
SWIDTH 500 0
DWIDTH 8 0
BBX 2 12 3 0
BITMAP
C0
C0
C0
C0
C0
C0
C0
C0
00
00
C0
C0
ENDCHAR
STARTCHAR 0022
ENCODING 34
SWIDTH 500 0
DWIDTH 8 0
BBX 4 5 2 7
BITMAP
90
90
90
90
90
ENDCHAR
STARTCHAR 0023
ENCODING 35
SWIDTH 500 0
DWIDTH 8 0
BBX 8 12 0 0
BITMAP
12
12
12
14
7F
24
24
24
FE
28
48
48
ENDCHAR
STARTCHAR 0024
ENCODING 36
SWIDTH 500 0
DWIDTH 8 0
BBX 6 15 1 -2
BITMAP
10
10
7C
D4
90
90
F0
38
2C
24
24
AC
F8
20
20
ENDCHAR
STARTCHAR 0025
ENCODING 37
SWIDTH 500 0
DWIDTH 8 0
BBX 8 12 0 0
BITMAP
73
D2
96
F4
6C
08
10
16
2F
69
4B
CE
ENDCHAR
STARTCHAR 0026
ENCODING 38
SWIDTH 500 0
DWIDTH 8 0
BBX 7 12 0 0
BITMAP
10
7C
44
4C
68
30
72
DA
CA
CE
CE
7A
ENDCHAR
STARTCHAR 0027
ENCODING 39
SWIDTH 500 0
DWIDTH 8 0
BBX 2 5 3 7
BITMAP
C0
C0
C0
C0
C0
ENDCHAR
STARTCHAR 0028
ENCODING 40
SWIDTH 500 0
DWIDTH 8 0
BBX 2 14 3 -2
BITMAP
40
40
C0
80
80
80
80
80
80
80
80
C0
40
40
ENDCHAR
STARTCHAR 0029
ENCODING 41
SWIDTH 500 0
DWIDTH 8 0
BBX 2 14 3 -2
BITMAP
80
80
80
40
40
40
40
40
40
40
40
80
80
80
ENDCHAR
STARTCHAR 002A
ENCODING 42
SWIDTH 500 0
DWIDTH 8 0
BBX 6 7 1 2
BITMAP
30
B4
78
30
FC
B4
30
ENDCHAR
STARTCHAR 002B
ENCODING 43
SWIDTH 500 0
DWIDTH 8 0
BBX 7 8 1 2
BITMAP
30
30
30
3E
FE
30
30
30
ENDCHAR
STARTCHAR 002C
ENCODING 44
SWIDTH 500 0
DWIDTH 8 0
BBX 2 4 3 -2
BITMAP
C0
C0
80
80
ENDCHAR
STARTCHAR 002D
ENCODING 45
SWIDTH 500 0
DWIDTH 8 0
BBX 6 2 1 5
BITMAP
FC
FC
ENDCHAR
STARTCHAR 002E
ENCODING 46
SWIDTH 500 0
DWIDTH 8 0
BBX 2 2 3 0
BITMAP
C0
C0
ENDCHAR
STARTCHAR 002F
ENCODING 47
SWIDTH 500 0
DWIDTH 8 0
BBX 6 14 1 -2
BITMAP
0C
08
08
18
10
10
30
20
20
60
40
C0
C0
80
ENDCHAR
STARTCHAR 0030
ENCODING 48
SWIDTH 500 0
DWIDTH 8 0
BBX 6 12 1 0
BITMAP
30
78
CC
84
84
84
84
84
84
CC
48
78
ENDCHAR
STARTCHAR 0031
ENCODING 49
SWIDTH 500 0
DWIDTH 8 0
BBX 5 12 2 0
BITMAP
60
E0
20
20
20
20
20
20
20
20
20
F8
ENDCHAR
STARTCHAR 0032
ENCODING 50
SWIDTH 500 0
DWIDTH 8 0
BBX 6 12 1 0
BITMAP
70
D8
0C
0C
0C
08
18
30
20
40
C0
FC
ENDCHAR
STARTCHAR 0033
ENCODING 51
SWIDTH 500 0
DWIDTH 8 0
BBX 6 12 1 0
BITMAP
F0
D8
0C
0C
08
38
18
0C
04
04
8C
F8
ENDCHAR
STARTCHAR 0034
ENCODING 52
SWIDTH 500 0
DWIDTH 8 0
BBX 6 12 1 0
BITMAP
18
18
28
28
48
48
88
88
FC
08
08
08
ENDCHAR
STARTCHAR 0035
ENCODING 53
SWIDTH 500 0
DWIDTH 8 0
BBX 6 12 1 0
BITMAP
F8
F8
C0
C0
F0
F8
0C
0C
04
0C
08
F8
ENDCHAR
STARTCHAR 0036
ENCODING 54
SWIDTH 500 0
DWIDTH 8 0
BBX 6 12 1 0
BITMAP
38
68
C0
80
B0
F8
CC
84
84
84
CC
78
ENDCHAR
STARTCHAR 0037
ENCODING 55
SWIDTH 500 0
DWIDTH 8 0
BBX 6 12 1 0
BITMAP
FC
FC
0C
08
08
18
10
10
30
20
20
60
ENDCHAR
STARTCHAR 0038
ENCODING 56
SWIDTH 500 0
DWIDTH 8 0
BBX 6 12 1 0
BITMAP
78
CC
8C
84
CC
78
78
84
84
84
CC
78
ENDCHAR
STARTCHAR 0039
ENCODING 57
SWIDTH 500 0
DWIDTH 8 0
BBX 6 12 1 0
BITMAP
70
D8
8C
84
84
8C
CC
74
04
0C
88
F8
ENDCHAR
STARTCHAR 003A
ENCODING 58
SWIDTH 500 0
DWIDTH 8 0
BBX 2 8 3 0
BITMAP
C0
C0
00
00
00
00
C0
C0
ENDCHAR
STARTCHAR 003B
ENCODING 59
SWIDTH 500 0
DWIDTH 8 0
BBX 2 10 3 -2
BITMAP
C0
C0
00
00
00
00
C0
C0
C0
80
ENDCHAR
STARTCHAR 003C
ENCODING 60
SWIDTH 500 0
DWIDTH 8 0
BBX 7 11 1 1
BITMAP
06
0C
18
30
60
C0
60
30
18
0C
06
ENDCHAR
STARTCHAR 003D
ENCODING 61
SWIDTH 500 0
DWIDTH 8 0
BBX 7 5 1 3
BITMAP
FE
00
00
FE
FE
ENDCHAR
STARTCHAR 003E
ENCODING 62
SWIDTH 500 0
DWIDTH 8 0
BBX 7 11 1 1
BITMAP
C0
60
30
18
0C
06
0C
18
30
60
C0
ENDCHAR
STARTCHAR 003F
ENCODING 63
SWIDTH 500 0
DWIDTH 8 0
BBX 6 12 1 0
BITMAP
78
DC
04
0C
0C
18
30
20
20
00
20
20
ENDCHAR
STARTCHAR 0040
ENCODING 64
SWIDTH 500 0
DWIDTH 8 0
BBX 8 15 0 -2
BITMAP
08
36
22
41
4D
95
A5
A5
AD
AF
B6
80
40
64
38
ENDCHAR
STARTCHAR 0041
ENCODING 65
SWIDTH 500 0
DWIDTH 8 0
BBX 8 12 0 0
BITMAP
18
18
18
3C
24
24
24
66
7E
42
42
C3
ENDCHAR
STARTCHAR 0042
ENCODING 66
SWIDTH 500 0
DWIDTH 8 0
BBX 6 12 1 0
BITMAP
F0
FC
84
84
8C
F8
8C
84
84
84
8C
F8
ENDCHAR
STARTCHAR 0043
ENCODING 67
SWIDTH 500 0
DWIDTH 8 0
BBX 6 12 1 0
BITMAP
3C
64
C0
80
80
80
80
80
80
C0
44
3C
ENDCHAR
STARTCHAR 0044
ENCODING 68
SWIDTH 500 0
DWIDTH 8 0
BBX 6 12 1 0
BITMAP
E0
F8
8C
84
84
84
84
84
84
8C
98
F0
ENDCHAR
STARTCHAR 0045
ENCODING 69
SWIDTH 500 0
DWIDTH 8 0
BBX 6 12 1 0
BITMAP
FC
FC
C0
C0
C0
FC
C0
C0
C0
C0
C0
FC
ENDCHAR
STARTCHAR 0046
ENCODING 70
SWIDTH 500 0
DWIDTH 8 0
BBX 5 12 2 0
BITMAP
F8
F8
80
80
80
F8
80
80
80
80
80
80
ENDCHAR
STARTCHAR 0047
ENCODING 71
SWIDTH 500 0
DWIDTH 8 0
BBX 6 12 1 0
BITMAP
38
6C
C0
80
80
80
9C
84
84
84
44
7C
ENDCHAR
STARTCHAR 0048
ENCODING 72
SWIDTH 500 0
DWIDTH 8 0
BBX 6 12 1 0
BITMAP
84
84
84
84
84
FC
84
84
84
84
84
84
ENDCHAR
STARTCHAR 0049
ENCODING 73
SWIDTH 500 0
DWIDTH 8 0
BBX 6 12 1 0
BITMAP
FC
FC
30
30
30
30
30
30
30
30
30
FC
ENDCHAR
STARTCHAR 004A
ENCODING 74
SWIDTH 500 0
DWIDTH 8 0
BBX 5 12 1 0
BITMAP
78
78
08
08
08
08
08
08
08
08
98
F0
ENDCHAR
STARTCHAR 004B
ENCODING 75
SWIDTH 500 0
DWIDTH 8 0
BBX 7 12 1 0
BITMAP
86
8C
88
90
B0
E0
F0
90
98
8C
84
86
ENDCHAR
STARTCHAR 004C
ENCODING 76
SWIDTH 500 0
DWIDTH 8 0
BBX 6 12 1 0
BITMAP
C0
C0
C0
C0
C0
C0
C0
C0
C0
C0
C0
FC
ENDCHAR
STARTCHAR 004D
ENCODING 77
SWIDTH 500 0
DWIDTH 8 0
BBX 6 12 1 0
BITMAP
8C
CC
CC
CC
B4
B4
B4
A4
84
84
84
84
ENDCHAR
STARTCHAR 004E
ENCODING 78
SWIDTH 500 0
DWIDTH 8 0
BBX 6 12 1 0
BITMAP
C4
C4
C4
A4
A4
A4
94
94
94
8C
8C
8C
ENDCHAR
STARTCHAR 004F
ENCODING 79
SWIDTH 500 0
DWIDTH 8 0
BBX 7 12 0 0
BITMAP
3C
66
42
42
42
C2
C2
C2
42
42
66
3C
ENDCHAR
STARTCHAR 0050
ENCODING 80
SWIDTH 500 0
DWIDTH 8 0
BBX 6 12 1 0
BITMAP
F0
FC
C4
C4
C4
C4
F8
C0
C0
C0
C0
C0
ENDCHAR
STARTCHAR 0051
ENCODING 81
SWIDTH 500 0
DWIDTH 8 0
BBX 6 14 1 -2
BITMAP
78
48
84
84
84
84
84
84
84
84
CC
78
18
0C
ENDCHAR
STARTCHAR 0052
ENCODING 82
SWIDTH 500 0
DWIDTH 8 0
BBX 7 12 1 0
BITMAP
F0
F8
8C
8C
8C
88
F0
88
8C
84
84
86
ENDCHAR
STARTCHAR 0053
ENCODING 83
SWIDTH 500 0
DWIDTH 8 0
BBX 6 12 1 0
BITMAP
78
CC
80
80
C0
70
38
0C
04
04
8C
F8
ENDCHAR
STARTCHAR 0054
ENCODING 84
SWIDTH 500 0
DWIDTH 8 0
BBX 8 12 0 0
BITMAP
FF
FF
18
18
18
18
18
18
18
18
18
18
ENDCHAR
STARTCHAR 0055
ENCODING 85
SWIDTH 500 0
DWIDTH 8 0
BBX 6 12 1 0
BITMAP
84
84
84
84
84
84
84
84
84
84
CC
78
ENDCHAR
STARTCHAR 0056
ENCODING 86
SWIDTH 500 0
DWIDTH 8 0
BBX 8 12 0 0
BITMAP
C3
42
42
42
66
24
24
24
2C
18
18
18
ENDCHAR
STARTCHAR 0057
ENCODING 87
SWIDTH 500 0
DWIDTH 8 0
BBX 8 12 0 0
BITMAP
81
81
81
C3
5A
5A
5A
5A
66
66
66
66
ENDCHAR
STARTCHAR 0058
ENCODING 88
SWIDTH 500 0
DWIDTH 8 0
BBX 8 12 0 0
BITMAP
43
42
24
24
18
18
18
3C
24
64
42
C2
ENDCHAR
STARTCHAR 0059
ENCODING 89
SWIDTH 500 0
DWIDTH 8 0
BBX 8 12 0 0
BITMAP
C3
42
66
24
2C
18
18
18
18
18
18
18
ENDCHAR
STARTCHAR 005A
ENCODING 90
SWIDTH 500 0
DWIDTH 8 0
BBX 7 12 1 0
BITMAP
FC
FC
0C
08
18
10
30
20
60
40
80
FE
ENDCHAR
STARTCHAR 005B
ENCODING 91
SWIDTH 500 0
DWIDTH 8 0
BBX 3 14 3 -2
BITMAP
E0
80
80
80
80
80
80
80
80
80
80
80
80
E0
ENDCHAR
STARTCHAR 005C
ENCODING 92
SWIDTH 500 0
DWIDTH 8 0
BBX 6 14 1 -2
BITMAP
80
80
40
40
60
20
20
30
10
10
18
08
08
04
ENDCHAR
STARTCHAR 005D
ENCODING 93
SWIDTH 500 0
DWIDTH 8 0
BBX 3 14 2 -2
BITMAP
E0
20
20
20
20
20
20
20
20
20
20
20
20
E0
ENDCHAR
STARTCHAR 005E
ENCODING 94
SWIDTH 500 0
DWIDTH 8 0
BBX 6 5 1 7
BITMAP
30
30
48
CC
84
ENDCHAR
STARTCHAR 005F
ENCODING 95
SWIDTH 500 0
DWIDTH 8 0
BBX 6 1 1 -2
BITMAP
FC
ENDCHAR
STARTCHAR 0060
ENCODING 96
SWIDTH 500 0
DWIDTH 8 0
BBX 3 3 2 10
BITMAP
80
40
60
ENDCHAR
STARTCHAR 0061
ENCODING 97
SWIDTH 500 0
DWIDTH 8 0
BBX 6 9 1 0
BITMAP
78
C8
0C
3C
FC
8C
8C
8C
FC
ENDCHAR
STARTCHAR 0062
ENCODING 98
SWIDTH 500 0
DWIDTH 8 0
BBX 6 12 1 0
BITMAP
80
80
80
B8
EC
C4
C4
84
84
C4
CC
B8
ENDCHAR
STARTCHAR 0063
ENCODING 99
SWIDTH 500 0
DWIDTH 8 0
BBX 6 9 1 0
BITMAP
3C
64
C0
C0
C0
C0
C0
64
3C
ENDCHAR
STARTCHAR 0064
ENCODING 100
SWIDTH 500 0
DWIDTH 8 0
BBX 6 12 1 0
BITMAP
0C
0C
0C
7C
DC
8C
8C
8C
8C
8C
CC
7C
ENDCHAR
STARTCHAR 0065
ENCODING 101
SWIDTH 500 0
DWIDTH 8 0
BBX 6 9 1 0
BITMAP
38
4C
84
84
FC
80
80
C4
7C
ENDCHAR
STARTCHAR 0066
ENCODING 102
SWIDTH 500 0
DWIDTH 8 0
BBX 6 12 1 0
BITMAP
3C
20
20
FC
FC
20
20
20
20
20
20
20
ENDCHAR
STARTCHAR 0067
ENCODING 103
SWIDTH 500 0
DWIDTH 8 0
BBX 6 11 1 -2
BITMAP
7C
DC
8C
8C
8C
8C
CC
7C
0C
88
F8
ENDCHAR
STARTCHAR 0068
ENCODING 104
SWIDTH 500 0
DWIDTH 8 0
BBX 6 12 1 0
BITMAP
80
80
80
B8
EC
C4
84
84
84
84
84
84
ENDCHAR
STARTCHAR 0069
ENCODING 105
SWIDTH 500 0
DWIDTH 8 0
BBX 6 12 1 0
BITMAP
30
30
00
70
70
30
30
30
30
30
30
FC
ENDCHAR
STARTCHAR 006A
ENCODING 106
SWIDTH 500 0
DWIDTH 8 0
BBX 4 14 1 -2
BITMAP
10
10
00
70
70
10
10
10
10
10
10
10
10
F0
ENDCHAR
STARTCHAR 006B
ENCODING 107
SWIDTH 500 0
DWIDTH 8 0
BBX 7 12 1 0
BITMAP
C0
C0
C0
C4
C8
D0
F0
F0
D8
C8
CC
C6
ENDCHAR
STARTCHAR 006C
ENCODING 108
SWIDTH 500 0
DWIDTH 8 0
BBX 6 12 1 0
BITMAP
E0
20
20
20
20
20
20
20
20
20
30
1C
ENDCHAR
STARTCHAR 006D
ENCODING 109
SWIDTH 500 0
DWIDTH 8 0
BBX 7 9 1 0
BITMAP
EC
B4
B4
B4
B6
B6
B6
B6
B6
ENDCHAR
STARTCHAR 006E
ENCODING 110
SWIDTH 500 0
DWIDTH 8 0
BBX 6 9 1 0
BITMAP
B8
EC
C4
84
84
84
84
84
84
ENDCHAR
STARTCHAR 006F
ENCODING 111
SWIDTH 500 0
DWIDTH 8 0
BBX 6 9 1 0
BITMAP
78
48
CC
84
84
84
84
CC
78
ENDCHAR
STARTCHAR 0070
ENCODING 112
SWIDTH 500 0
DWIDTH 8 0
BBX 6 11 1 -2
BITMAP
B8
CC
C4
84
84
84
C4
EC
B8
80
80
ENDCHAR
STARTCHAR 0071
ENCODING 113
SWIDTH 500 0
DWIDTH 8 0
BBX 6 11 1 -2
BITMAP
74
CC
8C
84
84
84
8C
CC
74
04
04
ENDCHAR
STARTCHAR 0072
ENCODING 114
SWIDTH 500 0
DWIDTH 8 0
BBX 5 9 2 0
BITMAP
F8
E8
C0
C0
C0
C0
C0
C0
C0
ENDCHAR
STARTCHAR 0073
ENCODING 115
SWIDTH 500 0
DWIDTH 8 0
BBX 6 9 1 0
BITMAP
78
48
C0
C0
78
0C
0C
8C
F8
ENDCHAR
STARTCHAR 0074
ENCODING 116
SWIDTH 500 0
DWIDTH 8 0
BBX 6 11 1 0
BITMAP
20
20
FC
FC
20
20
20
20
20
30
3C
ENDCHAR
STARTCHAR 0075
ENCODING 117
SWIDTH 500 0
DWIDTH 8 0
BBX 6 9 1 0
BITMAP
84
84
84
84
84
84
8C
CC
74
ENDCHAR
STARTCHAR 0076
ENCODING 118
SWIDTH 500 0
DWIDTH 8 0
BBX 6 9 1 0
BITMAP
84
84
CC
48
48
48
70
30
30
ENDCHAR
STARTCHAR 0077
ENCODING 119
SWIDTH 500 0
DWIDTH 8 0
BBX 8 9 0 0
BITMAP
81
81
C3
5A
5A
5A
6A
66
24
ENDCHAR
STARTCHAR 0078
ENCODING 120
SWIDTH 500 0
DWIDTH 8 0
BBX 6 9 1 0
BITMAP
84
CC
48
30
30
30
48
CC
84
ENDCHAR
STARTCHAR 0079
ENCODING 121
SWIDTH 500 0
DWIDTH 8 0
BBX 6 11 1 -2
BITMAP
84
84
CC
48
48
38
30
30
20
20
E0
ENDCHAR
STARTCHAR 007A
ENCODING 122
SWIDTH 500 0
DWIDTH 8 0
BBX 6 9 1 0
BITMAP
FC
FC
08
18
30
20
40
C0
FC
ENDCHAR
STARTCHAR 007B
ENCODING 123
SWIDTH 500 0
DWIDTH 8 0
BBX 6 15 1 -2
BITMAP
0C
1C
30
30
30
30
30
E0
20
30
30
30
30
10
1C
ENDCHAR
STARTCHAR 007C
ENCODING 124
SWIDTH 500 0
DWIDTH 8 0
BBX 2 16 3 -2
BITMAP
C0
C0
C0
C0
C0
C0
C0
C0
C0
C0
C0
C0
C0
C0
C0
C0
ENDCHAR
STARTCHAR 007D
ENCODING 125
SWIDTH 500 0
DWIDTH 8 0
BBX 6 15 1 -2
BITMAP
C0
E0
30
30
30
30
30
1C
10
30
30
30
30
20
E0
ENDCHAR
STARTCHAR 007E
ENCODING 126
SWIDTH 500 0
DWIDTH 8 0
BBX 6 2 1 5
BITMAP
E4
BC
ENDCHAR
STARTCHAR 007F
ENCODING 127
SWIDTH 500 0
DWIDTH 8 0
BBX 0 0 0 0
BITMAP
ENDCHAR
STARTCHAR 00A0
ENCODING 160
SWIDTH 500 0
DWIDTH 8 0
BBX 0 0 0 0
BITMAP
ENDCHAR
STARTCHAR 00A1
ENCODING 161
SWIDTH 500 0
DWIDTH 8 0
BBX 2 12 2 -2
BITMAP
C0
C0
00
00
80
C0
C0
C0
C0
C0
C0
C0
ENDCHAR
STARTCHAR 00A2
ENCODING 162
SWIDTH 500 0
DWIDTH 8 0
BBX 7 12 0 0
BITMAP
08
08
3E
68
48
C8
C8
48
68
3E
0C
08
ENDCHAR
STARTCHAR 00A3
ENCODING 163
SWIDTH 500 0
DWIDTH 8 0
BBX 8 12 0 0
BITMAP
1E
30
30
30
30
FC
FC
30
30
20
40
FF
ENDCHAR
STARTCHAR 00A4
ENCODING 164
SWIDTH 1000 0
DWIDTH 16 0
BBX 13 14 2 -1
BITMAP
8000
CF18
7FF0
6060
4030
C010
C010
C010
C010
C030
6020
70E0
DFB0
8010
ENDCHAR
STARTCHAR 00A5
ENCODING 165
SWIDTH 500 0
DWIDTH 8 0
BBX 6 12 1 0
BITMAP
84
8C
C8
48
78
30
FC
30
FC
30
30
30
ENDCHAR
STARTCHAR 00A6
ENCODING 166
SWIDTH 500 0
DWIDTH 8 0
BBX 2 16 3 -2
BITMAP
C0
C0
C0
C0
C0
C0
C0
00
00
C0
C0
C0
C0
C0
C0
C0
ENDCHAR
STARTCHAR 00A7
ENCODING 167
SWIDTH 1000 0
DWIDTH 16 0
BBX 6 13 5 -1
BITMAP
78
84
84
C0
78
8C
84
CC
38
04
84
FC
30
ENDCHAR
STARTCHAR 00A8
ENCODING 168
SWIDTH 1000 0
DWIDTH 16 0
BBX 8 3 4 9
BITMAP
C3
C3
C3
ENDCHAR
STARTCHAR 00A9
ENCODING 169
SWIDTH 500 0
DWIDTH 8 0
BBX 8 7 0 2
BITMAP
3C
FE
A6
A1
A6
5A
3C
ENDCHAR
STARTCHAR 00AA
ENCODING 170
SWIDTH 500 0
DWIDTH 8 0
BBX 4 4 2 8
BITMAP
E0
30
D0
F0
ENDCHAR
STARTCHAR 00AB
ENCODING 171
SWIDTH 500 0
DWIDTH 8 0
BBX 6 12 1 -1
BITMAP
10
14
28
48
50
A0
A0
90
50
28
24
14
ENDCHAR
STARTCHAR 00AC
ENCODING 172
SWIDTH 500 0
DWIDTH 8 0
BBX 8 3 0 5
BITMAP
FF
01
01
ENDCHAR
STARTCHAR 00AD
ENCODING 173
SWIDTH 500 0
DWIDTH 8 0
BBX 8 1 0 5
BITMAP
FF
ENDCHAR
STARTCHAR 00AE
ENCODING 174
SWIDTH 500 0
DWIDTH 8 0
BBX 8 7 0 2
BITMAP
3C
FE
A6
B9
AA
66
18
ENDCHAR
STARTCHAR 00AF
ENCODING 175
SWIDTH 500 0
DWIDTH 8 0
BBX 0 0 0 13
BITMAP
ENDCHAR
STARTCHAR 00B0
ENCODING 176
SWIDTH 1000 0
DWIDTH 16 0
BBX 4 4 2 8
BITMAP
60
90
90
60
ENDCHAR
STARTCHAR 00B1
ENCODING 177
SWIDTH 1000 0
DWIDTH 16 0
BBX 8 10 4 1
BITMAP
18
18
18
FF
FF
18
18
18
00
FF
ENDCHAR
STARTCHAR 00B2
ENCODING 178
SWIDTH 500 0
DWIDTH 8 0
BBX 3 4 2 8
BITMAP
E0
20
40
E0
ENDCHAR
STARTCHAR 00B3
ENCODING 179
SWIDTH 500 0
DWIDTH 8 0
BBX 2 4 3 8
BITMAP
C0
40
40
C0
ENDCHAR
STARTCHAR 00B4
ENCODING 180
SWIDTH 500 0
DWIDTH 8 0
BBX 4 3 2 10
BITMAP
30
60
C0
ENDCHAR
STARTCHAR 00B5
ENCODING 181
SWIDTH 500 0
DWIDTH 8 0
BBX 6 11 1 -2
BITMAP
84
84
84
84
84
84
84
CC
F4
80
80
ENDCHAR
STARTCHAR 00B6
ENCODING 182
SWIDTH 500 0
DWIDTH 8 0
BBX 6 14 1 -1
BITMAP
7C
E4
E4
E4
E4
E4
24
24
24
24
24
24
24
24
ENDCHAR
STARTCHAR 00B7
ENCODING 183
SWIDTH 1000 0
DWIDTH 16 0
BBX 4 4 6 4
BITMAP
60
F0
F0
60
ENDCHAR
STARTCHAR 00B8
ENCODING 184
SWIDTH 500 0
DWIDTH 8 0
BBX 3 2 3 -1
BITMAP
E0
C0
ENDCHAR
STARTCHAR 00B9
ENCODING 185
SWIDTH 500 0
DWIDTH 8 0
BBX 1 4 3 8
BITMAP
80
80
80
80
ENDCHAR
STARTCHAR 00BA
ENCODING 186
SWIDTH 500 0
DWIDTH 8 0
BBX 4 4 2 8
BITMAP
F0
90
90
F0
ENDCHAR
STARTCHAR 00BB
ENCODING 187
SWIDTH 500 0
DWIDTH 8 0
BBX 6 13 1 -1
BITMAP
20
A0
50
48
28
14
14
24
28
50
90
A0
20
ENDCHAR
STARTCHAR 00BC
ENCODING 188
SWIDTH 500 0
DWIDTH 8 0
BBX 8 15 0 -2
BITMAP
E0
20
20
20
20
20
F9
1E
E0
06
0A
0A
12
1F
02
ENDCHAR
STARTCHAR 00BD
ENCODING 189
SWIDTH 500 0
DWIDTH 8 0
BBX 8 15 0 -2
BITMAP
E0
20
20
20
20
20
F9
1E
E4
0B
01
02
06
0C
0F
ENDCHAR
STARTCHAR 00BE
ENCODING 190
SWIDTH 500 0
DWIDTH 8 0
BBX 8 15 0 -2
BITMAP
F0
08
10
70
08
18
61
1E
E0
06
0A
0A
12
1F
02
ENDCHAR
STARTCHAR 00BF
ENCODING 191
SWIDTH 500 0
DWIDTH 8 0
BBX 6 12 1 0
BITMAP
10
10
00
10
10
10
30
60
C0
80
C4
7C
ENDCHAR
STARTCHAR 00C0
ENCODING 192
SWIDTH 500 0
DWIDTH 8 0
BBX 8 14 0 0
BITMAP
30
10
08
18
18
3C
24
24
24
66
7E
42
42
C3
ENDCHAR
STARTCHAR 00C1
ENCODING 193
SWIDTH 500 0
DWIDTH 8 0
BBX 8 14 0 0
BITMAP
04
08
10
18
18
3C
24
24
24
66
7E
42
42
C3
ENDCHAR
STARTCHAR 00C2
ENCODING 194
SWIDTH 500 0
DWIDTH 8 0
BBX 8 14 0 0
BITMAP
18
3C
42
18
18
3C
24
24
24
66
7E
42
42
C3
ENDCHAR
STARTCHAR 00C3
ENCODING 195
SWIDTH 500 0
DWIDTH 8 0
BBX 8 14 0 0
BITMAP
22
7E
40
18
18
3C
24
24
24
66
7E
42
42
C3
ENDCHAR
STARTCHAR 00C4
ENCODING 196
SWIDTH 500 0
DWIDTH 8 0
BBX 8 13 0 0
BITMAP
66
00
18
18
3C
24
24
24
66
7E
42
42
C3
ENDCHAR
STARTCHAR 00C5
ENCODING 197
SWIDTH 500 0
DWIDTH 8 0
BBX 8 14 0 0
BITMAP
18
24
28
10
18
18
3C
24
24
66
7E
42
42
C3
ENDCHAR
STARTCHAR 00C6
ENCODING 198
SWIDTH 500 0
DWIDTH 8 0
BBX 8 12 0 0
BITMAP
0F
1C
1C
1C
3C
2E
2C
7C
6C
4C
4C
CF
ENDCHAR
STARTCHAR 00C7
ENCODING 199
SWIDTH 500 0
DWIDTH 8 0
BBX 6 14 1 -2
BITMAP
78
44
C4
84
80
80
80
84
84
C4
78
10
38
30
ENDCHAR
STARTCHAR 00C8
ENCODING 200
SWIDTH 500 0
DWIDTH 8 0
BBX 6 14 1 0
BITMAP
60
30
08
FC
80
80
80
FC
FC
80
80
80
80
FC
ENDCHAR
STARTCHAR 00C9
ENCODING 201
SWIDTH 500 0
DWIDTH 8 0
BBX 6 14 1 0
BITMAP
18
30
60
FC
80
80
80
FC
FC
80
80
80
80
FC
ENDCHAR
STARTCHAR 00CA
ENCODING 202
SWIDTH 500 0
DWIDTH 8 0
BBX 6 14 1 0
BITMAP
30
78
84
FC
80
80
80
FC
FC
80
80
80
80
FC
ENDCHAR
STARTCHAR 00CB
ENCODING 203
SWIDTH 500 0
DWIDTH 8 0
BBX 6 13 1 0
BITMAP
48
00
FC
80
80
80
FC
FC
80
80
80
80
FC
ENDCHAR
STARTCHAR 00CC
ENCODING 204
SWIDTH 500 0
DWIDTH 8 0
BBX 5 14 1 0
BITMAP
C0
20
10
78
30
30
30
30
30
30
30
30
30
78
ENDCHAR
STARTCHAR 00CD
ENCODING 205
SWIDTH 500 0
DWIDTH 8 0
BBX 4 14 2 0
BITMAP
10
20
40
F0
60
60
60
60
60
60
60
60
60
F0
ENDCHAR
STARTCHAR 00CE
ENCODING 206
SWIDTH 500 0
DWIDTH 8 0
BBX 6 14 1 0
BITMAP
30
78
84
78
30
30
30
30
30
30
30
30
30
78
ENDCHAR
STARTCHAR 00CF
ENCODING 207
SWIDTH 500 0
DWIDTH 8 0
BBX 6 13 1 0
BITMAP
CC
00
78
30
30
30
30
30
30
30
30
30
78
ENDCHAR
STARTCHAR 00D0
ENCODING 208
SWIDTH 500 0
DWIDTH 8 0
BBX 7 12 0 0
BITMAP
7C
44
46
42
42
F2
42
42
42
46
4C
78
ENDCHAR
STARTCHAR 00D1
ENCODING 209
SWIDTH 500 0
DWIDTH 8 0
BBX 6 14 1 0
BITMAP
44
FC
00
C4
C4
C4
A4
A4
B4
94
94
8C
8C
8C
ENDCHAR
STARTCHAR 00D2
ENCODING 210
SWIDTH 500 0
DWIDTH 8 0
BBX 6 14 1 0
BITMAP
C0
20
10
78
CC
84
84
84
84
84
84
84
CC
78
ENDCHAR
STARTCHAR 00D3
ENCODING 211
SWIDTH 500 0
DWIDTH 8 0
BBX 6 14 1 0
BITMAP
08
10
20
78
CC
84
84
84
84
84
84
84
CC
78
ENDCHAR
STARTCHAR 00D4
ENCODING 212
SWIDTH 500 0
DWIDTH 8 0
BBX 6 14 1 0
BITMAP
30
78
84
78
CC
84
84
84
84
84
84
84
CC
78
ENDCHAR
STARTCHAR 00D5
ENCODING 213
SWIDTH 500 0
DWIDTH 8 0
BBX 6 14 1 0
BITMAP
44
FC
00
78
CC
84
84
84
84
84
84
84
CC
78
ENDCHAR
STARTCHAR 00D6
ENCODING 214
SWIDTH 500 0
DWIDTH 8 0
BBX 6 13 1 0
BITMAP
CC
00
78
CC
84
84
84
84
84
84
84
CC
78
ENDCHAR
STARTCHAR 00D7
ENCODING 215
SWIDTH 1000 0
DWIDTH 16 0
BBX 8 7 4 2
BITMAP
C3
66
3C
18
3C
66
C3
ENDCHAR
STARTCHAR 00D8
ENCODING 216
SWIDTH 500 0
DWIDTH 8 0
BBX 8 12 0 -1
BITMAP
1D
26
62
46
46
4A
52
52
62
62
66
BC
ENDCHAR
STARTCHAR 00D9
ENCODING 217
SWIDTH 500 0
DWIDTH 8 0
BBX 6 14 1 0
BITMAP
C0
20
10
84
84
84
84
84
84
84
84
84
8C
78
ENDCHAR
STARTCHAR 00DA
ENCODING 218
SWIDTH 500 0
DWIDTH 8 0
BBX 6 14 1 0
BITMAP
08
10
20
84
84
84
84
84
84
84
84
84
8C
78
ENDCHAR
STARTCHAR 00DB
ENCODING 219
SWIDTH 500 0
DWIDTH 8 0
BBX 6 14 1 0
BITMAP
30
78
84
84
84
84
84
84
84
84
84
84
8C
78
ENDCHAR
STARTCHAR 00DC
ENCODING 220
SWIDTH 500 0
DWIDTH 8 0
BBX 6 13 1 0
BITMAP
CC
00
84
84
84
84
84
84
84
84
84
8C
78
ENDCHAR
STARTCHAR 00DD
ENCODING 221
SWIDTH 500 0
DWIDTH 8 0
BBX 6 14 1 0
BITMAP
18
30
60
84
84
48
48
78
30
30
30
30
30
30
ENDCHAR
STARTCHAR 00DE
ENCODING 222
SWIDTH 500 0
DWIDTH 8 0
BBX 6 12 1 0
BITMAP
80
80
F8
8C
84
84
84
FC
F0
80
80
80
ENDCHAR
STARTCHAR 00DF
ENCODING 223
SWIDTH 500 0
DWIDTH 8 0
BBX 7 12 1 0
BITMAP
78
CC
8C
8C
88
B8
8C
84
86
84
BC
B8
ENDCHAR
STARTCHAR 00E0
ENCODING 224
SWIDTH 500 0
DWIDTH 8 0
BBX 6 13 1 0
BITMAP
60
20
10
00
78
88
04
3C
FC
84
8C
8C
F4
ENDCHAR
STARTCHAR 00E1
ENCODING 225
SWIDTH 500 0
DWIDTH 8 0
BBX 6 12 1 1
BITMAP
10
20
00
78
88
04
3C
FC
84
8C
8C
F4
ENDCHAR
STARTCHAR 00E2
ENCODING 226
SWIDTH 500 0
DWIDTH 8 0
BBX 6 12 1 0
BITMAP
30
48
00
78
88
04
3C
FC
84
8C
8C
F4
ENDCHAR
STARTCHAR 00E3
ENCODING 227
SWIDTH 500 0
DWIDTH 8 0
BBX 6 12 1 0
BITMAP
64
98
00
78
88
04
3C
FC
84
8C
8C
F4
ENDCHAR
STARTCHAR 00E4
ENCODING 228
SWIDTH 500 0
DWIDTH 8 0
BBX 6 11 1 0
BITMAP
CC
00
78
88
04
3C
FC
84
8C
8C
F4
ENDCHAR
STARTCHAR 00E5
ENCODING 229
SWIDTH 500 0
DWIDTH 8 0
BBX 6 13 1 0
BITMAP
20
50
50
20
78
88
04
3C
FC
84
8C
8C
F4
ENDCHAR
STARTCHAR 00E6
ENCODING 230
SWIDTH 500 0
DWIDTH 8 0
BBX 8 9 0 0
BITMAP
74
5A
DA
13
7F
D0
DB
DA
6E
ENDCHAR
STARTCHAR 00E7
ENCODING 231
SWIDTH 500 0
DWIDTH 8 0
BBX 6 11 1 -2
BITMAP
30
6C
8C
80
80
84
84
CC
38
30
30
ENDCHAR
STARTCHAR 00E8
ENCODING 232
SWIDTH 500 0
DWIDTH 8 0
BBX 6 13 1 0
BITMAP
60
20
10
00
38
4C
84
84
FC
80
80
C4
7C
ENDCHAR
STARTCHAR 00E9
ENCODING 233
SWIDTH 500 0
DWIDTH 8 0
BBX 6 12 1 1
BITMAP
10
20
00
38
4C
84
84
FC
80
80
C4
7C
ENDCHAR
STARTCHAR 00EA
ENCODING 234
SWIDTH 500 0
DWIDTH 8 0
BBX 6 13 1 0
BITMAP
30
30
48
00
38
4C
84
84
FC
80
80
C4
7C
ENDCHAR
STARTCHAR 00EB
ENCODING 235
SWIDTH 500 0
DWIDTH 8 0
BBX 6 11 1 0
BITMAP
CC
00
38
4C
84
84
FC
80
80
C4
7C
ENDCHAR
STARTCHAR 00EC
ENCODING 236
SWIDTH 500 0
DWIDTH 8 0
BBX 6 13 1 0
BITMAP
20
20
10
00
70
30
30
30
30
30
30
30
FC
ENDCHAR
STARTCHAR 00ED
ENCODING 237
SWIDTH 500 0
DWIDTH 8 0
BBX 6 12 1 1
BITMAP
10
20
00
70
30
30
30
30
30
30
30
FC
ENDCHAR
STARTCHAR 00EE
ENCODING 238
SWIDTH 500 0
DWIDTH 8 0
BBX 4 12 2 0
BITMAP
60
90
00
60
60
60
60
60
60
60
60
60
ENDCHAR
STARTCHAR 00EF
ENCODING 239
SWIDTH 500 0
DWIDTH 8 0
BBX 6 11 1 0
BITMAP
CC
00
30
30
30
30
30
30
30
30
30
ENDCHAR
STARTCHAR 00F0
ENCODING 240
SWIDTH 500 0
DWIDTH 8 0
BBX 6 13 1 -1
BITMAP
34
18
68
0C
74
CC
CC
84
84
8C
CC
78
30
ENDCHAR
STARTCHAR 00F1
ENCODING 241
SWIDTH 500 0
DWIDTH 8 0
BBX 6 12 1 0
BITMAP
64
98
00
B8
CC
C4
84
84
84
84
84
84
ENDCHAR
STARTCHAR 00F2
ENCODING 242
SWIDTH 500 0
DWIDTH 8 0
BBX 6 13 1 0
BITMAP
20
20
10
00
78
48
84
84
84
84
84
CC
78
ENDCHAR
STARTCHAR 00F3
ENCODING 243
SWIDTH 500 0
DWIDTH 8 0
BBX 6 13 1 0
BITMAP
08
10
20
00
78
48
84
84
84
84
84
CC
78
ENDCHAR
STARTCHAR 00F4
ENCODING 244
SWIDTH 500 0
DWIDTH 8 0
BBX 6 12 1 0
BITMAP
30
48
00
78
48
84
84
84
84
84
CC
78
ENDCHAR
STARTCHAR 00F5
ENCODING 245
SWIDTH 500 0
DWIDTH 8 0
BBX 6 12 1 0
BITMAP
64
98
00
78
48
84
84
84
84
84
CC
78
ENDCHAR
STARTCHAR 00F6
ENCODING 246
SWIDTH 500 0
DWIDTH 8 0
BBX 6 11 1 0
BITMAP
CC
00
78
48
84
84
84
84
84
CC
78
ENDCHAR
STARTCHAR 00F7
ENCODING 247
SWIDTH 1000 0
DWIDTH 16 0
BBX 10 8 3 2
BITMAP
0C00
0C00
0000
0000
FFC0
0000
0000
0C00
ENDCHAR
STARTCHAR 00F8
ENCODING 248
SWIDTH 500 0
DWIDTH 8 0
BBX 7 9 0 0
BITMAP
1A
7C
4A
4A
52
62
62
66
B8
ENDCHAR
STARTCHAR 00F9
ENCODING 249
SWIDTH 500 0
DWIDTH 8 0
BBX 6 13 1 0
BITMAP
60
20
10
00
84
84
84
84
84
84
8C
CC
74
ENDCHAR
STARTCHAR 00FA
ENCODING 250
SWIDTH 500 0
DWIDTH 8 0
BBX 6 12 1 1
BITMAP
10
20
00
84
84
84
84
84
84
8C
CC
74
ENDCHAR
STARTCHAR 00FB
ENCODING 251
SWIDTH 500 0
DWIDTH 8 0
BBX 6 11 1 0
BITMAP
78
CC
84
84
84
84
84
84
84
CC
74
ENDCHAR
STARTCHAR 00FC
ENCODING 252
SWIDTH 500 0
DWIDTH 8 0
BBX 6 12 1 0
BITMAP
78
78
00
84
84
84
84
84
84
8C
CC
74
ENDCHAR
STARTCHAR 00FD
ENCODING 253
SWIDTH 500 0
DWIDTH 8 0
BBX 8 13 0 -2
BITMAP
0C
10
C3
42
42
66
24
3C
18
18
18
10
70
ENDCHAR
STARTCHAR 00FE
ENCODING 254
SWIDTH 500 0
DWIDTH 8 0
BBX 6 14 1 -2
BITMAP
80
80
80
B0
F8
84
84
84
84
84
C8
B0
80
80
ENDCHAR
STARTCHAR 00FF
ENCODING 255
SWIDTH 500 0
DWIDTH 8 0
BBX 8 13 0 -2
BITMAP
66
00
C3
42
42
66
24
3C
18
18
18
10
70
ENDCHAR
STARTCHAR 0101
ENCODING 257
SWIDTH 500 0
DWIDTH 8 0
BBX 6 12 1 0
BITMAP
78
00
00
78
88
04
3C
FC
84
8C
8C
F4
ENDCHAR
STARTCHAR 0113
ENCODING 275
SWIDTH 500 0
DWIDTH 8 0
BBX 6 12 1 0
BITMAP
78
00
00
38
4C
84
84
FC
80
80
C4
7C
ENDCHAR
STARTCHAR 011B
ENCODING 283
SWIDTH 500 0
DWIDTH 8 0
BBX 6 13 1 0
BITMAP
48
30
30
00
38
4C
84
84
FC
80
80
C4
7C
ENDCHAR
STARTCHAR 012B
ENCODING 299
SWIDTH 500 0
DWIDTH 8 0
BBX 6 12 1 0
BITMAP
78
00
00
70
30
30
30
30
30
30
30
FC
ENDCHAR
STARTCHAR 0131
ENCODING 305
SWIDTH 500 0
DWIDTH 8 0
BBX 6 9 1 0
BITMAP
78
48
CC
84
84
84
84
CC
78
ENDCHAR
STARTCHAR 0144
ENCODING 324
SWIDTH 500 0
DWIDTH 8 0
BBX 6 13 1 0
BITMAP
08
10
20
00
B8
CC
C4
84
84
84
84
84
84
ENDCHAR
STARTCHAR 0148
ENCODING 328
SWIDTH 500 0
DWIDTH 8 0
BBX 6 13 1 0
BITMAP
68
28
10
00
B8
CC
C4
84
84
84
84
84
84
ENDCHAR
STARTCHAR 014D
ENCODING 333
SWIDTH 500 0
DWIDTH 8 0
BBX 6 12 1 0
BITMAP
78
00
00
78
48
84
84
84
84
84
CC
78
ENDCHAR
STARTCHAR 0152
ENCODING 338
SWIDTH 500 0
DWIDTH 8 0
BBX 8 12 0 0
BITMAP
7F
48
48
48
C8
CE
C8
48
48
48
7F
3F
ENDCHAR
STARTCHAR 0153
ENCODING 339
SWIDTH 500 0
DWIDTH 8 0
BBX 8 9 0 0
BITMAP
24
5A
DB
89
8F
88
D9
5A
76
ENDCHAR
STARTCHAR 0160
ENCODING 352
SWIDTH 500 0
DWIDTH 8 0
BBX 6 14 1 0
BITMAP
84
78
30
7C
C4
80
80
C0
78
0C
04
04
84
F8
ENDCHAR
STARTCHAR 0161
ENCODING 353
SWIDTH 500 0
DWIDTH 8 0
BBX 6 12 1 0
BITMAP
48
30
00
78
48
C0
40
78
0C
0C
8C
F8
ENDCHAR
STARTCHAR 016B
ENCODING 363
SWIDTH 500 0
DWIDTH 8 0
BBX 6 12 1 0
BITMAP
78
00
00
84
84
84
84
84
84
8C
CC
74
ENDCHAR
STARTCHAR 0178
ENCODING 376
SWIDTH 500 0
DWIDTH 8 0
BBX 6 13 1 0
BITMAP
CC
00
84
84
48
48
78
30
30
30
30
30
30
ENDCHAR
STARTCHAR 0192
ENCODING 402
SWIDTH 500 0
DWIDTH 8 0
BBX 8 14 0 -1
BITMAP
06
0B
08
08
18
18
3E
18
18
10
10
10
90
F0
ENDCHAR
STARTCHAR 01CE
ENCODING 462
SWIDTH 500 0
DWIDTH 8 0
BBX 6 13 1 0
BITMAP
48
30
30
00
78
88
04
3C
FC
84
8C
8C
F4
ENDCHAR
STARTCHAR 01D0
ENCODING 464
SWIDTH 500 0
DWIDTH 8 0
BBX 6 13 1 0
BITMAP
48
30
30
00
70
30
30
30
30
30
30
30
FC
ENDCHAR
STARTCHAR 01D2
ENCODING 466
SWIDTH 500 0
DWIDTH 8 0
BBX 6 13 1 0
BITMAP
48
30
30
00
78
48
84
84
84
84
84
CC
78
ENDCHAR
STARTCHAR 01D4
ENCODING 468
SWIDTH 500 0
DWIDTH 8 0
BBX 6 13 1 0
BITMAP
48
30
30
00
84
84
84
84
84
84
8C
CC
74
ENDCHAR
STARTCHAR 01D6
ENCODING 470
SWIDTH 500 0
DWIDTH 8 0
BBX 6 13 1 0
BITMAP
78
00
58
58
84
84
84
84
84
84
8C
CC
74
ENDCHAR
STARTCHAR 01D8
ENCODING 472
SWIDTH 500 0
DWIDTH 8 0
BBX 6 14 1 0
BITMAP
10
30
20
78
78
84
84
84
84
84
84
8C
CC
74
ENDCHAR
STARTCHAR 01DA
ENCODING 474
SWIDTH 500 0
DWIDTH 8 0
BBX 6 14 1 0
BITMAP
48
30
30
58
58
84
84
84
84
84
84
8C
CC
74
ENDCHAR
STARTCHAR 01DC
ENCODING 476
SWIDTH 500 0
DWIDTH 8 0
BBX 6 14 1 0
BITMAP
20
10
10
78
78
84
84
84
84
84
84
8C
CC
74
ENDCHAR
STARTCHAR 01F9
ENCODING 505
SWIDTH 500 0
DWIDTH 8 0
BBX 6 11 1 0
BITMAP
60
10
B8
CC
84
84
84
84
84
84
84
ENDCHAR
STARTCHAR 0251
ENCODING 593
SWIDTH 500 0
DWIDTH 8 0
BBX 6 10 1 -1
BITMAP
34
6C
84
84
84
84
84
84
4C
34
ENDCHAR
STARTCHAR 0261
ENCODING 609
SWIDTH 500 0
DWIDTH 8 0
BBX 6 11 1 -2
BITMAP
7C
CC
8C
8C
8C
8C
CC
7C
0C
08
78
ENDCHAR
STARTCHAR 02C6
ENCODING 710
SWIDTH 500 0
DWIDTH 8 0
BBX 3 2 1 9
BITMAP
60
A0
ENDCHAR
STARTCHAR 02C7
ENCODING 711
SWIDTH 1000 0
DWIDTH 16 0
BBX 4 3 6 10
BITMAP
90
A0
40
ENDCHAR
STARTCHAR 02C9
ENCODING 713
SWIDTH 1000 0
DWIDTH 16 0
BBX 5 1 6 11
BITMAP
F8
ENDCHAR
STARTCHAR 02CA
ENCODING 714
SWIDTH 1000 0
DWIDTH 16 0
BBX 4 3 6 9
BITMAP
30
60
80
ENDCHAR
STARTCHAR 02CB
ENCODING 715
SWIDTH 1000 0
DWIDTH 16 0
BBX 3 3 6 9
BITMAP
80
40
20
ENDCHAR
STARTCHAR 02D8
ENCODING 728
SWIDTH 500 0
DWIDTH 8 0
BBX 6 9 1 0
BITMAP
84
84
84
84
84
84
8C
CC
74
ENDCHAR
STARTCHAR 02D9
ENCODING 729
SWIDTH 1000 0
DWIDTH 16 0
BBX 2 2 7 9
BITMAP
C0
C0
ENDCHAR
STARTCHAR 02DA
ENCODING 730
SWIDTH 500 0
DWIDTH 8 0
BBX 6 9 1 0
BITMAP
84
84
84
84
84
84
8C
CC
74
ENDCHAR
STARTCHAR 02DB
ENCODING 731
SWIDTH 500 0
DWIDTH 8 0
BBX 6 11 1 0
BITMAP
20
20
FC
FC
20
20
20
20
20
30
3C
ENDCHAR
STARTCHAR 02DC
ENCODING 732
SWIDTH 500 0
DWIDTH 8 0
BBX 5 2 0 10
BITMAP
60
B8
ENDCHAR
STARTCHAR 02DD
ENCODING 733
SWIDTH 500 0
DWIDTH 8 0
BBX 6 11 1 -2
BITMAP
84
84
CC
48
48
38
30
30
20
20
E0
ENDCHAR
STARTCHAR 0391
ENCODING 913
SWIDTH 1000 0
DWIDTH 16 0
BBX 10 12 3 0
BITMAP
0C00
0C00
1E00
1200
1200
3300
2100
7F80
6180
4080
C0C0
80C0
ENDCHAR
STARTCHAR 0392
ENCODING 914
SWIDTH 1000 0
DWIDTH 16 0
BBX 8 12 4 0
BITMAP
F8
FE
82
82
82
FE
FE
83
81
81
83
FE
ENDCHAR
STARTCHAR 0393
ENCODING 915
SWIDTH 1000 0
DWIDTH 16 0
BBX 8 12 4 0
BITMAP
FF
FF
C0
C0
C0
C0
C0
C0
C0
C0
C0
C0
ENDCHAR
STARTCHAR 0394
ENCODING 916
SWIDTH 1000 0
DWIDTH 16 0
BBX 10 11 3 1
BITMAP
0800
0C00
1C00
1600
3200
3300
2100
6180
4080
C0C0
FFC0
ENDCHAR
STARTCHAR 0395
ENCODING 917
SWIDTH 1000 0
DWIDTH 16 0
BBX 8 12 4 0
BITMAP
FE
FE
C0
C0
C0
FC
FC
C0
C0
C0
C0
FF
ENDCHAR
STARTCHAR 0396
ENCODING 918
SWIDTH 1000 0
DWIDTH 16 0
BBX 8 12 4 0
BITMAP
FF
FF
06
04
0C
08
18
30
20
60
40
FF
ENDCHAR
STARTCHAR 0397
ENCODING 919
SWIDTH 1000 0
DWIDTH 16 0
BBX 8 12 4 0
BITMAP
81
81
81
81
81
FF
81
81
81
81
81
81
ENDCHAR
STARTCHAR 0398
ENCODING 920
SWIDTH 1000 0
DWIDTH 16 0
BBX 10 12 3 0
BITMAP
1E00
7380
4080
C0C0
8040
8040
BF40
8040
C0C0
C0C0
6180
3F00
ENDCHAR
STARTCHAR 0399
ENCODING 921
SWIDTH 1000 0
DWIDTH 16 0
BBX 2 12 7 0
BITMAP
C0
C0
C0
C0
C0
C0
C0
C0
C0
C0
C0
C0
ENDCHAR
STARTCHAR 039A
ENCODING 922
SWIDTH 1000 0
DWIDTH 16 0
BBX 8 12 4 0
BITMAP
83
86
8C
98
B0
E0
E0
B0
98
8C
86
83
ENDCHAR
STARTCHAR 039B
ENCODING 923
SWIDTH 1000 0
DWIDTH 16 0
BBX 10 12 3 0
BITMAP
0C00
0C00
1E00
1200
1200
3300
2100
6180
6180
4080
C0C0
8040
ENDCHAR
STARTCHAR 039C
ENCODING 924
SWIDTH 1000 0
DWIDTH 16 0
BBX 10 12 3 0
BITMAP
C0C0
C0C0
E1C0
A140
B340
9240
9E40
8C40
8C40
8040
8040
8040
ENDCHAR
STARTCHAR 039D
ENCODING 925
SWIDTH 1000 0
DWIDTH 16 0
BBX 8 12 4 0
BITMAP
81
C1
E1
A1
B1
99
89
8D
87
83
83
81
ENDCHAR
STARTCHAR 039E
ENCODING 926
SWIDTH 1000 0
DWIDTH 16 0
BBX 8 12 4 0
BITMAP
FF
FE
0C
18
30
7F
FE
0C
18
30
60
FF
ENDCHAR
STARTCHAR 039F
ENCODING 927
SWIDTH 1000 0
DWIDTH 16 0
BBX 10 12 3 0
BITMAP
1E00
7380
4080
C0C0
8040
8040
8040
8040
C0C0
C0C0
6180
3F00
ENDCHAR
STARTCHAR 03A0
ENCODING 928
SWIDTH 1000 0
DWIDTH 16 0
BBX 10 12 3 0
BITMAP
FFC0
FFC0
6180
6180
6180
6180
6180
6180
6180
6180
6180
6180
ENDCHAR
STARTCHAR 03A1
ENCODING 929
SWIDTH 1000 0
DWIDTH 16 0
BBX 8 12 4 0
BITMAP
F8
FE
C2
C3
C3
C2
FE
C0
C0
C0
C0
C0
ENDCHAR
STARTCHAR 03A3
ENCODING 931
SWIDTH 1000 0
DWIDTH 16 0
BBX 8 12 4 0
BITMAP
FF
FF
60
30
18
0C
0C
18
30
60
C0
FF
ENDCHAR
STARTCHAR 03A4
ENCODING 932
SWIDTH 1000 0
DWIDTH 16 0
BBX 10 12 3 0
BITMAP
FFC0
FFC0
0C00
0C00
0C00
0C00
0C00
0C00
0C00
0C00
0C00
0C00
ENDCHAR
STARTCHAR 03A5
ENCODING 933
SWIDTH 1000 0
DWIDTH 16 0
BBX 10 12 3 0
BITMAP
8040
C0C0
6180
2100
3300
1E00
0C00
0C00
0C00
0C00
0C00
0C00
ENDCHAR
STARTCHAR 03A6
ENCODING 934
SWIDTH 1000 0
DWIDTH 16 0
BBX 10 12 3 0
BITMAP
0C00
1E00
7F80
CCC0
8C40
8C40
8C40
8C40
CCC0
7F80
3F00
0C00
ENDCHAR
STARTCHAR 03A7
ENCODING 935
SWIDTH 1000 0
DWIDTH 16 0
BBX 10 12 3 0
BITMAP
C0C0
6180
2100
3300
1E00
0C00
0C00
1E00
3300
2100
6180
C0C0
ENDCHAR
STARTCHAR 03A8
ENCODING 936
SWIDTH 1000 0
DWIDTH 16 0
BBX 10 12 3 0
BITMAP
8C40
8C40
8C40
CCC0
6D80
3F00
1E00
0C00
0C00
0C00
0C00
0C00
ENDCHAR
STARTCHAR 03A9
ENCODING 937
SWIDTH 1000 0
DWIDTH 16 0
BBX 10 12 3 0
BITMAP
1E00
7380
4080
C0C0
8040
8040
C040
40C0
4080
2100
1200
7380
ENDCHAR
STARTCHAR 03B1
ENCODING 945
SWIDTH 1000 0
DWIDTH 16 0
BBX 8 8 4 0
BITMAP
79
CF
86
86
86
86
CF
79
ENDCHAR
STARTCHAR 03B2
ENCODING 946
SWIDTH 1000 0
DWIDTH 16 0
BBX 8 14 4 -2
BITMAP
7C
44
C6
C6
C4
DC
C2
C3
C3
C3
C6
FC
C0
C0
ENDCHAR
STARTCHAR 03B3
ENCODING 947
SWIDTH 1000 0
DWIDTH 16 0
BBX 9 10 3 -2
BITMAP
C080
7180
1100
1B00
0E00
0C00
0C00
0800
0800
1800
ENDCHAR
STARTCHAR 03B4
ENCODING 948
SWIDTH 1000 0
DWIDTH 16 0
BBX 7 12 5 0
BITMAP
78
CE
C0
60
38
4C
84
86
86
84
CC
78
ENDCHAR
STARTCHAR 03B5
ENCODING 949
SWIDTH 1000 0
DWIDTH 16 0
BBX 4 8 6 0
BITMAP
F0
80
80
F0
F0
80
80
F0
ENDCHAR
STARTCHAR 03B6
ENCODING 950
SWIDTH 1000 0
DWIDTH 16 0
BBX 7 13 4 -2
BITMAP
02
02
06
7C
40
C0
40
60
30
18
08
18
70
ENDCHAR
STARTCHAR 03B7
ENCODING 951
SWIDTH 1000 0
DWIDTH 16 0
BBX 8 10 4 -1
BITMAP
6E
F2
23
23
23
23
23
03
03
03
ENDCHAR
STARTCHAR 03B8
ENCODING 952
SWIDTH 1000 0
DWIDTH 16 0
BBX 6 12 5 0
BITMAP
30
78
CC
84
84
84
FC
84
84
CC
48
78
ENDCHAR
STARTCHAR 03B9
ENCODING 953
SWIDTH 1000 0
DWIDTH 16 0
BBX 2 8 7 0
BITMAP
80
80
80
80
80
80
80
C0
ENDCHAR
STARTCHAR 03BA
ENCODING 954
SWIDTH 1000 0
DWIDTH 16 0
BBX 6 8 5 0
BITMAP
88
98
B0
E0
E0
98
8C
84
ENDCHAR
STARTCHAR 03BB
ENCODING 955
SWIDTH 1000 0
DWIDTH 16 0
BBX 8 12 4 0
BITMAP
60
F0
18
08
18
1C
14
24
24
62
42
43
ENDCHAR
STARTCHAR 03BC
ENCODING 956
SWIDTH 1000 0
DWIDTH 16 0
BBX 6 10 5 -2
BITMAP
84
84
84
84
84
8C
CC
F4
80
80
ENDCHAR
STARTCHAR 03BD
ENCODING 957
SWIDTH 1000 0
DWIDTH 16 0
BBX 6 8 5 0
BITMAP
84
C4
44
48
48
58
70
60
ENDCHAR
STARTCHAR 03BE
ENCODING 958
SWIDTH 1000 0
DWIDTH 16 0
BBX 6 14 5 -1
BITMAP
3C
40
C0
C0
60
7C
C0
80
80
C0
38
04
0C
38
ENDCHAR
STARTCHAR 03BF
ENCODING 959
SWIDTH 1000 0
DWIDTH 16 0
BBX 6 8 5 0
BITMAP
78
CC
84
84
84
84
CC
78
ENDCHAR
STARTCHAR 03C0
ENCODING 960
SWIDTH 1000 0
DWIDTH 16 0
BBX 10 8 3 0
BITMAP
FFC0
3300
3300
3300
3300
3300
3300
3100
ENDCHAR
STARTCHAR 03C1
ENCODING 961
SWIDTH 1000 0
DWIDTH 16 0
BBX 6 11 5 -2
BITMAP
78
CC
84
84
84
84
CC
B8
80
80
80
ENDCHAR
STARTCHAR 03C3
ENCODING 963
SWIDTH 1000 0
DWIDTH 16 0
BBX 8 8 4 0
BITMAP
3F
7C
C4
86
86
86
44
78
ENDCHAR
STARTCHAR 03C4
ENCODING 964
SWIDTH 1000 0
DWIDTH 16 0
BBX 8 8 4 0
BITMAP
7F
FF
08
08
08
08
08
0C
ENDCHAR
STARTCHAR 03C5
ENCODING 965
SWIDTH 1000 0
DWIDTH 16 0
BBX 6 8 5 0
BITMAP
84
84
84
84
84
84
CC
78
ENDCHAR
STARTCHAR 03C6
ENCODING 966
SWIDTH 1000 0
DWIDTH 16 0
BBX 8 13 4 -2
BITMAP
18
18
18
3C
5E
DB
99
99
DB
7E
3C
18
18
ENDCHAR
STARTCHAR 03C7
ENCODING 967
SWIDTH 1000 0
DWIDTH 16 0
BBX 8 10 4 -1
BITMAP
C2
66
34
18
18
18
2C
64
46
83
ENDCHAR
STARTCHAR 03C8
ENCODING 968
SWIDTH 1000 0
DWIDTH 16 0
BBX 10 11 3 -2
BITMAP
8C40
8C40
8C40
8C40
CCC0
4C80
6F80
1E00
0C00
0C00
0C00
ENDCHAR
STARTCHAR 03C9
ENCODING 969
SWIDTH 1000 0
DWIDTH 16 0
BBX 12 8 2 0
BITMAP
30C0
70E0
4020
4620
C630
4620
6F60
39C0
ENDCHAR
STARTCHAR 0401
ENCODING 1025
SWIDTH 1000 0
DWIDTH 16 0
BBX 8 14 4 0
BITMAP
66
66
FF
C0
C0
C0
C0
FE
C0
C0
C0
C0
C0
FF
ENDCHAR
STARTCHAR 0410
ENCODING 1040
SWIDTH 1000 0
DWIDTH 16 0
BBX 10 12 3 0
BITMAP
0C00
0C00
1E00
1600
1200
3300
2300
2100
7F80
4180
4080
C0C0
ENDCHAR
STARTCHAR 0411
ENCODING 1041
SWIDTH 1000 0
DWIDTH 16 0
BBX 8 12 4 0
BITMAP
FF
FF
80
80
80
FE
83
81
81
81
FF
FE
ENDCHAR
STARTCHAR 0412
ENCODING 1042
SWIDTH 1000 0
DWIDTH 16 0
BBX 8 12 4 0
BITMAP
FC
FE
83
83
83
FE
FF
81
81
81
FF
FE
ENDCHAR
STARTCHAR 0413
ENCODING 1043
SWIDTH 1000 0
DWIDTH 16 0
BBX 7 12 5 0
BITMAP
FE
FE
80
80
80
80
80
80
80
80
80
80
ENDCHAR
STARTCHAR 0414
ENCODING 1044
SWIDTH 1000 0
DWIDTH 16 0
BBX 12 14 2 -2
BITMAP
1FC0
1FC0
1840
1840
1840
1840
1840
1040
1040
3040
FFF0
FFF0
C030
C030
ENDCHAR
STARTCHAR 0415
ENCODING 1045
SWIDTH 1000 0
DWIDTH 16 0
BBX 8 12 4 0
BITMAP
FF
FF
80
80
80
FE
FE
80
80
80
80
FF
ENDCHAR
STARTCHAR 0416
ENCODING 1046
SWIDTH 1000 0
DWIDTH 16 0
BBX 14 12 1 0
BITMAP
C30C
6318
3330
1B60
0F40
0780
0FC0
1B60
1320
2330
6318
C30C
ENDCHAR
STARTCHAR 0417
ENCODING 1047
SWIDTH 1000 0
DWIDTH 16 0
BBX 10 12 3 0
BITMAP
3F00
6380
4180
0080
0180
0F00
0180
0080
C0C0
4080
6180
3F00
ENDCHAR
STARTCHAR 0418
ENCODING 1048
SWIDTH 1000 0
DWIDTH 16 0
BBX 8 12 4 0
BITMAP
81
83
87
85
8D
89
99
B1
A1
E1
C1
81
ENDCHAR
STARTCHAR 0419
ENCODING 1049
SWIDTH 1000 0
DWIDTH 16 0
BBX 8 14 4 0
BITMAP
62
3C
81
83
87
85
8D
89
99
B1
A1
E1
C1
81
ENDCHAR
STARTCHAR 041A
ENCODING 1050
SWIDTH 1000 0
DWIDTH 16 0
BBX 8 12 4 0
BITMAP
83
86
8C
98
B0
E0
B0
B0
98
8C
86
83
ENDCHAR
STARTCHAR 041B
ENCODING 1051
SWIDTH 1000 0
DWIDTH 16 0
BBX 10 12 3 0
BITMAP
1FC0
1FC0
10C0
10C0
10C0
10C0
10C0
10C0
10C0
30C0
E0C0
C0C0
ENDCHAR
STARTCHAR 041C
ENCODING 1052
SWIDTH 1000 0
DWIDTH 16 0
BBX 12 12 2 0
BITMAP
E070
E070
E070
F0F0
D0B0
D0B0
D9B0
C930
CD30
CF30
C630
C630
ENDCHAR
STARTCHAR 041D
ENCODING 1053
SWIDTH 1000 0
DWIDTH 16 0
BBX 8 12 4 0
BITMAP
81
81
81
81
81
FF
FF
81
81
81
81
81
ENDCHAR
STARTCHAR 041E
ENCODING 1054
SWIDTH 1000 0
DWIDTH 16 0
BBX 10 12 3 0
BITMAP
3F00
7380
4080
C0C0
8040
8040
8040
8040
C0C0
C0C0
7180
3F00
ENDCHAR
STARTCHAR 041F
ENCODING 1055
SWIDTH 1000 0
DWIDTH 16 0
BBX 8 12 4 0
BITMAP
FF
FF
81
81
81
81
81
81
81
81
81
81
ENDCHAR
STARTCHAR 0420
ENCODING 1056
SWIDTH 1000 0
DWIDTH 16 0
BBX 8 12 4 0
BITMAP
FC
FE
83
81
81
83
FE
80
80
80
80
80
ENDCHAR
STARTCHAR 0421
ENCODING 1057
SWIDTH 1000 0
DWIDTH 16 0
BBX 10 12 3 0
BITMAP
1F00
7380
60C0
C0C0
C000
8000
8000
8000
C0C0
40C0
6180
3F00
ENDCHAR
STARTCHAR 0422
ENCODING 1058
SWIDTH 1000 0
DWIDTH 16 0
BBX 8 12 4 0
BITMAP
FF
FF
18
18
18
18
18
18
18
18
18
18
ENDCHAR
STARTCHAR 0423
ENCODING 1059
SWIDTH 1000 0
DWIDTH 16 0
BBX 8 12 4 0
BITMAP
81
C3
43
62
26
36
34
1C
18
18
38
70
ENDCHAR
STARTCHAR 0424
ENCODING 1060
SWIDTH 1000 0
DWIDTH 16 0
BBX 12 13 2 0
BITMAP
0600
0600
3FC0
6670
C630
8610
8610
8610
8610
6670
3FC0
0600
0600
ENDCHAR
STARTCHAR 0425
ENCODING 1061
SWIDTH 1000 0
DWIDTH 16 0
BBX 10 12 3 0
BITMAP
C080
6180
2300
3300
1E00
0C00
0C00
1E00
3300
2300
6180
C0C0
ENDCHAR
STARTCHAR 0426
ENCODING 1062
SWIDTH 1000 0
DWIDTH 16 0
BBX 10 14 3 -2
BITMAP
8180
8180
8180
8180
8180
8180
8180
8180
8180
8180
8180
FFC0
0040
0040
ENDCHAR
STARTCHAR 0427
ENCODING 1063
SWIDTH 1000 0
DWIDTH 16 0
BBX 8 12 4 0
BITMAP
C3
C3
C3
C3
C3
77
7F
03
03
03
03
03
ENDCHAR
STARTCHAR 0428
ENCODING 1064
SWIDTH 1000 0
DWIDTH 16 0
BBX 14 12 1 0
BITMAP
C30C
C30C
C30C
C30C
C30C
C30C
C30C
C30C
C30C
C30C
FFFC
FFFC
ENDCHAR
STARTCHAR 0429
ENCODING 1065
SWIDTH 1000 0
DWIDTH 16 0
BBX 16 14 0 -2
BITMAP
C30C
C30C
C30C
C30C
C30C
C30C
C30C
C30C
C30C
C30C
FFFF
FFFF
0002
0002
ENDCHAR
STARTCHAR 042A
ENCODING 1066
SWIDTH 1000 0
DWIDTH 16 0
BBX 12 12 2 0
BITMAP
F800
F800
1800
1800
1800
1FC0
1860
1820
1830
1820
1FE0
1FC0
ENDCHAR
STARTCHAR 042B
ENCODING 1067
SWIDTH 1000 0
DWIDTH 16 0
BBX 12 12 2 0
BITMAP
C030
C030
C030
C030
C030
FE30
C330
C130
C1B0
C130
FF30
FE30
ENDCHAR
STARTCHAR 042C
ENCODING 1068
SWIDTH 1000 0
DWIDTH 16 0
BBX 8 12 4 0
BITMAP
80
80
80
80
80
FE
83
81
81
83
FF
FE
ENDCHAR
STARTCHAR 042D
ENCODING 1069
SWIDTH 1000 0
DWIDTH 16 0
BBX 10 12 3 0
BITMAP
3E00
7300
C180
C080
00C0
1FC0
1FC0
00C0
C0C0
C080
6180
3F00
ENDCHAR
STARTCHAR 042E
ENCODING 1070
SWIDTH 1000 0
DWIDTH 16 0
BBX 14 12 1 0
BITMAP
C3E0
C770
CC18
C808
D80C
F80C
D80C
D80C
C808
CC18
C638
C3E0
ENDCHAR
STARTCHAR 042F
ENCODING 1071
SWIDTH 1000 0
DWIDTH 16 0
BBX 8 12 4 0
BITMAP
3F
FF
C1
81
81
C1
7F
31
31
61
41
C1
ENDCHAR
STARTCHAR 0430
ENCODING 1072
SWIDTH 1000 0
DWIDTH 16 0
BBX 8 9 4 0
BITMAP
18
7E
C2
02
3E
62
C6
C6
7B
ENDCHAR
STARTCHAR 0431
ENCODING 1073
SWIDTH 1000 0
DWIDTH 16 0
BBX 8 12 4 0
BITMAP
02
3E
60
C0
BE
C2
C3
C1
C1
C3
62
3C
ENDCHAR
STARTCHAR 0432
ENCODING 1074
SWIDTH 1000 0
DWIDTH 16 0
BBX 6 9 5 0
BITMAP
F0
FC
84
84
F8
84
84
8C
F8
ENDCHAR
STARTCHAR 0433
ENCODING 1075
SWIDTH 1000 0
DWIDTH 16 0
BBX 6 8 5 0
BITMAP
FC
C0
C0
C0
C0
C0
C0
C0
ENDCHAR
STARTCHAR 0434
ENCODING 1076
SWIDTH 1000 0
DWIDTH 16 0
BBX 10 10 3 -2
BITMAP
3F00
3100
3100
3100
3100
2100
6100
FFC0
C0C0
C0C0
ENDCHAR
STARTCHAR 0435
ENCODING 1077
SWIDTH 1000 0
DWIDTH 16 0
BBX 8 9 4 0
BITMAP
3C
66
42
C3
FF
C0
C3
66
3C
ENDCHAR
STARTCHAR 0436
ENCODING 1078
SWIDTH 1000 0
DWIDTH 16 0
BBX 10 8 3 0
BITMAP
CCC0
6D80
3F00
1E00
3F00
6D80
4C80
8C40
ENDCHAR
STARTCHAR 0437
ENCODING 1079
SWIDTH 1000 0
DWIDTH 16 0
BBX 6 9 5 0
BITMAP
30
EC
84
04
38
04
84
84
78
ENDCHAR
STARTCHAR 0438
ENCODING 1080
SWIDTH 1000 0
DWIDTH 16 0
BBX 8 8 4 0
BITMAP
C7
C7
CF
DB
D3
F3
E3
C3
ENDCHAR
STARTCHAR 0439
ENCODING 1081
SWIDTH 1000 0
DWIDTH 16 0
BBX 8 11 4 0
BITMAP
24
18
00
C7
C7
CF
DB
D3
F3
E3
C3
ENDCHAR
STARTCHAR 043A
ENCODING 1082
SWIDTH 1000 0
DWIDTH 16 0
BBX 6 8 5 0
BITMAP
8C
90
A0
E0
E0
B0
98
8C
ENDCHAR
STARTCHAR 043B
ENCODING 1083
SWIDTH 1000 0
DWIDTH 16 0
BBX 8 8 4 0
BITMAP
3F
33
33
33
33
33
23
E3
ENDCHAR
STARTCHAR 043C
ENCODING 1084
SWIDTH 1000 0
DWIDTH 16 0
BBX 10 8 3 0
BITMAP
E1C0
E1C0
F1C0
D2C0
D2C0
DEC0
CCC0
CCC0
ENDCHAR
STARTCHAR 043D
ENCODING 1085
SWIDTH 1000 0
DWIDTH 16 0
BBX 6 8 5 0
BITMAP
84
84
84
FC
84
84
84
84
ENDCHAR
STARTCHAR 043E
ENCODING 1086
SWIDTH 1000 0
DWIDTH 16 0
BBX 8 9 4 0
BITMAP
18
7E
42
C3
C3
C3
C3
62
3C
ENDCHAR
STARTCHAR 043F
ENCODING 1087
SWIDTH 1000 0
DWIDTH 16 0
BBX 6 8 5 0
BITMAP
FC
84
84
84
84
84
84
84
ENDCHAR
STARTCHAR 0440
ENCODING 1088
SWIDTH 1000 0
DWIDTH 16 0
BBX 8 12 4 -3
BITMAP
18
E6
C2
C3
C3
C3
C3
C2
FC
C0
C0
C0
ENDCHAR
STARTCHAR 0441
ENCODING 1089
SWIDTH 1000 0
DWIDTH 16 0
BBX 8 9 4 0
BITMAP
18
7E
43
C0
C0
C0
C3
62
3C
ENDCHAR
STARTCHAR 0442
ENCODING 1090
SWIDTH 1000 0
DWIDTH 16 0
BBX 6 8 5 0
BITMAP
FC
30
30
30
30
30
30
30
ENDCHAR
STARTCHAR 0443
ENCODING 1091
SWIDTH 1000 0
DWIDTH 16 0
BBX 8 10 4 -3
BITMAP
C3
62
66
24
34
1C
18
08
18
70
ENDCHAR
STARTCHAR 0444
ENCODING 1092
SWIDTH 1000 0
DWIDTH 16 0
BBX 12 13 2 -2
BITMAP
0600
0600
1F80
3FE0
6660
4630
C630
C630
4620
6660
3FC0
0600
0600
ENDCHAR
STARTCHAR 0445
ENCODING 1093
SWIDTH 1000 0
DWIDTH 16 0
BBX 8 8 4 0
BITMAP
66
24
3C
18
18
34
66
C3
ENDCHAR
STARTCHAR 0446
ENCODING 1094
SWIDTH 1000 0
DWIDTH 16 0
BBX 8 10 4 -2
BITMAP
86
86
86
86
86
86
86
FF
01
01
ENDCHAR
STARTCHAR 0447
ENCODING 1095
SWIDTH 1000 0
DWIDTH 16 0
BBX 6 8 5 0
BITMAP
84
84
84
E4
7C
04
04
04
ENDCHAR
STARTCHAR 0448
ENCODING 1096
SWIDTH 1000 0
DWIDTH 16 0
BBX 11 8 3 0
BITMAP
8C60
8C60
8C60
8C60
8C60
8C60
8C60
FFE0
ENDCHAR
STARTCHAR 0449
ENCODING 1097
SWIDTH 1000 0
DWIDTH 16 0
BBX 12 10 2 -2
BITMAP
8460
8460
8460
8460
8460
8460
8460
FFF0
0010
0010
ENDCHAR
STARTCHAR 044A
ENCODING 1098
SWIDTH 1000 0
DWIDTH 16 0
BBX 8 8 4 0
BITMAP
E0
20
20
3F
21
21
21
3F
ENDCHAR
STARTCHAR 044B
ENCODING 1099
SWIDTH 1000 0
DWIDTH 16 0
BBX 10 8 3 0
BITMAP
C0C0
C0C0
C0C0
FCC0
C6C0
C2C0
C6C0
FCC0
ENDCHAR
STARTCHAR 044C
ENCODING 1100
SWIDTH 1000 0
DWIDTH 16 0
BBX 6 8 5 0
BITMAP
80
80
80
FC
84
84
84
F8
ENDCHAR
STARTCHAR 044D
ENCODING 1101
SWIDTH 1000 0
DWIDTH 16 0
BBX 8 9 4 0
BITMAP
38
7E
C2
03
1F
03
C3
66
3C
ENDCHAR
STARTCHAR 044E
ENCODING 1102
SWIDTH 1000 0
DWIDTH 16 0
BBX 10 9 3 0
BITMAP
0700
8D80
90C0
9040
F040
9040
9040
98C0
8F80
ENDCHAR
STARTCHAR 044F
ENCODING 1103
SWIDTH 1000 0
DWIDTH 16 0
BBX 6 8 5 0
BITMAP
FC
84
84
C4
7C
64
44
C4
ENDCHAR
STARTCHAR 0451
ENCODING 1105
SWIDTH 1000 0
DWIDTH 16 0
BBX 8 11 4 0
BITMAP
24
00
18
7E
42
C3
FF
C0
C3
66
3C
ENDCHAR
STARTCHAR 2010
ENCODING 8208
SWIDTH 1000 0
DWIDTH 16 0
BBX 4 1 6 4
BITMAP
F0
ENDCHAR
STARTCHAR 2013
ENCODING 8211
SWIDTH 1000 0
DWIDTH 16 0
BBX 6 1 5 5
BITMAP
FC
ENDCHAR
STARTCHAR 2014
ENCODING 8212
SWIDTH 1000 0
DWIDTH 16 0
BBX 16 1 0 5
BITMAP
FFFF
ENDCHAR
STARTCHAR 2015
ENCODING 8213
SWIDTH 1000 0
DWIDTH 16 0
BBX 12 1 2 5
BITMAP
FFF0
ENDCHAR
STARTCHAR 2016
ENCODING 8214
SWIDTH 1000 0
DWIDTH 16 0
BBX 4 16 6 -2
BITMAP
90
90
90
90
90
90
90
90
90
90
90
90
90
90
90
90
ENDCHAR
STARTCHAR 2018
ENCODING 8216
SWIDTH 1000 0
DWIDTH 16 0
BBX 2 4 11 10
BITMAP
40
80
C0
C0
ENDCHAR
STARTCHAR 2019
ENCODING 8217
SWIDTH 1000 0
DWIDTH 16 0
BBX 2 5 3 9
BITMAP
C0
C0
C0
40
80
ENDCHAR
STARTCHAR 201A
ENCODING 8218
SWIDTH 500 0
DWIDTH 8 0
BBX 2 4 1 -1
BITMAP
C0
C0
40
40
ENDCHAR
STARTCHAR 201C
ENCODING 8220
SWIDTH 1000 0
DWIDTH 16 0
BBX 4 4 10 10
BITMAP
90
90
F0
F0
ENDCHAR
STARTCHAR 201D
ENCODING 8221
SWIDTH 1000 0
DWIDTH 16 0
BBX 4 4 2 9
BITMAP
F0
F0
90
90
ENDCHAR
STARTCHAR 201E
ENCODING 8222
SWIDTH 500 0
DWIDTH 8 0
BBX 6 4 1 -1
BITMAP
88
DC
44
88
ENDCHAR
STARTCHAR 2020
ENCODING 8224
SWIDTH 500 0
DWIDTH 8 0
BBX 6 13 1 -2
BITMAP
30
30
20
FC
20
30
30
20
20
20
20
20
20
ENDCHAR
STARTCHAR 2021
ENCODING 8225
SWIDTH 500 0
DWIDTH 8 0
BBX 6 14 1 -2
BITMAP
30
30
EC
FC
30
20
20
20
20
30
EC
B4
30
30
ENDCHAR
STARTCHAR 2022
ENCODING 8226
SWIDTH 500 0
DWIDTH 8 0
BBX 4 4 2 4
BITMAP
F0
F0
F0
40
ENDCHAR
STARTCHAR 2025
ENCODING 8229
SWIDTH 1000 0
DWIDTH 16 0
BBX 8 2 4 5
BITMAP
C3
C3
ENDCHAR
STARTCHAR 2026
ENCODING 8230
SWIDTH 1000 0
DWIDTH 16 0
BBX 12 2 2 5
BITMAP
C630
C630
ENDCHAR
STARTCHAR 2030
ENCODING 8240
SWIDTH 1000 0
DWIDTH 16 0
BBX 14 13 1 -1
BITMAP
E100
9200
9200
9400
9400
E800
0908
1FBC
14A4
34A4
24A4
24A4
4318
ENDCHAR
STARTCHAR 2032
ENCODING 8242
SWIDTH 1000 0
DWIDTH 16 0
BBX 3 4 2 9
BITMAP
60
C0
80
80
ENDCHAR
STARTCHAR 2033
ENCODING 8243
SWIDTH 1000 0
DWIDTH 16 0
BBX 6 4 2 9
BITMAP
6C
D8
90
90
ENDCHAR
STARTCHAR 2035
ENCODING 8245
SWIDTH 1000 0
DWIDTH 16 0
BBX 2 5 7 8
BITMAP
80
80
80
80
40
ENDCHAR
STARTCHAR 2039
ENCODING 8249
SWIDTH 500 0
DWIDTH 8 0
BBX 3 6 1 2
BITMAP
20
40
C0
C0
40
20
ENDCHAR
STARTCHAR 203A
ENCODING 8250
SWIDTH 500 0
DWIDTH 8 0
BBX 3 7 1 2
BITMAP
80
40
60
20
40
40
80
ENDCHAR
STARTCHAR 203B
ENCODING 8251
SWIDTH 1000 0
DWIDTH 16 0
BBX 12 13 2 -1
BITMAP
8610
C630
6060
30C0
1980
CF30
C630
CF30
1980
30C0
6660
C630
8610
ENDCHAR
STARTCHAR 20AC
ENCODING 8364
SWIDTH 500 0
DWIDTH 8 0
BBX 8 13 0 -1
BITMAP
1E
33
21
40
40
FE
40
FE
40
60
21
36
0C
ENDCHAR
STARTCHAR 2103
ENCODING 8451
SWIDTH 1000 0
DWIDTH 16 0
BBX 14 12 1 0
BITMAP
F0FC
9380
9300
E600
0400
0400
0400
0400
0600
0600
0384
00FC
ENDCHAR
STARTCHAR 2105
ENCODING 8453
SWIDTH 1000 0
DWIDTH 16 0
BBX 12 12 2 0
BITMAP
3820
4040
40C0
C180
4B00
7200
04E0
0910
1310
3210
6320
C1E0
ENDCHAR
STARTCHAR 2109
ENCODING 8457
SWIDTH 1000 0
DWIDTH 16 0
BBX 12 12 2 0
BITMAP
E7F0
9600
9600
E600
0600
07E0
07E0
0600
0600
0600
0600
0600
ENDCHAR
STARTCHAR 2116
ENCODING 8470
SWIDTH 1000 0
DWIDTH 16 0
BBX 12 11 2 1
BITMAP
8400
C400
C400
C400
A4F0
A510
A510
9510
9590
9CE0
8DF0
ENDCHAR
STARTCHAR 2121
ENCODING 8481
SWIDTH 1000 0
DWIDTH 16 0
BBX 16 12 0 0
BITMAP
FE00
1800
1800
1BC8
1BC8
1B08
1B08
1BC8
1B08
1B08
1B08
1BCF
ENDCHAR
STARTCHAR 2122
ENCODING 8482
SWIDTH 500 0
DWIDTH 8 0
BBX 8 5 0 7
BITMAP
E9
5B
55
51
41
ENDCHAR
STARTCHAR 2160
ENCODING 8544
SWIDTH 1000 0
DWIDTH 16 0
BBX 6 12 5 0
BITMAP
FC
30
30
30
30
30
30
30
30
30
30
FC
ENDCHAR
STARTCHAR 2161
ENCODING 8545
SWIDTH 1000 0
DWIDTH 16 0
BBX 12 12 2 0
BITMAP
FFF0
30C0
30C0
30C0
30C0
30C0
30C0
30C0
30C0
30C0
30C0
FFF0
ENDCHAR
STARTCHAR 2162
ENCODING 8546
SWIDTH 1000 0
DWIDTH 16 0
BBX 14 12 1 0
BITMAP
FFFC
2310
2310
2310
2310
2310
2310
2310
2310
2310
2310
FFFC
ENDCHAR
STARTCHAR 2163
ENCODING 8547
SWIDTH 1000 0
DWIDTH 16 0
BBX 14 12 1 0
BITMAP
EC04
440C
460C
4208
4218
4310
4110
4130
41A0
40A0
40E0
E0C0
ENDCHAR
STARTCHAR 2164
ENCODING 8548
SWIDTH 1000 0
DWIDTH 16 0
BBX 10 12 3 0
BITMAP
8040
C0C0
4080
6180
6180
2100
3300
3300
1200
1E00
0C00
0C00
ENDCHAR
STARTCHAR 2165
ENCODING 8549
SWIDTH 1000 0
DWIDTH 16 0
BBX 14 12 1 0
BITMAP
80DC
C088
C188
4108
6108
6308
2208
3208
1608
1408
1C08
0C1C
ENDCHAR
STARTCHAR 2166
ENCODING 8550
SWIDTH 1000 0
DWIDTH 16 0
BBX 14 12 1 0
BITMAP
87FC
86C8
C6C8
C4C8
44C8
4CC8
6CC8
68C8
28C8
28C8
38C8
31FC
ENDCHAR
STARTCHAR 2167
ENCODING 8551
SWIDTH 1000 0
DWIDTH 16 0
BBX 15 12 0 0
BITMAP
C7FE
4696
4496
4496
6496
6C96
2C96
2896
2896
2896
3896
11FE
ENDCHAR
STARTCHAR 2168
ENCODING 8552
SWIDTH 1000 0
DWIDTH 16 0
BBX 14 12 1 0
BITMAP
F60C
4218
4310
41B0
41A0
40E0
40E0
41A0
4130
4318
4618
F60C
ENDCHAR
STARTCHAR 2169
ENCODING 8553
SWIDTH 1000 0
DWIDTH 16 0
BBX 10 12 3 0
BITMAP
60C0
6180
3100
1300
1E00
0C00
0C00
1E00
3300
2100
6180
C0C0
ENDCHAR
STARTCHAR 216A
ENCODING 8554
SWIDTH 1000 0
DWIDTH 16 0
BBX 14 12 1 0
BITMAP
C1BC
6118
2318
3618
1418
1C18
1C18
1618
3218
6318
4118
C1BC
ENDCHAR
STARTCHAR 216B
ENCODING 8555
SWIDTH 1000 0
DWIDTH 16 0
BBX 14 12 1 0
BITMAP
87FC
C4C8
4CC8
68C8
28C8
30C8
30C8
28C8
68C8
4CC8
C4C8
87FC
ENDCHAR
STARTCHAR 2170
ENCODING 8560
SWIDTH 1000 0
DWIDTH 16 0
BBX 2 12 7 0
BITMAP
C0
00
00
C0
C0
C0
C0
C0
C0
C0
C0
C0
ENDCHAR
STARTCHAR 2171
ENCODING 8561
SWIDTH 1000 0
DWIDTH 16 0
BBX 8 12 4 0
BITMAP
C3
00
00
C3
C3
C3
C3
C3
C3
C3
C3
C3
ENDCHAR
STARTCHAR 2172
ENCODING 8562
SWIDTH 1000 0
DWIDTH 16 0
BBX 12 12 2 0
BITMAP
C630
0000
0000
4620
4620
4620
4620
4620
4620
4620
4620
4620
ENDCHAR
STARTCHAR 2173
ENCODING 8563
SWIDTH 1000 0
DWIDTH 16 0
BBX 12 12 2 0
BITMAP
C000
0000
0000
5810
4830
4C20
4460
4640
4240
42C0
4380
4180
ENDCHAR
STARTCHAR 2174
ENCODING 8564
SWIDTH 1000 0
DWIDTH 16 0
BBX 8 9 4 0
BITMAP
81
C3
C3
42
66
24
3C
18
18
ENDCHAR
STARTCHAR 2175
ENCODING 8565
SWIDTH 1000 0
DWIDTH 16 0
BBX 12 12 2 0
BITMAP
0030
0000
0000
81A0
C120
4320
6220
6620
2420
3420
1C20
1820
ENDCHAR
STARTCHAR 2176
ENCODING 8566
SWIDTH 1000 0
DWIDTH 16 0
BBX 14 12 1 0
BITMAP
018C
0000
0000
8688
C488
CC88
4C88
4888
6888
7888
3088
3088
ENDCHAR
STARTCHAR 2177
ENCODING 8567
SWIDTH 1000 0
DWIDTH 16 0
BBX 15 12 0 0
BITMAP
01B6
0000
0000
C7B6
45B6
45B6
6DB6
6DB6
29B6
29B6
29B6
11B6
ENDCHAR
STARTCHAR 2178
ENCODING 8568
SWIDTH 1000 0
DWIDTH 16 0
BBX 12 12 2 0
BITMAP
C000
0000
0000
4C30
4420
4660
43C0
4180
43C0
4240
4660
4C30
ENDCHAR
STARTCHAR 2179
ENCODING 8569
SWIDTH 1000 0
DWIDTH 16 0
BBX 8 9 4 0
BITMAP
C3
42
66
3C
18
3C
24
66
C3
ENDCHAR
STARTCHAR 2190
ENCODING 8592
SWIDTH 1000 0
DWIDTH 16 0
BBX 14 5 1 4
BITMAP
2000
4000
FFFC
4000
2000
ENDCHAR
STARTCHAR 2191
ENCODING 8593
SWIDTH 1000 0
DWIDTH 16 0
BBX 6 14 5 -1
BITMAP
20
30
78
B4
30
30
30
30
30
30
30
30
30
30
ENDCHAR
STARTCHAR 2192
ENCODING 8594
SWIDTH 1000 0
DWIDTH 16 0
BBX 14 5 1 4
BITMAP
0010
0008
FFFC
0008
0010
ENDCHAR
STARTCHAR 2193
ENCODING 8595
SWIDTH 1000 0
DWIDTH 16 0
BBX 6 13 5 -1
BITMAP
30
30
30
30
30
30
30
30
30
30
B4
78
30
ENDCHAR
STARTCHAR 2196
ENCODING 8598
SWIDTH 1000 0
DWIDTH 16 0
BBX 10 10 3 0
BITMAP
C800
7800
6000
5000
4800
0400
0200
0100
0080
0040
ENDCHAR
STARTCHAR 2197
ENCODING 8599
SWIDTH 1000 0
DWIDTH 16 0
BBX 10 10 3 0
BITMAP
04C0
0780
0180
0280
0480
0800
1000
2000
4000
8000
ENDCHAR
STARTCHAR 2198
ENCODING 8600
SWIDTH 1000 0
DWIDTH 16 0
BBX 10 10 3 0
BITMAP
8000
4000
2000
1000
0800
0480
0280
0180
0780
0040
ENDCHAR
STARTCHAR 2199
ENCODING 8601
SWIDTH 1000 0
DWIDTH 16 0
BBX 10 10 3 0
BITMAP
0040
0080
0100
0200
0400
4800
5000
6000
7800
8000
ENDCHAR
STARTCHAR 2206
ENCODING 8710
SWIDTH 500 0
DWIDTH 8 0
BBX 8 12 0 0
BITMAP
18
18
18
3C
24
24
24
66
7E
42
42
C3
ENDCHAR
STARTCHAR 2208
ENCODING 8712
SWIDTH 1000 0
DWIDTH 16 0
BBX 12 10 2 0
BITMAP
1FF0
6000
4000
8000
FFF0
8000
8000
4000
6000
1FF0
ENDCHAR
STARTCHAR 220F
ENCODING 8719
SWIDTH 1000 0
DWIDTH 16 0
BBX 12 12 2 0
BITMAP
FFF0
2040
2040
2040
2040
2040
2040
2040
2040
2040
2040
2040
ENDCHAR
STARTCHAR 2211
ENCODING 8721
SWIDTH 1000 0
DWIDTH 16 0
BBX 10 12 2 0
BITMAP
FFC0
4000
2000
3000
1000
0800
0C00
0C00
1800
1000
2000
7FC0
ENDCHAR
STARTCHAR 2215
ENCODING 8725
SWIDTH 1000 0
DWIDTH 16 0
BBX 7 14 4 -1
BITMAP
02
02
04
04
08
08
10
10
20
20
20
40
40
80
ENDCHAR
STARTCHAR 221A
ENCODING 8730
SWIDTH 1000 0
DWIDTH 16 0
BBX 8 11 5 1
BITMAP
01
02
02
02
04
04
C4
68
28
18
10
ENDCHAR
STARTCHAR 221D
ENCODING 8733
SWIDTH 1000 0
DWIDTH 16 0
BBX 12 6 2 3
BITMAP
3030
CDC0
8700
8200
CD90
38F0
ENDCHAR
STARTCHAR 221E
ENCODING 8734
SWIDTH 1000 0
DWIDTH 16 0
BBX 14 6 1 3
BITMAP
3020
4CD8
8304
8304
4588
3870
ENDCHAR
STARTCHAR 221F
ENCODING 8735
SWIDTH 1000 0
DWIDTH 16 0
BBX 14 14 1 0
BITMAP
8000
8000
8000
8000
8000
8000
8000
8000
8000
8000
8000
8000
8000
FFFC
ENDCHAR
STARTCHAR 2220
ENCODING 8736
SWIDTH 1000 0
DWIDTH 16 0
BBX 10 9 3 2
BITMAP
0040
0080
0100
0200
0400
0800
1000
6000
FFC0
ENDCHAR
STARTCHAR 2223
ENCODING 8739
SWIDTH 1000 0
DWIDTH 16 0
BBX 1 14 7 -1
BITMAP
80
80
80
80
80
80
80
80
80
80
80
80
80
80
ENDCHAR
STARTCHAR 2225
ENCODING 8741
SWIDTH 1000 0
DWIDTH 16 0
BBX 11 11 2 0
BITMAP
0220
0420
0440
0840
0880
1080
1100
2100
2200
4200
C400
ENDCHAR
STARTCHAR 2227
ENCODING 8743
SWIDTH 1000 0
DWIDTH 16 0
BBX 12 13 2 -1
BITMAP
0400
0600
0600
0900
0900
1080
1080
2040
2040
2040
4020
4020
8010
ENDCHAR
STARTCHAR 2228
ENCODING 8744
SWIDTH 1000 0
DWIDTH 16 0
BBX 12 12 2 -1
BITMAP
8010
8030
4020
4020
2040
2040
1080
1080
0900
0900
0600
0600
ENDCHAR
STARTCHAR 2229
ENCODING 8745
SWIDTH 1000 0
DWIDTH 16 0
BBX 9 11 3 1
BITMAP
0C00
3300
4080
8080
8080
8080
8080
8080
8080
8080
8080
ENDCHAR
STARTCHAR 222A
ENCODING 8746
SWIDTH 1000 0
DWIDTH 16 0
BBX 10 11 3 0
BITMAP
8080
8080
8080
8080
8080
8080
8080
80C0
4080
6180
1E00
ENDCHAR
STARTCHAR 222B
ENCODING 8747
SWIDTH 1000 0
DWIDTH 16 0
BBX 6 14 5 -1
BITMAP
08
14
24
20
20
20
20
20
20
20
20
A0
A0
E0
ENDCHAR
STARTCHAR 222E
ENCODING 8750
SWIDTH 1000 0
DWIDTH 16 0
BBX 6 14 5 -1
BITMAP
08
14
24
20
20
78
A4
A4
E4
78
20
20
A0
E0
ENDCHAR
STARTCHAR 2234
ENCODING 8756
SWIDTH 1000 0
DWIDTH 16 0
BBX 10 9 3 1
BITMAP
0C00
0C00
0000
0000
0000
0000
0000
C0C0
C0C0
ENDCHAR
STARTCHAR 2235
ENCODING 8757
SWIDTH 1000 0
DWIDTH 16 0
BBX 10 9 3 1
BITMAP
C0C0
C0C0
0000
0000
0000
0000
0000
0C00
0C00
ENDCHAR
STARTCHAR 2236
ENCODING 8758
SWIDTH 1000 0
DWIDTH 16 0
BBX 2 8 7 2
BITMAP
C0
C0
00
00
00
00
C0
C0
ENDCHAR
STARTCHAR 2237
ENCODING 8759
SWIDTH 1000 0
DWIDTH 16 0
BBX 10 10 3 1
BITMAP
C0C0
C0C0
0000
0000
0000
0000
0000
0000
C0C0
C0C0
ENDCHAR
STARTCHAR 223D
ENCODING 8765
SWIDTH 1000 0
DWIDTH 16 0
BBX 12 6 2 3
BITMAP
0040
C1B0
8210
8410
D830
2040
ENDCHAR
STARTCHAR 2248
ENCODING 8776
SWIDTH 1000 0
DWIDTH 16 0
BBX 12 7 2 2
BITMAP
7800
8610
01E0
3000
CC10
8330
00C0
ENDCHAR
STARTCHAR 224C
ENCODING 8780
SWIDTH 1000 0
DWIDTH 16 0
BBX 12 9 2 1
BITMAP
61E0
8210
8610
8C10
7060
0000
FFF0
0000
FFF0
ENDCHAR
STARTCHAR 2252
ENCODING 8786
SWIDTH 1000 0
DWIDTH 16 0
BBX 10 9 3 2
BITMAP
C000
C000
0000
FFC0
0000
0000
FFC0
0000
00C0
ENDCHAR
STARTCHAR 2260
ENCODING 8800
SWIDTH 1000 0
DWIDTH 16 0
BBX 11 10 2 1
BITMAP
0100
0300
0200
FFE0
0200
0400
FFE0
0400
0800
0800
ENDCHAR
STARTCHAR 2261
ENCODING 8801
SWIDTH 1000 0
DWIDTH 16 0
BBX 11 8 2 2
BITMAP
FFE0
0000
0000
0000
FFE0
0000
0000
FFE0
ENDCHAR
STARTCHAR 2264
ENCODING 8804
SWIDTH 1000 0
DWIDTH 16 0
BBX 12 12 2 0
BITMAP
0010
00E0
0700
3800
C000
3800
0700
80E0
7010
0E00
01C0
0030
ENDCHAR
STARTCHAR 2265
ENCODING 8805
SWIDTH 1000 0
DWIDTH 16 0
BBX 12 12 2 0
BITMAP
8000
7000
0E00
01C0
0030
01C0
0E00
7010
00E0
0700
3800
4000
ENDCHAR
STARTCHAR 2266
ENCODING 8806
SWIDTH 1000 0
DWIDTH 16 0
BBX 10 11 3 1
BITMAP
00C0
0700
3800
E000
1C00
0380
0040
0000
FFC0
0000
FFC0
ENDCHAR
STARTCHAR 2267
ENCODING 8807
SWIDTH 1000 0
DWIDTH 16 0
BBX 10 11 3 1
BITMAP
8000
7800
0700
01C0
0E00
7000
8000
0000
FFC0
0000
FFC0
ENDCHAR
STARTCHAR 226E
ENCODING 8814
SWIDTH 1000 0
DWIDTH 16 0
BBX 12 12 2 0
BITMAP
0400
0400
0430
05C0
0E00
7400
E400
1C00
0780
0470
0400
0400
ENDCHAR
STARTCHAR 226F
ENCODING 8815
SWIDTH 1000 0
DWIDTH 16 0
BBX 12 12 2 0
BITMAP
0200
0200
C200
3A00
0700
02E0
0270
0380
1E00
E200
0200
0200
ENDCHAR
STARTCHAR 2295
ENCODING 8853
SWIDTH 1000 0
DWIDTH 16 0
BBX 12 11 2 1
BITMAP
1F80
6440
4420
8410
8410
FFF0
8410
8420
4420
2440
1F80
ENDCHAR
STARTCHAR 2299
ENCODING 8857
SWIDTH 1000 0
DWIDTH 16 0
BBX 12 13 2 -1
BITMAP
0F00
30C0
4020
8020
8010
8610
8610
8010
8010
4020
4040
3080
0F00
ENDCHAR
STARTCHAR 22A5
ENCODING 8869
SWIDTH 1000 0
DWIDTH 16 0
BBX 10 10 3 1
BITMAP
0800
0800
0800
0800
0800
0800
0800
0800
0800
FFC0
ENDCHAR
STARTCHAR 22BF
ENCODING 8895
SWIDTH 1000 0
DWIDTH 16 0
BBX 10 9 3 2
BITMAP
0040
00C0
0140
0240
0440
0840
1040
6040
FFC0
ENDCHAR
STARTCHAR 2312
ENCODING 8978
SWIDTH 1000 0
DWIDTH 16 0
BBX 12 5 2 6
BITMAP
0F00
30C0
4020
8010
8010
ENDCHAR
STARTCHAR 2460
ENCODING 9312
SWIDTH 1000 0
DWIDTH 16 0
BBX 14 15 1 -2
BITMAP
0300
1CE0
2010
4308
8504
8104
8104
8104
8104
8104
8104
47C8
6018
3030
0FC0
ENDCHAR
STARTCHAR 2461
ENCODING 9313
SWIDTH 1000 0
DWIDTH 16 0
BBX 14 15 1 -2
BITMAP
0300
1CE0
2010
4788
88C4
80C4
8084
8184
8304
8604
8C04
4FC8
6018
3030
0FC0
ENDCHAR
STARTCHAR 2462
ENCODING 9314
SWIDTH 1000 0
DWIDTH 16 0
BBX 14 15 1 -2
BITMAP
0300
1CE0
2010
4788
8084
8084
8184
8784
80C4
80C4
8884
4F88
6018
3030
0FC0
ENDCHAR
STARTCHAR 2463
ENCODING 9315
SWIDTH 1000 0
DWIDTH 16 0
BBX 14 15 1 -2
BITMAP
0300
1CE0
2010
4188
8384
8384
8584
8984
9FC4
9FC4
8184
4188
6018
3030
0FC0
ENDCHAR
STARTCHAR 2464
ENCODING 9316
SWIDTH 1000 0
DWIDTH 16 0
BBX 14 15 1 -2
BITMAP
0300
1CE0
2010
4788
8404
8404
8704
8784
80C4
80C4
8884
4F88
6018
3030
0FC0
ENDCHAR
STARTCHAR 2465
ENCODING 9317
SWIDTH 1000 0
DWIDTH 16 0
BBX 14 15 1 -2
BITMAP
0300
1CE0
2010
4388
8404
8C04
8B84
8CC4
8844
8844
8CC4
4788
6018
3030
0FC0
ENDCHAR
STARTCHAR 2466
ENCODING 9318
SWIDTH 1000 0
DWIDTH 16 0
BBX 14 15 1 -2
BITMAP
0300
1CE0
2010
4FC8
8084
8084
8184
8104
8104
8204
8204
4608
6018
3030
0FC0
ENDCHAR
STARTCHAR 2467
ENCODING 9319
SWIDTH 1000 0
DWIDTH 16 0
BBX 14 15 1 -2
BITMAP
0300
1CE0
2010
4788
8CC4
8CC4
8684
8784
8CC4
8844
8CC4
4788
6018
3030
0FC0
ENDCHAR
STARTCHAR 2468
ENCODING 9320
SWIDTH 1000 0
DWIDTH 16 0
BBX 14 15 1 -2
BITMAP
0300
1CE0
2010
4788
8CC4
8844
8C44
84C4
8344
80C4
8084
4708
6018
3030
0FC0
ENDCHAR
STARTCHAR 2469
ENCODING 9321
SWIDTH 1000 0
DWIDTH 16 0
BBX 14 15 1 -2
BITMAP
0300
1CE0
2010
48E8
9924
8934
8934
8B34
8934
8934
8924
5CE8
6018
3030
0FC0
ENDCHAR
STARTCHAR 2474
ENCODING 9332
SWIDTH 1000 0
DWIDTH 16 0
BBX 14 15 1 -2
BITMAP
2010
6018
4008
C30C
8504
8104
8104
8104
8104
8104
8104
87C4
4008
4008
2010
ENDCHAR
STARTCHAR 2475
ENCODING 9333
SWIDTH 1000 0
DWIDTH 16 0
BBX 14 15 1 -2
BITMAP
2010
6018
4008
C78C
88C4
80C4
8084
8184
8304
8604
8C04
8FC4
4008
4008
2010
ENDCHAR
STARTCHAR 2476
ENCODING 9334
SWIDTH 1000 0
DWIDTH 16 0
BBX 14 15 1 -2
BITMAP
2010
6018
4008
CF0C
8884
8084
8184
8704
8084
8084
8084
8F04
4008
4008
2010
ENDCHAR
STARTCHAR 2477
ENCODING 9335
SWIDTH 1000 0
DWIDTH 16 0
BBX 14 15 1 -2
BITMAP
2010
6018
4008
C18C
8384
8284
8484
8C84
8FC4
9FC4
8084
8084
4008
4008
2010
ENDCHAR
STARTCHAR 2478
ENCODING 9336
SWIDTH 1000 0
DWIDTH 16 0
BBX 14 15 1 -2
BITMAP
2010
6018
4008
C78C
8404
8404
8704
8784
80C4
80C4
8884
8F84
4008
4008
2010
ENDCHAR
STARTCHAR 2479
ENCODING 9337
SWIDTH 1000 0
DWIDTH 16 0
BBX 14 15 1 -2
BITMAP
2010
6018
4008
C38C
8404
8C04
8B84
8CC4
8844
8844
8CC4
8784
4008
4008
2010
ENDCHAR
STARTCHAR 247A
ENCODING 9338
SWIDTH 1000 0
DWIDTH 16 0
BBX 14 15 1 -2
BITMAP
2010
6018
4008
CFCC
8084
8084
8184
8104
8104
8204
8204
8604
4008
4008
2010
ENDCHAR
STARTCHAR 247B
ENCODING 9339
SWIDTH 1000 0
DWIDTH 16 0
BBX 14 15 1 -2
BITMAP
2010
6018
4008
C78C
8CC4
8CC4
8684
8784
8CC4
8844
8CC4
8784
4008
4008
2010
ENDCHAR
STARTCHAR 247C
ENCODING 9340
SWIDTH 1000 0
DWIDTH 16 0
BBX 14 15 1 -2
BITMAP
2010
6018
4008
C78C
8CC4
8844
8C44
84C4
8344
80C4
8084
8704
4008
4008
2010
ENDCHAR
STARTCHAR 247D
ENCODING 9341
SWIDTH 1000 0
DWIDTH 16 0
BBX 14 15 1 -2
BITMAP
2010
6018
4008
C8EC
9924
8934
8914
8914
8914
8934
8924
9CE4
4008
4008
2010
ENDCHAR
STARTCHAR 247E
ENCODING 9342
SWIDTH 1000 0
DWIDTH 16 0
BBX 14 15 1 -2
BITMAP
2010
6018
4008
C84C
98C4
8844
8844
8844
8844
8844
8844
9CE4
4008
4008
2010
ENDCHAR
STARTCHAR 247F
ENCODING 9343
SWIDTH 1000 0
DWIDTH 16 0
BBX 14 15 1 -2
BITMAP
2010
6018
4008
D9EC
B924
8834
8824
8864
8844
8884
8904
BDE4
4008
4008
2010
ENDCHAR
STARTCHAR 2480
ENCODING 9344
SWIDTH 1000 0
DWIDTH 16 0
BBX 14 15 1 -2
BITMAP
2010
6018
4008
D9EC
B824
8824
8824
88C4
8824
8834
8824
BDE4
4008
4008
2010
ENDCHAR
STARTCHAR 2481
ENCODING 9345
SWIDTH 1000 0
DWIDTH 16 0
BBX 14 15 1 -2
BITMAP
2010
6018
4008
D84C
B8C4
88C4
8944
8944
8A44
8BE4
8844
BC44
4008
4008
2010
ENDCHAR
STARTCHAR 2482
ENCODING 9346
SWIDTH 1000 0
DWIDTH 16 0
BBX 14 15 1 -2
BITMAP
2010
6018
4008
D9EC
B904
8904
8984
88E4
8824
8824
8864
BFC4
4008
4008
2010
ENDCHAR
STARTCHAR 2483
ENCODING 9347
SWIDTH 1000 0
DWIDTH 16 0
BBX 14 15 1 -2
BITMAP
2010
6018
4008
D8EC
B904
8904
8BC4
8B64
8B24
8B24
8924
BDC4
4008
4008
2010
ENDCHAR
STARTCHAR 2484
ENCODING 9348
SWIDTH 1000 0
DWIDTH 16 0
BBX 14 15 1 -2
BITMAP
2010
6018
4008
DBFC
B824
8824
8864
8844
8844
8884
8884
BD84
4008
4008
2010
ENDCHAR
STARTCHAR 2485
ENCODING 9349
SWIDTH 1000 0
DWIDTH 16 0
BBX 14 15 1 -2
BITMAP
2010
6018
4008
D8EC
B934
8934
89A4
88E4
8934
8914
8934
BDE4
4008
4008
2010
ENDCHAR
STARTCHAR 2486
ENCODING 9350
SWIDTH 1000 0
DWIDTH 16 0
BBX 14 15 1 -2
BITMAP
2010
6018
4008
D8EC
B924
8914
8914
89B4
88D4
8834
8824
BDC4
4008
4008
2010
ENDCHAR
STARTCHAR 2487
ENCODING 9351
SWIDTH 1000 0
DWIDTH 16 0
BBX 14 15 1 -2
BITMAP
2010
6018
4008
FCEC
A694
8794
8514
8514
8914
9194
A094
BEE4
4008
4008
2010
ENDCHAR
STARTCHAR 2488
ENCODING 9352
SWIDTH 1000 0
DWIDTH 16 0
BBX 12 12 2 0
BITMAP
3800
F800
1800
1800
1800
1800
1800
1800
1800
1800
1820
FF30
ENDCHAR
STARTCHAR 2489
ENCODING 9353
SWIDTH 1000 0
DWIDTH 16 0
BBX 12 12 2 0
BITMAP
7C00
8600
0200
0200
0200
0600
0C00
1800
3000
6000
C020
FE30
ENDCHAR
STARTCHAR 248A
ENCODING 9354
SWIDTH 1000 0
DWIDTH 16 0
BBX 11 12 3 0
BITMAP
FC00
8C00
0600
0600
0C00
7800
1C00
0600
0200
0600
8E40
F860
ENDCHAR
STARTCHAR 248B
ENCODING 9355
SWIDTH 1000 0
DWIDTH 16 0
BBX 13 12 1 0
BITMAP
0300
0700
0B00
1B00
1300
2300
6300
4300
FFC0
0300
0310
0318
ENDCHAR
STARTCHAR 248C
ENCODING 9356
SWIDTH 1000 0
DWIDTH 16 0
BBX 11 12 3 0
BITMAP
FE00
C000
C000
C000
F000
FC00
0600
0600
0200
0600
8C40
F860
ENDCHAR
STARTCHAR 248D
ENCODING 9357
SWIDTH 1000 0
DWIDTH 16 0
BBX 12 12 2 0
BITMAP
1E00
3000
6000
4000
CC00
FE00
C300
C100
C100
C300
6320
3E30
ENDCHAR
STARTCHAR 248E
ENCODING 9358
SWIDTH 1000 0
DWIDTH 16 0
BBX 11 12 3 0
BITMAP
FF00
0300
0200
0600
0600
0400
0C00
0800
1800
1000
3040
3060
ENDCHAR
STARTCHAR 248F
ENCODING 9359
SWIDTH 1000 0
DWIDTH 16 0
BBX 11 12 3 0
BITMAP
7E00
C600
C300
C200
6600
3800
6E00
C300
8300
8300
C620
7C20
ENDCHAR
STARTCHAR 2490
ENCODING 9360
SWIDTH 1000 0
DWIDTH 16 0
BBX 12 12 2 0
BITMAP
3E00
6300
C100
C100
C100
6300
7F00
0900
0100
0300
0620
7C30
ENDCHAR
STARTCHAR 2491
ENCODING 9361
SWIDTH 1000 0
DWIDTH 16 0
BBX 15 12 1 0
BITMAP
61F0
E110
2318
2208
2208
2208
2208
2208
2208
2318
2114
FDE6
ENDCHAR
STARTCHAR 2492
ENCODING 9362
SWIDTH 1000 0
DWIDTH 16 0
BBX 16 12 0 0
BITMAP
70E0
F1E0
1060
1060
1060
1060
1060
1060
1060
1060
1062
FDFB
ENDCHAR
STARTCHAR 2493
ENCODING 9363
SWIDTH 1000 0
DWIDTH 16 0
BBX 16 12 0 0
BITMAP
70F0
F118
1008
1008
1008
1018
1030
1020
1040
1080
1182
FDFB
ENDCHAR
STARTCHAR 2494
ENCODING 9364
SWIDTH 1000 0
DWIDTH 16 0
BBX 16 12 0 0
BITMAP
30F8
F008
1008
1008
1018
1070
1018
100C
100C
100C
110A
FFF3
ENDCHAR
STARTCHAR 2495
ENCODING 9365
SWIDTH 1000 0
DWIDTH 16 0
BBX 16 12 0 0
BITMAP
3010
F030
1070
1050
1090
1090
1110
1310
13FC
1010
1012
FE13
ENDCHAR
STARTCHAR 2496
ENCODING 9366
SWIDTH 1000 0
DWIDTH 16 0
BBX 16 12 0 0
BITMAP
30F8
F080
1080
1080
1080
10F8
1008
100C
100C
100C
101A
7EF3
ENDCHAR
STARTCHAR 2497
ENCODING 9367
SWIDTH 1000 0
DWIDTH 16 0
BBX 16 12 0 0
BITMAP
3078
F0C0
1180
1100
1120
11F8
1188
110C
110C
110C
119A
FEF3
ENDCHAR
STARTCHAR 2498
ENCODING 9368
SWIDTH 1000 0
DWIDTH 16 0
BBX 15 12 1 0
BITMAP
71FC
F008
1008
1018
1010
1010
1020
1020
1060
1040
1044
FEC6
ENDCHAR
STARTCHAR 2499
ENCODING 9369
SWIDTH 1000 0
DWIDTH 16 0
BBX 16 12 0 0
BITMAP
30F0
F188
1108
1188
1098
1060
10F8
1108
110C
110C
118A
FEF3
ENDCHAR
STARTCHAR 249A
ENCODING 9370
SWIDTH 1000 0
DWIDTH 16 0
BBX 16 12 0 0
BITMAP
3078
F08C
1184
1184
1184
108C
10FC
1024
1004
100C
101A
7EF3
ENDCHAR
STARTCHAR 249B
ENCODING 9371
SWIDTH 1000 0
DWIDTH 16 0
BBX 16 12 0 0
BITMAP
7C78
46CC
0684
0684
0684
0584
0984
1884
3084
6084
40CA
FE7B
ENDCHAR
STARTCHAR 2500
ENCODING 9472
SWIDTH 1000 0
DWIDTH 16 0
BBX 16 1 0 5
BITMAP
FFFF
ENDCHAR
STARTCHAR 2501
ENCODING 9473
SWIDTH 1000 0
DWIDTH 16 0
BBX 16 2 0 5
BITMAP
FFFF
FFFF
ENDCHAR
STARTCHAR 2502
ENCODING 9474
SWIDTH 1000 0
DWIDTH 16 0
BBX 2 16 7 -2
BITMAP
C0
C0
C0
C0
C0
C0
C0
C0
C0
C0
C0
C0
C0
C0
C0
C0
ENDCHAR
STARTCHAR 2503
ENCODING 9475
SWIDTH 1000 0
DWIDTH 16 0
BBX 2 16 7 -2
BITMAP
C0
C0
C0
C0
C0
C0
C0
C0
C0
C0
C0
C0
C0
C0
C0
C0
ENDCHAR
STARTCHAR 2504
ENCODING 9476
SWIDTH 1000 0
DWIDTH 16 0
BBX 16 1 0 5
BITMAP
F3CF
ENDCHAR
STARTCHAR 2505
ENCODING 9477
SWIDTH 1000 0
DWIDTH 16 0
BBX 16 2 0 5
BITMAP
F3CF
F3CF
ENDCHAR
STARTCHAR 2506
ENCODING 9478
SWIDTH 1000 0
DWIDTH 16 0
BBX 2 16 7 -2
BITMAP
C0
C0
C0
C0
00
00
C0
C0
C0
C0
00
00
C0
C0
C0
C0
ENDCHAR
STARTCHAR 2507
ENCODING 9479
SWIDTH 1000 0
DWIDTH 16 0
BBX 2 16 7 -2
BITMAP
C0
C0
C0
C0
00
00
C0
C0
C0
C0
00
00
C0
C0
C0
C0
ENDCHAR
STARTCHAR 2508
ENCODING 9480
SWIDTH 1000 0
DWIDTH 16 0
BBX 16 1 0 5
BITMAP
EFF7
ENDCHAR
STARTCHAR 2509
ENCODING 9481
SWIDTH 1000 0
DWIDTH 16 0
BBX 16 2 0 5
BITMAP
EFF7
EFF7
ENDCHAR
STARTCHAR 250A
ENCODING 9482
SWIDTH 1000 0
DWIDTH 16 0
BBX 2 16 7 -2
BITMAP
C0
C0
C0
C0
00
C0
C0
C0
00
C0
C0
C0
00
C0
C0
C0
ENDCHAR
STARTCHAR 250B
ENCODING 9483
SWIDTH 1000 0
DWIDTH 16 0
BBX 2 16 7 -2
BITMAP
C0
C0
C0
C0
00
C0
C0
C0
00
C0
C0
C0
00
C0
C0
C0
ENDCHAR
STARTCHAR 250C
ENCODING 9484
SWIDTH 1000 0
DWIDTH 16 0
BBX 9 8 7 -2
BITMAP
FF80
C000
C000
C000
C000
C000
C000
C000
ENDCHAR
STARTCHAR 250D
ENCODING 9485
SWIDTH 1000 0
DWIDTH 16 0
BBX 9 9 7 -2
BITMAP
FF80
FF80
C000
C000
C000
C000
C000
C000
C000
ENDCHAR
STARTCHAR 250E
ENCODING 9486
SWIDTH 1000 0
DWIDTH 16 0
BBX 9 8 7 -2
BITMAP
FF80
C000
C000
C000
C000
C000
C000
C000
ENDCHAR
STARTCHAR 250F
ENCODING 9487
SWIDTH 1000 0
DWIDTH 16 0
BBX 9 9 7 -2
BITMAP
FF80
FF80
C000
C000
C000
C000
C000
C000
C000
ENDCHAR
STARTCHAR 2510
ENCODING 9488
SWIDTH 1000 0
DWIDTH 16 0
BBX 9 8 0 -2
BITMAP
FF80
0180
0180
0180
0180
0180
0180
0180
ENDCHAR
STARTCHAR 2511
ENCODING 9489
SWIDTH 1000 0
DWIDTH 16 0
BBX 9 9 0 -2
BITMAP
FF80
FF80
0180
0180
0180
0180
0180
0180
0180
ENDCHAR
STARTCHAR 2512
ENCODING 9490
SWIDTH 1000 0
DWIDTH 16 0
BBX 9 8 0 -2
BITMAP
FF80
0180
0180
0180
0180
0180
0180
0180
ENDCHAR
STARTCHAR 2513
ENCODING 9491
SWIDTH 1000 0
DWIDTH 16 0
BBX 9 9 0 -2
BITMAP
FF80
FF80
0180
0180
0180
0180
0180
0180
0180
ENDCHAR
STARTCHAR 2514
ENCODING 9492
SWIDTH 1000 0
DWIDTH 16 0
BBX 9 9 7 5
BITMAP
C000
C000
C000
C000
C000
C000
C000
C000
FF80
ENDCHAR
STARTCHAR 2515
ENCODING 9493
SWIDTH 1000 0
DWIDTH 16 0
BBX 9 9 7 5
BITMAP
C000
C000
C000
C000
C000
C000
C000
FF80
FF80
ENDCHAR
STARTCHAR 2516
ENCODING 9494
SWIDTH 1000 0
DWIDTH 16 0
BBX 9 9 7 5
BITMAP
C000
C000
C000
C000
C000
C000
C000
C000
FF80
ENDCHAR
STARTCHAR 2517
ENCODING 9495
SWIDTH 1000 0
DWIDTH 16 0
BBX 9 9 7 5
BITMAP
C000
C000
C000
C000
C000
C000
C000
FF80
FF80
ENDCHAR
STARTCHAR 2518
ENCODING 9496
SWIDTH 1000 0
DWIDTH 16 0
BBX 9 9 0 5
BITMAP
0180
0180
0180
0180
0180
0180
0180
0180
FF80
ENDCHAR
STARTCHAR 2519
ENCODING 9497
SWIDTH 1000 0
DWIDTH 16 0
BBX 9 9 0 5
BITMAP
0180
0180
0180
0180
0180
0180
0180
FF80
FF80
ENDCHAR
STARTCHAR 251A
ENCODING 9498
SWIDTH 1000 0
DWIDTH 16 0
BBX 9 9 0 5
BITMAP
0180
0180
0180
0180
0180
0180
0180
0180
FF80
ENDCHAR
STARTCHAR 251B
ENCODING 9499
SWIDTH 1000 0
DWIDTH 16 0
BBX 9 9 0 5
BITMAP
0180
0180
0180
0180
0180
0180
0180
FF80
FF80
ENDCHAR
STARTCHAR 251C
ENCODING 9500
SWIDTH 1000 0
DWIDTH 16 0
BBX 9 16 7 -2
BITMAP
C000
C000
C000
C000
C000
C000
C000
C000
FF80
C000
C000
C000
C000
C000
C000
C000
ENDCHAR
STARTCHAR 251D
ENCODING 9501
SWIDTH 1000 0
DWIDTH 16 0
BBX 9 16 7 -2
BITMAP
C000
C000
C000
C000
C000
C000
C000
FF80
FF80
C000
C000
C000
C000
C000
C000
C000
ENDCHAR
STARTCHAR 251E
ENCODING 9502
SWIDTH 1000 0
DWIDTH 16 0
BBX 9 16 7 -2
BITMAP
C000
C000
C000
C000
C000
C000
C000
C000
FF80
C000
C000
C000
C000
C000
C000
C000
ENDCHAR
STARTCHAR 251F
ENCODING 9503
SWIDTH 1000 0
DWIDTH 16 0
BBX 9 16 7 -2
BITMAP
C000
C000
C000
C000
C000
C000
C000
C000
FF80
C000
C000
C000
C000
C000
C000
C000
ENDCHAR
STARTCHAR 2520
ENCODING 9504
SWIDTH 1000 0
DWIDTH 16 0
BBX 9 16 7 -2
BITMAP
C000
C000
C000
C000
C000
C000
C000
C000
FF80
C000
C000
C000
C000
C000
C000
C000
ENDCHAR
STARTCHAR 2521
ENCODING 9505
SWIDTH 1000 0
DWIDTH 16 0
BBX 9 16 7 -2
BITMAP
C000
C000
C000
C000
C000
C000
C000
FF80
FF80
C000
C000
C000
C000
C000
C000
C000
ENDCHAR
STARTCHAR 2522
ENCODING 9506
SWIDTH 1000 0
DWIDTH 16 0
BBX 9 16 7 -2
BITMAP
C000
C000
C000
C000
C000
C000
C000
FF80
FF80
C000
C000
C000
C000
C000
C000
C000
ENDCHAR
STARTCHAR 2523
ENCODING 9507
SWIDTH 1000 0
DWIDTH 16 0
BBX 9 16 7 -2
BITMAP
C000
C000
C000
C000
C000
C000
C000
FF80
FF80
C000
C000
C000
C000
C000
C000
C000
ENDCHAR
STARTCHAR 2524
ENCODING 9508
SWIDTH 1000 0
DWIDTH 16 0
BBX 9 16 0 -2
BITMAP
0180
0180
0180
0180
0180
0180
0180
0180
FF80
0180
0180
0180
0180
0180
0180
0180
ENDCHAR
STARTCHAR 2525
ENCODING 9509
SWIDTH 1000 0
DWIDTH 16 0
BBX 9 16 0 -2
BITMAP
0180
0180
0180
0180
0180
0180
0180
FF80
FF80
0180
0180
0180
0180
0180
0180
0180
ENDCHAR
STARTCHAR 2526
ENCODING 9510
SWIDTH 1000 0
DWIDTH 16 0
BBX 9 16 0 -2
BITMAP
0180
0180
0180
0180
0180
0180
0180
0180
FF80
0180
0180
0180
0180
0180
0180
0180
ENDCHAR
STARTCHAR 2527
ENCODING 9511
SWIDTH 1000 0
DWIDTH 16 0
BBX 9 16 0 -2
BITMAP
0180
0180
0180
0180
0180
0180
0180
0180
FF80
0180
0180
0180
0180
0180
0180
0180
ENDCHAR
STARTCHAR 2528
ENCODING 9512
SWIDTH 1000 0
DWIDTH 16 0
BBX 9 16 0 -2
BITMAP
0180
0180
0180
0180
0180
0180
0180
0180
FF80
0180
0180
0180
0180
0180
0180
0180
ENDCHAR
STARTCHAR 2529
ENCODING 9513
SWIDTH 1000 0
DWIDTH 16 0
BBX 9 16 0 -2
BITMAP
0180
0180
0180
0180
0180
0180
0180
FF80
FF80
0180
0180
0180
0180
0180
0180
0180
ENDCHAR
STARTCHAR 252A
ENCODING 9514
SWIDTH 1000 0
DWIDTH 16 0
BBX 9 16 0 -2
BITMAP
0180
0180
0180
0180
0180
0180
0180
FF80
FF80
0180
0180
0180
0180
0180
0180
0180
ENDCHAR
STARTCHAR 252B
ENCODING 9515
SWIDTH 1000 0
DWIDTH 16 0
BBX 9 16 0 -2
BITMAP
0180
0180
0180
0180
0180
0180
0180
FF80
FF80
0180
0180
0180
0180
0180
0180
0180
ENDCHAR
STARTCHAR 252C
ENCODING 9516
SWIDTH 1000 0
DWIDTH 16 0
BBX 16 8 0 -2
BITMAP
FFFF
0180
0180
0180
0180
0180
0180
0180
ENDCHAR
STARTCHAR 252D
ENCODING 9517
SWIDTH 1000 0
DWIDTH 16 0
BBX 16 9 0 -2
BITMAP
FF80
FFFF
0180
0180
0180
0180
0180
0180
0180
ENDCHAR
STARTCHAR 252E
ENCODING 9518
SWIDTH 1000 0
DWIDTH 16 0
BBX 16 9 0 -2
BITMAP
01FF
FFFF
0180
0180
0180
0180
0180
0180
0180
ENDCHAR
STARTCHAR 252F
ENCODING 9519
SWIDTH 1000 0
DWIDTH 16 0
BBX 16 9 0 -2
BITMAP
FFFF
FFFF
0180
0180
0180
0180
0180
0180
0180
ENDCHAR
STARTCHAR 2530
ENCODING 9520
SWIDTH 1000 0
DWIDTH 16 0
BBX 16 8 0 -2
BITMAP
FFFF
0180
0180
0180
0180
0180
0180
0180
ENDCHAR
STARTCHAR 2531
ENCODING 9521
SWIDTH 1000 0
DWIDTH 16 0
BBX 16 9 0 -2
BITMAP
FF80
FFFF
0180
0180
0180
0180
0180
0180
0180
ENDCHAR
STARTCHAR 2532
ENCODING 9522
SWIDTH 1000 0
DWIDTH 16 0
BBX 16 9 0 -2
BITMAP
01FF
FFFF
0180
0180
0180
0180
0180
0180
0180
ENDCHAR
STARTCHAR 2533
ENCODING 9523
SWIDTH 1000 0
DWIDTH 16 0
BBX 16 9 0 -2
BITMAP
FFFF
FFFF
0180
0180
0180
0180
0180
0180
0180
ENDCHAR
STARTCHAR 2534
ENCODING 9524
SWIDTH 1000 0
DWIDTH 16 0
BBX 16 9 0 5
BITMAP
0180
0180
0180
0180
0180
0180
0180
0180
FFFF
ENDCHAR
STARTCHAR 2535
ENCODING 9525
SWIDTH 1000 0
DWIDTH 16 0
BBX 16 9 0 5
BITMAP
0180
0180
0180
0180
0180
0180
0180
FF80
FFFF
ENDCHAR
STARTCHAR 2536
ENCODING 9526
SWIDTH 1000 0
DWIDTH 16 0
BBX 16 9 0 5
BITMAP
0180
0180
0180
0180
0180
0180
0180
01FF
FFFF
ENDCHAR
STARTCHAR 2537
ENCODING 9527
SWIDTH 1000 0
DWIDTH 16 0
BBX 16 9 0 5
BITMAP
0180
0180
0180
0180
0180
0180
0180
FFFF
FFFF
ENDCHAR
STARTCHAR 2538
ENCODING 9528
SWIDTH 1000 0
DWIDTH 16 0
BBX 16 9 0 5
BITMAP
0180
0180
0180
0180
0180
0180
0180
0180
FFFF
ENDCHAR
STARTCHAR 2539
ENCODING 9529
SWIDTH 1000 0
DWIDTH 16 0
BBX 16 9 0 5
BITMAP
0180
0180
0180
0180
0180
0180
0180
FF80
FFFF
ENDCHAR
STARTCHAR 253A
ENCODING 9530
SWIDTH 1000 0
DWIDTH 16 0
BBX 16 9 0 5
BITMAP
0180
0180
0180
0180
0180
0180
0180
01FF
FFFF
ENDCHAR
STARTCHAR 253B
ENCODING 9531
SWIDTH 1000 0
DWIDTH 16 0
BBX 16 9 0 5
BITMAP
0180
0180
0180
0180
0180
0180
0180
FFFF
FFFF
ENDCHAR
STARTCHAR 253C
ENCODING 9532
SWIDTH 1000 0
DWIDTH 16 0
BBX 16 16 0 -2
BITMAP
0180
0180
0180
0180
0180
0180
0180
0180
FFFF
0180
0180
0180
0180
0180
0180
0180
ENDCHAR
STARTCHAR 253D
ENCODING 9533
SWIDTH 1000 0
DWIDTH 16 0
BBX 16 16 0 -2
BITMAP
0180
0180
0180
0180
0180
0180
0180
FF80
FFFF
0180
0180
0180
0180
0180
0180
0180
ENDCHAR
STARTCHAR 253E
ENCODING 9534
SWIDTH 1000 0
DWIDTH 16 0
BBX 16 16 0 -2
BITMAP
0180
0180
0180
0180
0180
0180
0180
01FF
FFFF
0180
0180
0180
0180
0180
0180
0180
ENDCHAR
STARTCHAR 253F
ENCODING 9535
SWIDTH 1000 0
DWIDTH 16 0
BBX 16 16 0 -2
BITMAP
0180
0180
0180
0180
0180
0180
0180
FFFF
FFFF
0180
0180
0180
0180
0180
0180
0180
ENDCHAR
STARTCHAR 2540
ENCODING 9536
SWIDTH 1000 0
DWIDTH 16 0
BBX 16 16 0 -2
BITMAP
0180
0180
0180
0180
0180
0180
0180
0180
FFFF
0180
0180
0180
0180
0180
0180
0180
ENDCHAR
STARTCHAR 2541
ENCODING 9537
SWIDTH 1000 0
DWIDTH 16 0
BBX 16 16 0 -2
BITMAP
0180
0180
0180
0180
0180
0180
0180
0180
FFFF
0180
0180
0180
0180
0180
0180
0180
ENDCHAR
STARTCHAR 2542
ENCODING 9538
SWIDTH 1000 0
DWIDTH 16 0
BBX 16 16 0 -2
BITMAP
0180
0180
0180
0180
0180
0180
0180
0180
FFFF
0180
0180
0180
0180
0180
0180
0180
ENDCHAR
STARTCHAR 2543
ENCODING 9539
SWIDTH 1000 0
DWIDTH 16 0
BBX 16 16 0 -2
BITMAP
0180
0180
0180
0180
0180
0180
0180
FF80
FFFF
0180
0180
0180
0180
0180
0180
0180
ENDCHAR
STARTCHAR 2544
ENCODING 9540
SWIDTH 1000 0
DWIDTH 16 0
BBX 16 16 0 -2
BITMAP
0180
0180
0180
0180
0180
0180
0180
01FF
FFFF
0180
0180
0180
0180
0180
0180
0180
ENDCHAR
STARTCHAR 2545
ENCODING 9541
SWIDTH 1000 0
DWIDTH 16 0
BBX 16 16 0 -2
BITMAP
0180
0180
0180
0180
0180
0180
0180
FF80
FFFF
0180
0180
0180
0180
0180
0180
0180
ENDCHAR
STARTCHAR 2546
ENCODING 9542
SWIDTH 1000 0
DWIDTH 16 0
BBX 16 16 0 -2
BITMAP
0180
0180
0180
0180
0180
0180
0180
01FF
FFFF
0180
0180
0180
0180
0180
0180
0180
ENDCHAR
STARTCHAR 2547
ENCODING 9543
SWIDTH 1000 0
DWIDTH 16 0
BBX 16 16 0 -2
BITMAP
0180
0180
0180
0180
0180
0180
0180
FFFF
FFFF
0180
0180
0180
0180
0180
0180
0180
ENDCHAR
STARTCHAR 2548
ENCODING 9544
SWIDTH 1000 0
DWIDTH 16 0
BBX 16 16 0 -2
BITMAP
0180
0180
0180
0180
0180
0180
0180
FFFF
FFFF
0180
0180
0180
0180
0180
0180
0180
ENDCHAR
STARTCHAR 2549
ENCODING 9545
SWIDTH 1000 0
DWIDTH 16 0
BBX 16 16 0 -2
BITMAP
0180
0180
0180
0180
0180
0180
0180
FF80
FFFF
0180
0180
0180
0180
0180
0180
0180
ENDCHAR
STARTCHAR 254A
ENCODING 9546
SWIDTH 1000 0
DWIDTH 16 0
BBX 16 16 0 -2
BITMAP
0180
0180
0180
0180
0180
0180
0180
01FF
FFFF
0180
0180
0180
0180
0180
0180
0180
ENDCHAR
STARTCHAR 254B
ENCODING 9547
SWIDTH 1000 0
DWIDTH 16 0
BBX 16 16 0 -2
BITMAP
0180
0180
0180
0180
0180
0180
0180
FFFF
FFFF
0180
0180
0180
0180
0180
0180
0180
ENDCHAR
STARTCHAR 2550
ENCODING 9552
SWIDTH 1000 0
DWIDTH 16 0
BBX 16 3 0 4
BITMAP
FFFF
0000
FFFF
ENDCHAR
STARTCHAR 2551
ENCODING 9553
SWIDTH 1000 0
DWIDTH 16 0
BBX 2 16 7 -2
BITMAP
C0
C0
C0
C0
C0
C0
C0
C0
C0
C0
C0
C0
C0
C0
C0
C0
ENDCHAR
STARTCHAR 2552
ENCODING 9554
SWIDTH 1000 0
DWIDTH 16 0
BBX 8 9 8 -2
BITMAP
FF
80
FF
80
80
80
80
80
80
ENDCHAR
STARTCHAR 2553
ENCODING 9555
SWIDTH 1000 0
DWIDTH 16 0
BBX 9 8 7 -2
BITMAP
FF80
C000
C000
C000
C000
C000
C000
C000
ENDCHAR
STARTCHAR 2554
ENCODING 9556
SWIDTH 1000 0
DWIDTH 16 0
BBX 9 9 7 -2
BITMAP
FF80
8000
FF80
C000
C000
C000
C000
C000
C000
ENDCHAR
STARTCHAR 2555
ENCODING 9557
SWIDTH 1000 0
DWIDTH 16 0
BBX 8 9 0 -2
BITMAP
FF
01
FF
01
01
01
01
01
01
ENDCHAR
STARTCHAR 2556
ENCODING 9558
SWIDTH 1000 0
DWIDTH 16 0
BBX 9 8 0 -2
BITMAP
FF80
0180
0180
0180
0180
0180
0180
0180
ENDCHAR
STARTCHAR 2557
ENCODING 9559
SWIDTH 1000 0
DWIDTH 16 0
BBX 9 9 0 -2
BITMAP
FF80
0080
FF80
0180
0180
0180
0180
0180
0180
ENDCHAR
STARTCHAR 2558
ENCODING 9560
SWIDTH 1000 0
DWIDTH 16 0
BBX 8 9 8 5
BITMAP
80
80
80
80
80
80
FF
80
FF
ENDCHAR
STARTCHAR 2559
ENCODING 9561
SWIDTH 1000 0
DWIDTH 16 0
BBX 9 9 7 5
BITMAP
C000
C000
C000
C000
C000
C000
C000
C000
FF80
ENDCHAR
STARTCHAR 255A
ENCODING 9562
SWIDTH 1000 0
DWIDTH 16 0
BBX 9 10 7 4
BITMAP
C000
C000
C000
C000
C000
C000
C000
FF80
8000
FF80
ENDCHAR
STARTCHAR 255B
ENCODING 9563
SWIDTH 1000 0
DWIDTH 16 0
BBX 8 9 0 5
BITMAP
01
01
01
01
01
01
FF
01
FF
ENDCHAR
STARTCHAR 255C
ENCODING 9564
SWIDTH 1000 0
DWIDTH 16 0
BBX 9 9 0 5
BITMAP
0180
0180
0180
0180
0180
0180
0180
0180
FF80
ENDCHAR
STARTCHAR 255D
ENCODING 9565
SWIDTH 1000 0
DWIDTH 16 0
BBX 9 10 0 4
BITMAP
0180
0180
0180
0180
0180
0180
0180
FF80
0080
FF80
ENDCHAR
STARTCHAR 255E
ENCODING 9566
SWIDTH 1000 0
DWIDTH 16 0
BBX 8 15 8 -1
BITMAP
80
80
80
80
80
80
FF
80
FF
80
80
80
80
80
80
ENDCHAR
STARTCHAR 255F
ENCODING 9567
SWIDTH 1000 0
DWIDTH 16 0
BBX 9 16 7 -2
BITMAP
C000
C000
C000
C000
C000
C000
C000
C000
FF80
C000
C000
C000
C000
C000
C000
C000
ENDCHAR
STARTCHAR 2560
ENCODING 9568
SWIDTH 1000 0
DWIDTH 16 0
BBX 9 16 7 -2
BITMAP
C000
C000
C000
C000
C000
C000
C000
FF80
8000
FF80
C000
C000
C000
C000
C000
C000
ENDCHAR
STARTCHAR 2561
ENCODING 9569
SWIDTH 1000 0
DWIDTH 16 0
BBX 8 15 0 -1
BITMAP
01
01
01
01
01
01
FF
01
FF
01
01
01
01
01
01
ENDCHAR
STARTCHAR 2562
ENCODING 9570
SWIDTH 1000 0
DWIDTH 16 0
BBX 9 16 0 -2
BITMAP
0180
0180
0180
0180
0180
0180
0180
0180
FF80
0180
0180
0180
0180
0180
0180
0180
ENDCHAR
STARTCHAR 2563
ENCODING 9571
SWIDTH 1000 0
DWIDTH 16 0
BBX 9 16 0 -2
BITMAP
0180
0180
0180
0180
0180
0180
0180
FF80
0080
FF80
0180
0180
0180
0180
0180
0180
ENDCHAR
STARTCHAR 2564
ENCODING 9572
SWIDTH 1000 0
DWIDTH 16 0
BBX 16 9 0 -2
BITMAP
FFFF
0000
FFFF
0100
0100
0100
0100
0100
0100
ENDCHAR
STARTCHAR 2565
ENCODING 9573
SWIDTH 1000 0
DWIDTH 16 0
BBX 16 8 0 -2
BITMAP
FFFF
0180
0180
0180
0180
0180
0180
0180
ENDCHAR
STARTCHAR 2566
ENCODING 9574
SWIDTH 1000 0
DWIDTH 16 0
BBX 16 9 0 -2
BITMAP
FFFF
0000
FFFF
0180
0180
0180
0180
0180
0180
ENDCHAR
STARTCHAR 2567
ENCODING 9575
SWIDTH 1000 0
DWIDTH 16 0
BBX 16 9 0 5
BITMAP
0100
0100
0100
0100
0100
0100
FFFF
0000
FFFF
ENDCHAR
STARTCHAR 2568
ENCODING 9576
SWIDTH 1000 0
DWIDTH 16 0
BBX 16 9 0 5
BITMAP
0180
0180
0180
0180
0180
0180
0180
0180
FFFF
ENDCHAR
STARTCHAR 2569
ENCODING 9577
SWIDTH 1000 0
DWIDTH 16 0
BBX 16 10 0 4
BITMAP
0180
0180
0180
0180
0180
0180
0180
FFFF
0000
FFFF
ENDCHAR
STARTCHAR 256A
ENCODING 9578
SWIDTH 1000 0
DWIDTH 16 0
BBX 16 15 0 -1
BITMAP
0100
0100
0100
0100
0100
0100
FFFF
0100
FFFF
0100
0100
0100
0100
0100
0100
ENDCHAR
STARTCHAR 256B
ENCODING 9579
SWIDTH 1000 0
DWIDTH 16 0
BBX 16 16 0 -2
BITMAP
0180
0180
0180
0180
0180
0180
0180
0180
FFFF
0180
0180
0180
0180
0180
0180
0180
ENDCHAR
STARTCHAR 256C
ENCODING 9580
SWIDTH 1000 0
DWIDTH 16 0
BBX 16 16 0 -2
BITMAP
0180
0180
0180
0180
0180
0180
0180
FFFF
0000
FFFF
0180
0180
0180
0180
0180
0180
ENDCHAR
STARTCHAR 256D
ENCODING 9581
SWIDTH 1000 0
DWIDTH 16 0
BBX 8 8 8 -2
BITMAP
03
0C
30
40
80
80
80
80
ENDCHAR
STARTCHAR 256E
ENCODING 9582
SWIDTH 1000 0
DWIDTH 16 0
BBX 8 8 0 -2
BITMAP
C0
30
0C
02
02
01
01
01
ENDCHAR
STARTCHAR 256F
ENCODING 9583
SWIDTH 1000 0
DWIDTH 16 0
BBX 8 8 0 6
BITMAP
01
01
02
02
04
08
10
E0
ENDCHAR
STARTCHAR 2570
ENCODING 9584
SWIDTH 1000 0
DWIDTH 16 0
BBX 8 8 8 6
BITMAP
80
80
80
40
40
20
18
07
ENDCHAR
STARTCHAR 2571
ENCODING 9585
SWIDTH 1000 0
DWIDTH 16 0
BBX 14 14 1 -1
BITMAP
0004
0008
0010
0020
0040
0080
0300
0600
0C00
1800
3000
6000
C000
8000
ENDCHAR
STARTCHAR 2572
ENCODING 9586
SWIDTH 1000 0
DWIDTH 16 0
BBX 16 16 0 -2
BITMAP
8000
4000
2000
1000
0800
0400
0200
0100
0080
0040
0020
0010
0008
0004
0002
0001
ENDCHAR
STARTCHAR 2573
ENCODING 9587
SWIDTH 1000 0
DWIDTH 16 0
BBX 16 16 0 -2
BITMAP
8001
4002
2004
1008
0810
0420
0240
0180
0180
0240
0420
0810
1008
2004
4002
8001
ENDCHAR
STARTCHAR 2581
ENCODING 9601
SWIDTH 1000 0
DWIDTH 16 0
BBX 14 2 1 -2
BITMAP
FFFC
FFFC
ENDCHAR
STARTCHAR 2582
ENCODING 9602
SWIDTH 1000 0
DWIDTH 16 0
BBX 14 4 1 -2
BITMAP
FFFC
FFFC
FFFC
FFFC
ENDCHAR
STARTCHAR 2583
ENCODING 9603
SWIDTH 1000 0
DWIDTH 16 0
BBX 14 6 1 -2
BITMAP
FFFC
FFFC
FFFC
FFFC
FFFC
FFFC
ENDCHAR
STARTCHAR 2584
ENCODING 9604
SWIDTH 1000 0
DWIDTH 16 0
BBX 14 8 1 -2
BITMAP
FFFC
FFFC
FFFC
FFFC
FFFC
FFFC
FFFC
FFFC
ENDCHAR
STARTCHAR 2585
ENCODING 9605
SWIDTH 1000 0
DWIDTH 16 0
BBX 14 10 1 -2
BITMAP
FFFC
FFFC
FFFC
FFFC
FFFC
FFFC
FFFC
FFFC
FFFC
FFFC
ENDCHAR
STARTCHAR 2586
ENCODING 9606
SWIDTH 1000 0
DWIDTH 16 0
BBX 14 12 1 -2
BITMAP
FFFC
FFFC
FFFC
FFFC
FFFC
FFFC
FFFC
FFFC
FFFC
FFFC
FFFC
FFFC
ENDCHAR
STARTCHAR 2587
ENCODING 9607
SWIDTH 1000 0
DWIDTH 16 0
BBX 14 13 1 -2
BITMAP
FFFC
FFFC
FFFC
FFFC
FFFC
FFFC
FFFC
FFFC
FFFC
FFFC
FFFC
FFFC
FFFC
ENDCHAR
STARTCHAR 2588
ENCODING 9608
SWIDTH 1000 0
DWIDTH 16 0
BBX 14 15 1 -2
BITMAP
FFFC
FFFC
FFFC
FFFC
FFFC
FFFC
FFFC
FFFC
FFFC
FFFC
FFFC
FFFC
FFFC
FFFC
FFFC
ENDCHAR
STARTCHAR 2589
ENCODING 9609
SWIDTH 1000 0
DWIDTH 16 0
BBX 13 15 1 -2
BITMAP
FFF8
FFF8
FFF8
FFF8
FFF8
FFF8
FFF8
FFF8
FFF8
FFF8
FFF8
FFF8
FFF8
FFF8
FFF8
ENDCHAR
STARTCHAR 258A
ENCODING 9610
SWIDTH 1000 0
DWIDTH 16 0
BBX 11 15 1 -2
BITMAP
FFE0
FFE0
FFE0
FFE0
FFE0
FFE0
FFE0
FFE0
FFE0
FFE0
FFE0
FFE0
FFE0
FFE0
FFE0
ENDCHAR
STARTCHAR 258B
ENCODING 9611
SWIDTH 1000 0
DWIDTH 16 0
BBX 9 15 1 -2
BITMAP
FF80
FF80
FF80
FF80
FF80
FF80
FF80
FF80
FF80
FF80
FF80
FF80
FF80
FF80
FF80
ENDCHAR
STARTCHAR 258C
ENCODING 9612
SWIDTH 1000 0
DWIDTH 16 0
BBX 7 15 1 -2
BITMAP
FE
FE
FE
FE
FE
FE
FE
FE
FE
FE
FE
FE
FE
FE
FE
ENDCHAR
STARTCHAR 258D
ENCODING 9613
SWIDTH 1000 0
DWIDTH 16 0
BBX 5 15 1 -2
BITMAP
F8
F8
F8
F8
F8
F8
F8
F8
F8
F8
F8
F8
F8
F8
F8
ENDCHAR
STARTCHAR 258E
ENCODING 9614
SWIDTH 1000 0
DWIDTH 16 0
BBX 3 15 1 -2
BITMAP
E0
E0
E0
E0
E0
E0
E0
E0
E0
E0
E0
E0
E0
E0
E0
ENDCHAR
STARTCHAR 258F
ENCODING 9615
SWIDTH 1000 0
DWIDTH 16 0
BBX 1 15 1 -2
BITMAP
80
80
80
80
80
80
80
80
80
80
80
80
80
80
80
ENDCHAR
STARTCHAR 2593
ENCODING 9619
SWIDTH 1000 0
DWIDTH 16 0
BBX 14 15 1 -2
BITMAP
FFFC
B66C
FFFC
C9B4
FFFC
B66C
FFFC
C9B4
FFFC
B66C
FFFC
C9B4
C9B4
FFFC
FFFC
ENDCHAR
STARTCHAR 2594
ENCODING 9620
SWIDTH 1000 0
DWIDTH 16 0
BBX 14 2 1 11
BITMAP
FFFC
FFFC
ENDCHAR
STARTCHAR 2595
ENCODING 9621
SWIDTH 1000 0
DWIDTH 16 0
BBX 1 15 14 -2
BITMAP
80
80
80
80
80
80
80
80
80
80
80
80
80
80
80
ENDCHAR
STARTCHAR 25A0
ENCODING 9632
SWIDTH 1000 0
DWIDTH 16 0
BBX 12 11 2 0
BITMAP
FFF0
FFF0
FFF0
FFF0
FFF0
FFF0
FFF0
FFF0
FFF0
FFF0
FFF0
ENDCHAR
STARTCHAR 25A1
ENCODING 9633
SWIDTH 1000 0
DWIDTH 16 0
BBX 12 11 2 0
BITMAP
FFF0
8010
8010
8010
8010
8010
8010
8010
8010
8010
FFF0
ENDCHAR
STARTCHAR 25B2
ENCODING 9650
SWIDTH 1000 0
DWIDTH 16 0
BBX 12 12 2 0
BITMAP
0400
0600
0E00
0F00
1F80
1F80
3FC0
3FC0
7FE0
7FE0
FFF0
FFF0
ENDCHAR
STARTCHAR 25B3
ENCODING 9651
SWIDTH 1000 0
DWIDTH 16 0
BBX 13 12 1 0
BITMAP
0200
0300
0500
0480
0880
0840
1020
2020
2010
4010
4008
FFF8
ENDCHAR
STARTCHAR 25BC
ENCODING 9660
SWIDTH 1000 0
DWIDTH 16 0
BBX 12 10 2 2
BITMAP
FFF0
7FE0
7FE0
3FC0
3F80
1F80
1F00
0F00
0600
0400
ENDCHAR
STARTCHAR 25BD
ENCODING 9661
SWIDTH 1000 0
DWIDTH 16 0
BBX 12 10 2 1
BITMAP
FFF0
8020
4020
4040
2040
1080
1100
0900
0A00
0600
ENDCHAR
STARTCHAR 25C6
ENCODING 9670
SWIDTH 1000 0
DWIDTH 16 0
BBX 12 12 2 -1
BITMAP
0400
0F00
1F80
3FC0
7FE0
FFF0
FFF0
7FE0
3FC0
1F80
0F00
0600
ENDCHAR
STARTCHAR 25C7
ENCODING 9671
SWIDTH 1000 0
DWIDTH 16 0
BBX 12 12 2 -1
BITMAP
0600
0900
1080
2040
4020
8010
8010
4020
2040
1080
0900
0600
ENDCHAR
STARTCHAR 25CB
ENCODING 9675
SWIDTH 1000 0
DWIDTH 16 0
BBX 12 12 2 0
BITMAP
0F00
30C0
4020
8020
8010
8010
8010
8010
8010
4020
2040
1F80
ENDCHAR
STARTCHAR 25CE
ENCODING 9678
SWIDTH 1000 0
DWIDTH 16 0
BBX 12 12 2 0
BITMAP
0F00
30C0
4E20
91A0
A090
A050
A050
A050
9090
4F20
2040
1F80
ENDCHAR
STARTCHAR 25CF
ENCODING 9679
SWIDTH 1000 0
DWIDTH 16 0
BBX 12 12 2 0
BITMAP
0F00
3FC0
7FE0
7FE0
FFF0
FFF0
FFF0
FFF0
FFF0
7FE0
3FC0
1F80
ENDCHAR
STARTCHAR 25E2
ENCODING 9698
SWIDTH 1000 0
DWIDTH 16 0
BBX 11 11 3 1
BITMAP
0020
0060
00E0
01E0
03E0
07E0
0FE0
1FE0
3FE0
7FE0
FFE0
ENDCHAR
STARTCHAR 25E3
ENCODING 9699
SWIDTH 1000 0
DWIDTH 16 0
BBX 11 11 3 1
BITMAP
8000
C000
E000
F000
F800
FC00
FE00
FF00
FF80
FFC0
FFE0
ENDCHAR
STARTCHAR 25E4
ENCODING 9700
SWIDTH 1000 0
DWIDTH 16 0
BBX 11 11 3 1
BITMAP
FFE0
FFC0
FF80
FF00
FE00
FC00
F800
F000
E000
C000
8000
ENDCHAR
STARTCHAR 25E5
ENCODING 9701
SWIDTH 1000 0
DWIDTH 16 0
BBX 11 11 3 1
BITMAP
FFE0
3FE0
1FE0
0FE0
07E0
03E0
01E0
00E0
0060
0020
0020
ENDCHAR
STARTCHAR 2605
ENCODING 9733
SWIDTH 1000 0
DWIDTH 16 0
BBX 12 13 2 0
BITMAP
0400
0600
0600
0600
0F00
FFF0
7FE0
1F80
1F80
1F80
39C0
20C0
4040
ENDCHAR
STARTCHAR 2606
ENCODING 9734
SWIDTH 1000 0
DWIDTH 16 0
BBX 12 13 2 0
BITMAP
0400
0600
0600
0A00
0900
F0F0
4020
30C0
2080
2680
2940
70C0
4040
ENDCHAR
STARTCHAR 2609
ENCODING 9737
SWIDTH 1000 0
DWIDTH 16 0
BBX 12 11 2 1
BITMAP
1F80
6040
4020
8010
8610
8610
8010
8020
4020
2040
1F80
ENDCHAR
STARTCHAR 2640
ENCODING 9792
SWIDTH 1000 0
DWIDTH 16 0
BBX 8 15 4 -2
BITMAP
3C
42
81
81
81
81
81
42
3C
10
10
FF
10
10
10
ENDCHAR
STARTCHAR 2642
ENCODING 9794
SWIDTH 1000 0
DWIDTH 16 0
BBX 10 15 3 -2
BITMAP
0080
0380
0D40
0140
0240
0240
0400
7E00
8300
8100
8100
8100
8100
4200
3C00
ENDCHAR
STARTCHAR 2E81
ENCODING 11905
SWIDTH 1000 0
DWIDTH 16 0
BBX 15 15 0 -2
BITMAP
000C
3FFE
2000
2000
2000
2000
2000
2000
2000
2000
2000
6000
4000
4000
C000
ENDCHAR
STARTCHAR 2E84
ENCODING 11908
SWIDTH 1000 0
DWIDTH 16 0
BBX 15 14 1 -2
BITMAP
FFF0
0030
0030
0030
0030
0030
0030
0030
0030
0010
0012
0016
001C
000C
ENDCHAR
STARTCHAR 2E88
ENCODING 11912
SWIDTH 1000 0
DWIDTH 16 0
BBX 11 6 1 7
BITMAP
0800
1800
3FE0
6060
C0C0
8180
ENDCHAR
STARTCHAR 2E8B
ENCODING 11915
SWIDTH 1000 0
DWIDTH 16 0
BBX 13 10 2 -2
BITMAP
FFC0
FFC0
8040
8040
80C0
8788
8008
C008
E030
7FE0
ENDCHAR
STARTCHAR 2E8C
ENCODING 11916
SWIDTH 1000 0
DWIDTH 16 0
BBX 12 5 2 8
BITMAP
0600
8610
C630
6660
2640
ENDCHAR
STARTCHAR 2EA7
ENCODING 11943
SWIDTH 1000 0
DWIDTH 16 0
BBX 16 7 0 6
BITMAP
0880
1880
1FFE
3080
2080
0080
FFFF
ENDCHAR
STARTCHAR 2EAA
ENCODING 11946
SWIDTH 1000 0
DWIDTH 16 0
BBX 7 13 0 -1
BITMAP
7E
06
04
48
48
48
4E
48
48
48
4E
7C
C0
ENDCHAR
STARTCHAR 2EAE
ENCODING 11950
SWIDTH 1000 0
DWIDTH 16 0
BBX 16 6 0 7
BITMAP
1020
1F7F
3F7F
68C0
CD88
0400
ENDCHAR
STARTCHAR 2EB3
ENCODING 11955
SWIDTH 1000 0
DWIDTH 16 0
BBX 14 6 1 6
BITMAP
FFFC
8004
8CC4
08C0
3040
E07C
ENDCHAR
STARTCHAR 2EB6
ENCODING 11958
SWIDTH 1000 0
DWIDTH 16 0
BBX 15 12 0 1
BITMAP
0C30
0420
7FFE
0100
3FFC
0200
7FFE
0400
0C00
1800
7000
C000
ENDCHAR
STARTCHAR 2EB7
ENCODING 11959
SWIDTH 1000 0
DWIDTH 16 0
BBX 16 9 0 4
BITMAP
0C30
0420
7FFE
0180
0180
3FFC
0180
0180
FFFF
ENDCHAR
STARTCHAR 2EBB
ENCODING 11963
SWIDTH 1000 0
DWIDTH 16 0
BBX 16 8 0 5
BITMAP
0180
3FFC
0184
FFFF
0184
3FFC
0184
7FFE
ENDCHAR
STARTCHAR 2ECA
ENCODING 11978
SWIDTH 1000 0
DWIDTH 16 0
BBX 7 13 0 -1
BITMAP
7E
42
42
7E
48
08
48
4E
48
48
48
5E
F0
ENDCHAR
STARTCHAR 2FF0
ENCODING 12272
SWIDTH 1000 0
DWIDTH 16 0
BBX 12 1 2 0
BITMAP
ABD0
ENDCHAR
STARTCHAR 2FF1
ENCODING 12273
SWIDTH 1000 0
DWIDTH 16 0
BBX 12 1 2 0
BITMAP
ABD0
ENDCHAR
STARTCHAR 2FF2
ENCODING 12274
SWIDTH 1000 0
DWIDTH 16 0
BBX 12 1 2 0
BITMAP
ABD0
ENDCHAR
STARTCHAR 2FF3
ENCODING 12275
SWIDTH 1000 0
DWIDTH 16 0
BBX 12 9 2 0
BITMAP
ABD0
0000
0000
0000
57A0
0000
0000
0000
57A0
ENDCHAR
STARTCHAR 2FF4
ENCODING 12276
SWIDTH 1000 0
DWIDTH 16 0
BBX 12 11 2 0
BITMAP
AAF0
8000
0000
8000
0040
8040
0040
8000
8040
9540
8000
ENDCHAR
STARTCHAR 2FF5
ENCODING 12277
SWIDTH 1000 0
DWIDTH 16 0
BBX 12 12 2 0
BITMAP
ABD0
0000
0000
1680
1080
0000
1080
1080
0000
1080
0080
1000
ENDCHAR
STARTCHAR 2FF6
ENCODING 12278
SWIDTH 1000 0
DWIDTH 16 0
BBX 12 9 2 0
BITMAP
ABD0
1080
0000
1080
1080
1080
1080
0000
1080
ENDCHAR
STARTCHAR 2FF7
ENCODING 12279
SWIDTH 1000 0
DWIDTH 16 0
BBX 12 8 2 0
BITMAP
AF50
0000
0000
0000
1000
0000
1000
1000
ENDCHAR
STARTCHAR 2FF8
ENCODING 12280
SWIDTH 1000 0
DWIDTH 16 0
BBX 12 12 2 0
BITMAP
AF50
0000
0000
1760
1000
0000
1000
1000
0000
1000
0000
1000
ENDCHAR
STARTCHAR 2FF9
ENCODING 12281
SWIDTH 1000 0
DWIDTH 16 0
BBX 12 12 2 0
BITMAP
AF50
0000
0000
7A80
0080
0000
0080
0080
0000
0080
0000
0080
ENDCHAR
STARTCHAR 2FFA
ENCODING 12282
SWIDTH 1000 0
DWIDTH 16 0
BBX 4 10 2 1
BITMAP
90
10
80
10
80
90
90
80
00
80
ENDCHAR
STARTCHAR 2FFB
ENCODING 12283
SWIDTH 1000 0
DWIDTH 16 0
BBX 12 11 2 0
BITMAP
DB80
8000
0000
8000
8010
0010
8000
0010
8000
D990
0010
ENDCHAR
STARTCHAR 3000
ENCODING 12288
SWIDTH 1000 0
DWIDTH 16 0
BBX 0 0 0 0
BITMAP
ENDCHAR
STARTCHAR 3001
ENCODING 12289
SWIDTH 1000 0
DWIDTH 16 0
BBX 3 3 1 -1
BITMAP
C0
60
20
ENDCHAR
STARTCHAR 3002
ENCODING 12290
SWIDTH 1000 0
DWIDTH 16 0
BBX 4 4 1 -2
BITMAP
60
90
90
60
ENDCHAR
STARTCHAR 3003
ENCODING 12291
SWIDTH 1000 0
DWIDTH 16 0
BBX 6 7 5 2
BITMAP
24
2C
68
48
58
D0
90
ENDCHAR
STARTCHAR 3005
ENCODING 12293
SWIDTH 1000 0
DWIDTH 16 0
BBX 10 9 2 2
BITMAP
0C00
0800
1FC0
10C0
2180
6B00
CE00
0300
0100
ENDCHAR
STARTCHAR 3006
ENCODING 12294
SWIDTH 1000 0
DWIDTH 16 0
BBX 11 10 2 1
BITMAP
0020
0060
18C0
1F00
3700
2D00
7900
7000
E000
8000
ENDCHAR
STARTCHAR 3007
ENCODING 12295
SWIDTH 1000 0
DWIDTH 16 0
BBX 13 13 2 -1
BITMAP
0F80
1860
2030
4018
4008
C008
C008
C008
4008
6010
3030
1CE0
0780
ENDCHAR
STARTCHAR 3008
ENCODING 12296
SWIDTH 1000 0
DWIDTH 16 0
BBX 4 15 10 -2
BITMAP
10
30
20
60
40
C0
80
80
C0
40
40
60
20
30
10
ENDCHAR
STARTCHAR 3009
ENCODING 12297
SWIDTH 1000 0
DWIDTH 16 0
BBX 4 15 2 -2
BITMAP
80
C0
40
60
20
30
10
10
10
30
20
60
40
C0
80
ENDCHAR
STARTCHAR 300A
ENCODING 12298
SWIDTH 1000 0
DWIDTH 16 0
BBX 7 15 8 -2
BITMAP
16
34
2C
28
58
50
D0
A0
D0
50
48
28
2C
14
16
ENDCHAR
STARTCHAR 300B
ENCODING 12299
SWIDTH 1000 0
DWIDTH 16 0
BBX 7 15 1 -2
BITMAP
50
58
68
2C
34
14
12
0A
12
14
34
28
68
58
D0
ENDCHAR
STARTCHAR 300C
ENCODING 12300
SWIDTH 1000 0
DWIDTH 16 0
BBX 5 15 10 -2
BITMAP
F8
C0
C0
C0
C0
C0
C0
C0
C0
C0
C0
C0
C0
C0
C0
ENDCHAR
STARTCHAR 300D
ENCODING 12301
SWIDTH 1000 0
DWIDTH 16 0
BBX 5 15 1 -2
BITMAP
18
18
18
18
18
18
18
18
18
18
18
18
18
18
F8
ENDCHAR
STARTCHAR 300E
ENCODING 12302
SWIDTH 1000 0
DWIDTH 16 0
BBX 6 15 9 -2
BITMAP
FC
84
BC
A0
A0
A0
A0
A0
A0
A0
A0
A0
A0
A0
E0
ENDCHAR
STARTCHAR 300F
ENCODING 12303
SWIDTH 1000 0
DWIDTH 16 0
BBX 6 15 1 -2
BITMAP
1C
14
14
14
14
14
14
14
14
14
14
14
F4
84
FC
ENDCHAR
STARTCHAR 3010
ENCODING 12304
SWIDTH 1000 0
DWIDTH 16 0
BBX 5 15 9 -2
BITMAP
F8
F0
E0
E0
C0
C0
C0
C0
C0
C0
C0
E0
E0
F0
F8
ENDCHAR
STARTCHAR 3011
ENCODING 12305
SWIDTH 1000 0
DWIDTH 16 0
BBX 5 15 2 -2
BITMAP
F8
78
38
38
18
18
18
18
18
18
18
38
38
78
F8
ENDCHAR
STARTCHAR 3012
ENCODING 12306
SWIDTH 1000 0
DWIDTH 16 0
BBX 12 13 2 -1
BITMAP
FFF0
0000
0000
0000
FFF0
0600
0600
0600
0600
0600
0600
0600
0600
ENDCHAR
STARTCHAR 3013
ENCODING 12307
SWIDTH 1000 0
DWIDTH 16 0
BBX 14 12 1 0
BITMAP
7FFC
7FFC
7FFC
7FFC
7FFC
0000
0000
0000
FFF8
FFF8
FFF8
FFF8
ENDCHAR
STARTCHAR 3014
ENCODING 12308
SWIDTH 1000 0
DWIDTH 16 0
BBX 4 15 10 -2
BITMAP
30
E0
80
80
80
80
80
80
80
80
80
80
C0
70
10
ENDCHAR
STARTCHAR 3015
ENCODING 12309
SWIDTH 1000 0
DWIDTH 16 0
BBX 4 15 2 -2
BITMAP
C0
70
10
10
10
10
10
10
10
10
10
10
30
E0
80
ENDCHAR
STARTCHAR 3016
ENCODING 12310
SWIDTH 1000 0
DWIDTH 16 0
BBX 5 15 9 -2
BITMAP
F8
98
90
90
B0
A0
A0
A0
A0
A0
B0
90
90
98
F8
ENDCHAR
STARTCHAR 3017
ENCODING 12311
SWIDTH 1000 0
DWIDTH 16 0
BBX 5 15 2 -2
BITMAP
F8
C8
48
48
68
28
28
28
28
28
68
48
48
C8
F8
ENDCHAR
STARTCHAR 301D
ENCODING 12317
SWIDTH 1000 0
DWIDTH 16 0
BBX 5 4 10 9
BITMAP
E0
B0
58
60
ENDCHAR
STARTCHAR 301E
ENCODING 12318
SWIDTH 1000 0
DWIDTH 16 0
BBX 5 4 1 9
BITMAP
38
68
D0
30
ENDCHAR
STARTCHAR 3021
ENCODING 12321
SWIDTH 1000 0
DWIDTH 16 0
BBX 2 10 7 1
BITMAP
C0
C0
C0
C0
C0
C0
C0
C0
C0
C0
ENDCHAR
STARTCHAR 3022
ENCODING 12322
SWIDTH 1000 0
DWIDTH 16 0
BBX 5 10 6 1
BITMAP
18
98
98
98
98
98
98
98
98
18
ENDCHAR
STARTCHAR 3023
ENCODING 12323
SWIDTH 1000 0
DWIDTH 16 0
BBX 8 10 4 1
BITMAP
03
C3
DB
DB
DB
DB
DB
DB
DB
C3
ENDCHAR
STARTCHAR 3024
ENCODING 12324
SWIDTH 1000 0
DWIDTH 16 0
BBX 9 10 3 1
BITMAP
4000
6100
3300
1A00
0E00
0C00
1A00
3300
6180
C080
ENDCHAR
STARTCHAR 3025
ENCODING 12325
SWIDTH 1000 0
DWIDTH 16 0
BBX 7 10 5 1
BITMAP
48
D8
90
B0
FC
7E
46
44
4C
78
ENDCHAR
STARTCHAR 3026
ENCODING 12326
SWIDTH 1000 0
DWIDTH 16 0
BBX 10 7 3 3
BITMAP
0C00
0C00
0C00
0C00
0C00
0C00
FFC0
ENDCHAR
STARTCHAR 3027
ENCODING 12327
SWIDTH 1000 0
DWIDTH 16 0
BBX 10 8 3 2
BITMAP
0C00
0C00
0C00
FFC0
FFC0
0000
0000
7F80
ENDCHAR
STARTCHAR 3028
ENCODING 12328
SWIDTH 1000 0
DWIDTH 16 0
BBX 10 9 3 2
BITMAP
0C00
0C00
0C00
FFC0
0000
0000
7F80
0000
7F80
ENDCHAR
STARTCHAR 3029
ENCODING 12329
SWIDTH 1000 0
DWIDTH 16 0
BBX 9 10 4 1
BITMAP
2000
6000
7F80
C200
A600
3400
1C00
1E00
6200
C000
ENDCHAR
STARTCHAR 3041
ENCODING 12353
SWIDTH 1000 0
DWIDTH 16 0
BBX 10 11 3 -1
BITMAP
3000
3000
3F00
F000
3600
3F80
74C0
5C40
D8C0
D980
7300
ENDCHAR
STARTCHAR 3042
ENCODING 12354
SWIDTH 1000 0
DWIDTH 16 0
BBX 12 14 2 -1
BITMAP
0800
0800
09C0
7F80
0800
0900
1FC0
3930
4B10
CA10
8E10
8C10
FC70
61C0
ENDCHAR
STARTCHAR 3043
ENCODING 12355
SWIDTH 1000 0
DWIDTH 16 0
BBX 9 8 4 0
BITMAP
4100
C100
8100
8180
8080
9080
F080
6000
ENDCHAR
STARTCHAR 3044
ENCODING 12356
SWIDTH 1000 0
DWIDTH 16 0
BBX 12 11 2 0
BITMAP
4000
4040
4040
C020
8020
8030
8010
8810
D810
7000
2000
ENDCHAR
STARTCHAR 3045
ENCODING 12357
SWIDTH 1000 0
DWIDTH 16 0
BBX 7 10 4 0
BITMAP
3E
04
00
FE
42
02
02
06
1C
30
ENDCHAR
STARTCHAR 3046
ENCODING 12358
SWIDTH 1000 0
DWIDTH 16 0
BBX 9 14 3 -1
BITMAP
2000
3F00
0300
0000
0E00
FF80
0080
0080
0080
0080
0180
0300
0600
1800
ENDCHAR
STARTCHAR 3047
ENCODING 12359
SWIDTH 1000 0
DWIDTH 16 0
BBX 9 10 4 -1
BITMAP
6400
7C00
0400
FE00
CC00
1800
3C00
6C00
C580
8780
ENDCHAR
STARTCHAR 3048
ENCODING 12360
SWIDTH 1000 0
DWIDTH 16 0
BBX 13 13 2 -1
BITMAP
3F00
1F00
0000
0380
7F80
0300
0600
0F00
1F00
3100
6100
41F8
C0E0
ENDCHAR
STARTCHAR 3049
ENCODING 12361
SWIDTH 1000 0
DWIDTH 16 0
BBX 10 11 3 -1
BITMAP
1000
1000
1100
FD80
D040
1E00
3B80
7080
D4C0
9680
6380
ENDCHAR
STARTCHAR 304A
ENCODING 12362
SWIDTH 1000 0
DWIDTH 16 0
BBX 12 14 2 -1
BITMAP
1800
1800
1840
1F60
7C30
1810
1B00
1FE0
3830
5810
9810
9A10
9B30
F1E0
ENDCHAR
STARTCHAR 304B
ENCODING 12363
SWIDTH 1000 0
DWIDTH 16 0
BBX 14 13 1 0
BITMAP
0C00
0800
0800
1860
FF20
1110
3110
2108
210C
6100
4100
CF00
8000
ENDCHAR
STARTCHAR 304C
ENCODING 12364
SWIDTH 1000 0
DWIDTH 16 0
BBX 14 13 1 0
BITMAP
0C08
0834
0818
1860
FF20
1110
3110
2108
210C
6100
4100
CF00
8000
ENDCHAR
STARTCHAR 304D
ENCODING 12365
SWIDTH 1000 0
DWIDTH 16 0
BBX 12 14 2 -1
BITMAP
0400
0400
0440
FFC0
6200
03F0
FF80
8180
00C0
1FE0
2000
6000
2000
1FC0
ENDCHAR
STARTCHAR 304E
ENCODING 12366
SWIDTH 1000 0
DWIDTH 16 0
BBX 13 14 2 -1
BITMAP
0430
0478
0470
FFC0
6200
03F0
FF80
8180
00C0
1FE0
2000
6000
2000
1FC0
ENDCHAR
STARTCHAR 304F
ENCODING 12367
SWIDTH 1000 0
DWIDTH 16 0
BBX 7 13 4 0
BITMAP
06
0C
18
30
60
C0
80
40
30
18
0C
06
02
ENDCHAR
STARTCHAR 3050
ENCODING 12368
SWIDTH 1000 0
DWIDTH 16 0
BBX 10 13 4 0
BITMAP
0600
0C80
1840
3180
6080
C000
8000
4000
3000
1800
0C00
0600
0200
ENDCHAR
STARTCHAR 3051
ENCODING 12369
SWIDTH 1000 0
DWIDTH 16 0
BBX 13 13 2 -1
BITMAP
4080
4080
4080
C0F8
DFE0
C080
C080
C080
C080
C080
4080
4100
0300
ENDCHAR
STARTCHAR 3052
ENCODING 12370
SWIDTH 1000 0
DWIDTH 16 0
BBX 13 14 2 -2
BITMAP
0010
4098
40A8
4090
C0F8
DFE0
C080
C080
C080
C080
C080
4080
4100
0300
ENDCHAR
STARTCHAR 3053
ENCODING 12371
SWIDTH 1000 0
DWIDTH 16 0
BBX 10 11 3 0
BITMAP
7F80
0000
0000
0000
0000
0000
8000
8000
8000
FFC0
0C00
ENDCHAR
STARTCHAR 3054
ENCODING 12372
SWIDTH 1000 0
DWIDTH 16 0
BBX 12 13 3 0
BITMAP
0030
0050
7FA0
0000
0000
0000
0000
0000
8000
8000
8000
FFC0
0C00
ENDCHAR
STARTCHAR 3055
ENCODING 12373
SWIDTH 1000 0
DWIDTH 16 0
BBX 12 13 2 0
BITMAP
0800
0C10
05E0
1F00
F300
0180
00C0
0FE0
3000
2000
2000
3020
1FC0
ENDCHAR
STARTCHAR 3056
ENCODING 12374
SWIDTH 1000 0
DWIDTH 16 0
BBX 13 14 2 -1
BITMAP
0030
0858
0C30
05C0
1F00
F300
0180
00C0
0FE0
3000
2000
2000
3020
1FC0
ENDCHAR
STARTCHAR 3057
ENCODING 12375
SWIDTH 1000 0
DWIDTH 16 0
BBX 9 12 4 0
BITMAP
8000
8000
8000
8000
8000
8000
8000
8000
8080
8180
C300
7E00
ENDCHAR
STARTCHAR 3058
ENCODING 12376
SWIDTH 1000 0
DWIDTH 16 0
BBX 9 12 4 0
BITMAP
8200
8D80
8600
8000
8000
8000
8000
8000
8080
8180
C300
7E00
ENDCHAR
STARTCHAR 3059
ENCODING 12377
SWIDTH 1000 0
DWIDTH 16 0
BBX 14 15 1 -2
BITMAP
0180
0180
0180
3FFC
FF80
0180
0F80
1980
1980
0F80
0580
0100
0300
0600
0800
ENDCHAR
STARTCHAR 305A
ENCODING 12378
SWIDTH 1000 0
DWIDTH 16 0
BBX 14 15 1 -2
BITMAP
01A8
01BC
0190
3FFC
FF80
0180
0F80
1980
1980
0F80
0580
0100
0300
0600
0800
ENDCHAR
STARTCHAR 305B
ENCODING 12379
SWIDTH 1000 0
DWIDTH 16 0
BBX 14 13 1 -1
BITMAP
0040
1040
1040
1040
FFFC
F040
1040
1040
13C0
1380
1000
1C30
0FF0
ENDCHAR
STARTCHAR 305C
ENCODING 12380
SWIDTH 1000 0
DWIDTH 16 0
BBX 14 14 1 -1
BITMAP
0008
004C
1054
1048
1040
FFFC
F040
1040
1040
13C0
1380
1000
1C30
0FF0
ENDCHAR
STARTCHAR 305D
ENCODING 12381
SWIDTH 1000 0
DWIDTH 16 0
BBX 13 13 1 -1
BITMAP
03C0
1E80
0100
0600
0C00
1FF8
FB00
0600
0400
0400
0400
0700
01C0
ENDCHAR
STARTCHAR 305E
ENCODING 12382
SWIDTH 1000 0
DWIDTH 16 0
BBX 14 13 1 0
BITMAP
03C8
1E94
0118
0600
0C00
1FF8
FB00
0600
0400
0400
0400
0700
01C0
ENDCHAR
STARTCHAR 305F
ENCODING 12383
SWIDTH 1000 0
DWIDTH 16 0
BBX 12 14 2 -1
BITMAP
0800
1800
1000
1600
FC00
1000
31F0
2300
2000
6000
4000
4400
C7F0
80F0
ENDCHAR
STARTCHAR 3060
ENCODING 12384
SWIDTH 1000 0
DWIDTH 16 0
BBX 13 14 2 -1
BITMAP
0800
1810
1058
1620
FC00
1000
31F0
2300
2000
6000
4000
4400
C7F0
80F0
ENDCHAR
STARTCHAR 3061
ENCODING 12385
SWIDTH 1000 0
DWIDTH 16 0
BBX 11 14 2 -1
BITMAP
0800
0800
1800
1FE0
FE00
1000
3000
2780
3CC0
6020
0020
0020
00C0
0F80
ENDCHAR
STARTCHAR 3062
ENCODING 12386
SWIDTH 1000 0
DWIDTH 16 0
BBX 13 14 2 -1
BITMAP
0800
0810
1868
1FA0
FE00
1000
3000
2780
3CC0
6020
0020
0020
00C0
0F80
ENDCHAR
STARTCHAR 3063
ENCODING 12387
SWIDTH 1000 0
DWIDTH 16 0
BBX 10 8 3 0
BITMAP
0600
7F80
C0C0
0040
0040
00C0
0380
1E00
ENDCHAR
STARTCHAR 3064
ENCODING 12388
SWIDTH 1000 0
DWIDTH 16 0
BBX 13 10 1 0
BITMAP
07E0
3C30
C018
0008
0008
0008
0018
0030
01E0
0700
ENDCHAR
STARTCHAR 3065
ENCODING 12389
SWIDTH 1000 0
DWIDTH 16 0
BBX 14 13 1 0
BITMAP
0008
0034
001C
07E0
3C30
C018
0008
0008
0008
0018
0030
01E0
0700
ENDCHAR
STARTCHAR 3066
ENCODING 12390
SWIDTH 1000 0
DWIDTH 16 0
BBX 12 12 2 -1
BITMAP
FFF0
0380
0600
0C00
0800
1800
1800
1800
0800
0600
03C0
0040
ENDCHAR
STARTCHAR 3067
ENCODING 12391
SWIDTH 1000 0
DWIDTH 16 0
BBX 12 12 2 -1
BITMAP
FFF0
0380
0620
0C30
0850
1820
1800
1800
0800
0600
03C0
0040
ENDCHAR
STARTCHAR 3068
ENCODING 12392
SWIDTH 1000 0
DWIDTH 16 0
BBX 9 14 3 -1
BITMAP
1000
1000
1000
1000
1000
1180
1F00
3800
6000
8000
8000
8000
E180
3F80
ENDCHAR
STARTCHAR 3069
ENCODING 12393
SWIDTH 1000 0
DWIDTH 16 0
BBX 11 14 3 -1
BITMAP
1000
1040
11A0
10C0
1000
1180
1F00
3800
6000
8000
8000
8000
E180
3F80
ENDCHAR
STARTCHAR 306A
ENCODING 12394
SWIDTH 1000 0
DWIDTH 16 0
BBX 13 14 2 -1
BITMAP
0800
0800
1800
FEC0
F070
2018
2080
6080
4080
C080
9FC0
10E0
1190
0F00
ENDCHAR
STARTCHAR 306B
ENCODING 12395
SWIDTH 1000 0
DWIDTH 16 0
BBX 12 12 2 0
BITMAP
4000
4000
CFF0
C000
8000
8000
8000
8000
8800
8E00
83F0
C000
ENDCHAR
STARTCHAR 306C
ENCODING 12396
SWIDTH 1000 0
DWIDTH 16 0
BBX 14 13 1 -1
BITMAP
0100
2100
2100
23E0
3F30
3308
3208
5A08
4E08
C4F8
CF9C
78F4
2040
ENDCHAR
STARTCHAR 306D
ENCODING 12397
SWIDTH 1000 0
DWIDTH 16 0
BBX 14 14 1 -1
BITMAP
0800
1800
1800
18E0
7BF0
DE10
1818
3018
3018
50D8
D1F0
111C
11F4
1000
ENDCHAR
STARTCHAR 306E
ENCODING 12398
SWIDTH 1000 0
DWIDTH 16 0
BBX 13 11 2 -1
BITMAP
0FC0
3C60
6630
C410
8410
8418
8C10
8810
8830
7060
21C0
ENDCHAR
STARTCHAR 306F
ENCODING 12399
SWIDTH 1000 0
DWIDTH 16 0
BBX 13 13 2 -1
BITMAP
0080
C080
C080
9FF8
8080
8080
8080
8080
8F80
88E0
98B0
8F80
0600
ENDCHAR
STARTCHAR 3070
ENCODING 12400
SWIDTH 1000 0
DWIDTH 16 0
BBX 13 14 2 -1
BITMAP
0010
00A8
C0B0
C080
9FF8
8080
8080
8080
8080
8F80
88E0
98B0
8F80
0600
ENDCHAR
STARTCHAR 3071
ENCODING 12401
SWIDTH 1000 0
DWIDTH 16 0
BBX 13 14 2 -1
BITMAP
0038
00A8
C0A8
C090
9FF8
8080
8080
8080
8080
8F80
88E0
98B0
8F80
0600
ENDCHAR
STARTCHAR 3072
ENCODING 12402
SWIDTH 1000 0
DWIDTH 16 0
BBX 14 13 1 -1
BITMAP
0040
1C40
F840
1060
1060
2050
2058
204C
2040
2040
30C0
1F80
0600
ENDCHAR
STARTCHAR 3073
ENCODING 12403
SWIDTH 1000 0
DWIDTH 16 0
BBX 14 14 1 -1
BITMAP
0018
0074
1C50
F840
1060
1060
2050
2058
204C
2040
2040
30C0
1F80
0600
ENDCHAR
STARTCHAR 3074
ENCODING 12404
SWIDTH 1000 0
DWIDTH 16 0
BBX 14 14 1 -1
BITMAP
0018
0064
1C54
F848
1060
1060
2050
2058
204C
2040
2040
30C0
1F80
0600
ENDCHAR
STARTCHAR 3075
ENCODING 12405
SWIDTH 1000 0
DWIDTH 16 0
BBX 14 13 1 0
BITMAP
0C00
0780
0000
0800
0800
0C00
0730
1198
3088
6084
C084
8D80
0700
ENDCHAR
STARTCHAR 3076
ENCODING 12406
SWIDTH 1000 0
DWIDTH 16 0
BBX 14 14 1 -1
BITMAP
0010
0C18
07AC
0010
0800
0800
0C00
0730
1198
3088
6084
C084
8D80
0700
ENDCHAR
STARTCHAR 3077
ENCODING 12407
SWIDTH 1000 0
DWIDTH 16 0
BBX 14 13 1 0
BITMAP
0C38
07C8
0038
0800
0800
0C00
0730
1198
3088
6084
C084
8D80
0700
ENDCHAR
STARTCHAR 3078
ENCODING 12408
SWIDTH 1000 0
DWIDTH 16 0
BBX 14 7 1 2
BITMAP
0E00
1B00
3080
6060
C030
0018
0004
ENDCHAR
STARTCHAR 3079
ENCODING 12409
SWIDTH 1000 0
DWIDTH 16 0
BBX 14 9 1 3
BITMAP
0018
0068
0E10
1B00
3180
6060
C030
0018
0004
ENDCHAR
STARTCHAR 307A
ENCODING 12410
SWIDTH 1000 0
DWIDTH 16 0
BBX 14 9 1 2
BITMAP
0038
0048
0E38
1B00
3180
6060
C030
0018
0004
ENDCHAR
STARTCHAR 307B
ENCODING 12411
SWIDTH 1000 0
DWIDTH 16 0
BBX 13 13 1 -1
BITMAP
6010
4FF8
4080
40C0
4FF8
CEC0
C0C0
C0C0
C7C0
CCF0
4CD8
4780
4000
ENDCHAR
STARTCHAR 307C
ENCODING 12412
SWIDTH 1000 0
DWIDTH 16 0
BBX 14 14 1 -1
BITMAP
0008
6034
4FF8
4080
4080
C7F8
CFC0
C0C0
C0C0
C7C0
CCE0
C8D8
4F88
4300
ENDCHAR
STARTCHAR 307D
ENCODING 12413
SWIDTH 1000 0
DWIDTH 16 0
BBX 14 14 1 -1
BITMAP
0018
6024
4FF4
4088
40C0
47FC
4FC0
C040
C040
C7C0
4CF0
48D8
4780
4300
ENDCHAR
STARTCHAR 307E
ENCODING 12414
SWIDTH 1000 0
DWIDTH 16 0
BBX 12 14 2 -1
BITMAP
0200
0200
0200
FFF0
0200
0200
7FF0
0200
0200
1A00
7F80
42E0
6630
3C00
ENDCHAR
STARTCHAR 307F
ENCODING 12415
SWIDTH 1000 0
DWIDTH 16 0
BBX 14 13 1 -1
BITMAP
0700
1D00
0300
0210
0610
1E30
7FF0
4C78
886C
D840
70C0
0080
0100
ENDCHAR
STARTCHAR 3080
ENCODING 12416
SWIDTH 1000 0
DWIDTH 16 0
BBX 14 14 1 -1
BITMAP
0800
0800
0800
7F80
0830
0818
7804
4800
C800
D830
7830
1830
1830
0FE0
ENDCHAR
STARTCHAR 3081
ENCODING 12417
SWIDTH 1000 0
DWIDTH 16 0
BBX 13 13 2 0
BITMAP
0100
6100
6300
2FC0
3A60
7210
5610
D418
9C18
8810
9C30
F060
0180
ENDCHAR
STARTCHAR 3082
ENCODING 12418
SWIDTH 1000 0
DWIDTH 16 0
BBX 10 14 3 -1
BITMAP
1000
1000
1000
1200
FE00
1000
1000
7E40
F040
1040
1040
1040
18C0
0F80
ENDCHAR
STARTCHAR 3083
ENCODING 12419
SWIDTH 1000 0
DWIDTH 16 0
BBX 11 10 2 -1
BITMAP
2200
3200
37C0
3C20
F020
1A60
09C0
0800
0C00
0400
ENDCHAR
STARTCHAR 3084
ENCODING 12420
SWIDTH 1000 0
DWIDTH 16 0
BBX 14 14 1 -1
BITMAP
0100
3100
1100
11F0
17F8
3C08
E80C
8908
09F8
0C60
0400
0400
0600
0200
ENDCHAR
STARTCHAR 3085
ENCODING 12421
SWIDTH 1000 0
DWIDTH 16 0
BBX 10 11 4 -2
BITMAP
0400
0400
CF00
9D80
A4C0
C440
D4C0
9C80
8F80
8C00
1800
ENDCHAR
STARTCHAR 3086
ENCODING 12422
SWIDTH 1000 0
DWIDTH 16 0
BBX 13 14 2 -2
BITMAP
0100
0100
4100
47E0
4D90
5188
F188
E188
C988
4598
43F0
41C0
4300
0600
ENDCHAR
STARTCHAR 3087
ENCODING 12423
SWIDTH 1000 0
DWIDTH 16 0
BBX 9 10 4 0
BITMAP
1800
1800
0800
0F00
0800
0800
7800
FE00
8B80
F880
ENDCHAR
STARTCHAR 3088
ENCODING 12424
SWIDTH 1000 0
DWIDTH 16 0
BBX 11 14 3 -1
BITMAP
0400
0400
0400
0400
07E0
0400
0400
0400
0400
FE00
8780
84E0
F820
7000
ENDCHAR
STARTCHAR 3089
ENCODING 12425
SWIDTH 1000 0
DWIDTH 16 0
BBX 10 13 3 0
BITMAP
7000
0E00
0000
4000
C000
C000
DF80
B0C0
C040
8040
00C0
0180
1F00
ENDCHAR
STARTCHAR 308A
ENCODING 12426
SWIDTH 1000 0
DWIDTH 16 0
BBX 8 14 4 -1
BITMAP
03
41
41
C1
C1
C1
C1
D1
F1
03
02
06
0C
18
ENDCHAR
STARTCHAR 308B
ENCODING 12427
SWIDTH 1000 0
DWIDTH 16 0
BBX 11 13 3 0
BITMAP
7F00
0300
0600
0C00
1A00
3F80
6040
C060
BC60
2460
2240
1B80
0F00
ENDCHAR
STARTCHAR 308C
ENCODING 12428
SWIDTH 1000 0
DWIDTH 16 0
BBX 15 14 1 -1
BITMAP
0800
0800
0800
0800
79C0
DE60
1C60
1860
3840
7840
D846
986C
1838
1800
ENDCHAR
STARTCHAR 308D
ENCODING 12429
SWIDTH 1000 0
DWIDTH 16 0
BBX 11 13 2 -1
BITMAP
3F80
1980
0300
0600
0C00
1F80
3DC0
6020
C020
0020
0060
1FC0
0F00
ENDCHAR
STARTCHAR 308E
ENCODING 12430
SWIDTH 1000 0
DWIDTH 16 0
BBX 10 11 3 -1
BITMAP
3000
3000
3000
F380
BEC0
3040
6040
6040
B0C0
B780
3200
ENDCHAR
STARTCHAR 308F
ENCODING 12431
SWIDTH 1000 0
DWIDTH 16 0
BBX 13 14 2 -1
BITMAP
1800
1000
1000
1800
F9E0
1730
1C18
3008
7008
5018
9030
1060
11C0
1000
ENDCHAR
STARTCHAR 3090
ENCODING 12432
SWIDTH 1000 0
DWIDTH 16 0
BBX 13 13 2 -1
BITMAP
3F00
3E00
0200
0600
0FE0
3C30
6C18
C808
8808
9BC8
9250
F3F0
01C0
ENDCHAR
STARTCHAR 3091
ENCODING 12433
SWIDTH 1000 0
DWIDTH 16 0
BBX 14 14 1 -1
BITMAP
0040
1FC0
0100
0600
0FE0
1830
6710
0930
0FE0
0F80
1830
3CD8
630C
8204
ENDCHAR
STARTCHAR 3092
ENCODING 12434
SWIDTH 1000 0
DWIDTH 16 0
BBX 12 14 2 -1
BITMAP
0400
0400
0FC0
FF00
1800
1000
3E10
73F0
C700
0E00
3200
2200
2000
1FE0
ENDCHAR
STARTCHAR 3093
ENCODING 12435
SWIDTH 1000 0
DWIDTH 16 0
BBX 14 13 1 -1
BITMAP
0200
0600
0400
0C00
0800
1800
160C
3B08
3108
6118
4190
C0F0
0040
ENDCHAR
STARTCHAR 309B
ENCODING 12443
SWIDTH 1000 0
DWIDTH 16 0
BBX 4 3 6 10
BITMAP
60
D0
60
ENDCHAR
STARTCHAR 309C
ENCODING 12444
SWIDTH 1000 0
DWIDTH 16 0
BBX 3 3 11 10
BITMAP
E0
A0
E0
ENDCHAR
STARTCHAR 309D
ENCODING 12445
SWIDTH 1000 0
DWIDTH 16 0
BBX 7 10 5 1
BITMAP
80
80
C0
60
20
10
08
06
3C
60
ENDCHAR
STARTCHAR 309E
ENCODING 12446
SWIDTH 1000 0
DWIDTH 16 0
BBX 8 10 5 1
BITMAP
82
8B
C5
64
20
10
08
06
3C
60
ENDCHAR
STARTCHAR 30A1
ENCODING 12449
SWIDTH 1000 0
DWIDTH 16 0
BBX 10 10 3 -1
BITMAP
FFC0
00C0
0D80
0D00
0E00
0800
0800
1800
3000
2000
ENDCHAR
STARTCHAR 30A2
ENCODING 12450
SWIDTH 1000 0
DWIDTH 16 0
BBX 12 11 2 -1
BITMAP
FFF0
0030
0660
06C0
0580
0400
0400
0400
0800
1800
7000
ENDCHAR
STARTCHAR 30A3
ENCODING 12451
SWIDTH 1000 0
DWIDTH 16 0
BBX 8 10 3 0
BITMAP
01
02
0C
1C
7C
CC
0C
0C
0C
0C
ENDCHAR
STARTCHAR 30A4
ENCODING 12452
SWIDTH 1000 0
DWIDTH 16 0
BBX 11 13 1 -1
BITMAP
0020
0040
00C0
0180
0700
0F00
3300
E300
0300
0300
0300
0300
0300
ENDCHAR
STARTCHAR 30A5
ENCODING 12453
SWIDTH 1000 0
DWIDTH 16 0
BBX 8 11 4 -1
BITMAP
18
18
18
FF
81
81
83
02
06
0C
30
ENDCHAR
STARTCHAR 30A6
ENCODING 12454
SWIDTH 1000 0
DWIDTH 16 0
BBX 10 14 3 -1
BITMAP
0C00
0C00
0C00
FFC0
8040
8040
8040
8040
00C0
0080
0180
0300
0E00
1800
ENDCHAR
STARTCHAR 30A7
ENCODING 12455
SWIDTH 1000 0
DWIDTH 16 0
BBX 10 7 3 0
BITMAP
7F80
0C00
0C00
0C00
0C00
0C00
FFC0
ENDCHAR
STARTCHAR 30A8
ENCODING 12456
SWIDTH 1000 0
DWIDTH 16 0
BBX 13 10 2 1
BITMAP
7FE0
0600
0600
0600
0600
0600
0600
0600
0600
FFF8
ENDCHAR
STARTCHAR 30A9
ENCODING 12457
SWIDTH 1000 0
DWIDTH 16 0
BBX 10 11 3 -1
BITMAP
0600
0600
0600
FFC0
0600
0E00
1E00
3600
E600
8600
0C00
ENDCHAR
STARTCHAR 30AA
ENCODING 12458
SWIDTH 1000 0
DWIDTH 16 0
BBX 14 14 1 -1
BITMAP
0180
0180
0180
0180
FFFC
0380
0380
0780
0D80
1980
6180
C180
0180
0700
ENDCHAR
STARTCHAR 30AB
ENCODING 12459
SWIDTH 1000 0
DWIDTH 16 0
BBX 11 14 2 -1
BITMAP
0400
0400
0400
0400
FFE0
0420
0420
0C20
0820
0820
1020
3060
61C0
8000
ENDCHAR
STARTCHAR 30AC
ENCODING 12460
SWIDTH 1000 0
DWIDTH 16 0
BBX 13 14 2 -1
BITMAP
0410
0458
0428
0420
FFE0
0420
0420
0C20
0820
0820
1020
3060
61C0
8000
ENDCHAR
STARTCHAR 30AD
ENCODING 12461
SWIDTH 1000 0
DWIDTH 16 0
BBX 13 14 1 -1
BITMAP
0400
0400
0400
07E0
7F00
0200
0200
0278
FFC0
C300
0100
0100
0100
0180
ENDCHAR
STARTCHAR 30AE
ENCODING 12462
SWIDTH 1000 0
DWIDTH 16 0
BBX 14 14 1 -1
BITMAP
0400
0428
0414
07E0
7F00
0200
0200
0278
FFC0
C300
0100
0100
0100
0180
ENDCHAR
STARTCHAR 30AF
ENCODING 12463
SWIDTH 1000 0
DWIDTH 16 0
BBX 10 13 2 -1
BITMAP
0800
1800
1FC0
3040
20C0
40C0
C080
0180
0100
0200
0C00
1800
3000
ENDCHAR
STARTCHAR 30B0
ENCODING 12464
SWIDTH 1000 0
DWIDTH 16 0
BBX 13 14 2 -1
BITMAP
0010
0850
1828
1FE0
3040
20C0
40C0
C080
0180
0100
0200
0C00
1800
3000
ENDCHAR
STARTCHAR 30B1
ENCODING 12465
SWIDTH 1000 0
DWIDTH 16 0
BBX 12 14 2 -1
BITMAP
1000
1000
1000
3000
3FF0
6080
4180
8100
8100
0300
0200
0600
0C00
1800
ENDCHAR
STARTCHAR 30B2
ENCODING 12466
SWIDTH 1000 0
DWIDTH 16 0
BBX 13 14 2 -1
BITMAP
1010
1058
1028
3000
3FF0
6080
4180
8100
8100
0300
0200
0600
0C00
1800
ENDCHAR
STARTCHAR 30B3
ENCODING 12467
SWIDTH 1000 0
DWIDTH 16 0
BBX 10 9 2 0
BITMAP
FFC0
0040
0040
0040
0040
0040
0040
FFC0
0040
ENDCHAR
STARTCHAR 30B4
ENCODING 12468
SWIDTH 1000 0
DWIDTH 16 0
BBX 13 12 2 1
BITMAP
0050
0068
0020
FFC0
0040
0040
0040
0040
0040
0040
FFC0
0040
ENDCHAR
STARTCHAR 30B5
ENCODING 12469
SWIDTH 1000 0
DWIDTH 16 0
BBX 14 14 1 -1
BITMAP
0040
1040
1040
1040
FFFC
FFFC
1040
1040
1040
00C0
0080
0180
0300
0C00
ENDCHAR
STARTCHAR 30B6
ENCODING 12470
SWIDTH 1000 0
DWIDTH 16 0
BBX 14 14 1 -1
BITMAP
0048
1054
1048
1048
FFFC
FFFC
1040
1040
1040
00C0
0080
0180
0300
0C00
ENDCHAR
STARTCHAR 30B7
ENCODING 12471
SWIDTH 1000 0
DWIDTH 16 0
BBX 12 12 2 -1
BITMAP
2000
3000
0800
0000
C030
6020
2060
00C0
0180
0700
1C00
7000
ENDCHAR
STARTCHAR 30B8
ENCODING 12472
SWIDTH 1000 0
DWIDTH 16 0
BBX 12 13 2 -1
BITMAP
00C0
2160
3080
0800
0000
C030
6020
2060
00C0
0180
0700
1C00
7000
ENDCHAR
STARTCHAR 30B9
ENCODING 12473
SWIDTH 1000 0
DWIDTH 16 0
BBX 12 11 2 0
BITMAP
7F80
0080
0180
0100
0300
0600
0F00
1980
30C0
6060
C030
ENDCHAR
STARTCHAR 30BA
ENCODING 12474
SWIDTH 1000 0
DWIDTH 16 0
BBX 13 13 2 0
BITMAP
0010
0038
7FA8
0080
0180
0100
0300
0600
0F00
1980
30C0
6060
C030
ENDCHAR
STARTCHAR 30BB
ENCODING 12475
SWIDTH 1000 0
DWIDTH 16 0
BBX 13 12 1 0
BITMAP
0C00
0C00
0C00
0C38
3FF0
FC30
0C20
0C40
0C40
0C00
0C00
07F0
ENDCHAR
STARTCHAR 30BC
ENCODING 12476
SWIDTH 1000 0
DWIDTH 16 0
BBX 13 13 1 0
BITMAP
0010
0C28
0C30
0C10
0C38
3FF0
FC30
0C20
0C40
0C40
0C00
0C00
07F0
ENDCHAR
STARTCHAR 30BD
ENCODING 12477
SWIDTH 1000 0
DWIDTH 16 0
BBX 10 11 2 -1
BITMAP
8040
4040
6040
20C0
0080
0080
0100
0300
0600
1C00
1000
ENDCHAR
STARTCHAR 30BE
ENCODING 12478
SWIDTH 1000 0
DWIDTH 16 0
BBX 12 14 2 -1
BITMAP
0020
0050
0070
8060
4040
6040
20C0
0080
0080
0100
0300
0600
1C00
1000
ENDCHAR
STARTCHAR 30BF
ENCODING 12479
SWIDTH 1000 0
DWIDTH 16 0
BBX 10 14 2 -1
BITMAP
0800
0800
1800
1FC0
3040
20C0
4880
CD80
0300
0380
06C0
0C00
1800
3000
ENDCHAR
STARTCHAR 30C0
ENCODING 12480
SWIDTH 1000 0
DWIDTH 16 0
BBX 13 14 2 -1
BITMAP
0810
0850
1828
1FC0
3040
20C0
4880
CD80
0300
0380
06C0
0C00
1800
3000
ENDCHAR
STARTCHAR 30C1
ENCODING 12481
SWIDTH 1000 0
DWIDTH 16 0
BBX 14 13 1 -1
BITMAP
0030
3FE0
3100
0100
0100
FFFC
0100
0100
0300
0200
0600
0C00
1800
ENDCHAR
STARTCHAR 30C2
ENCODING 12482
SWIDTH 1000 0
DWIDTH 16 0
BBX 14 14 1 -1
BITMAP
0008
0054
3FF8
3100
0100
0100
FFFC
0100
0100
0300
0200
0600
0C00
1800
ENDCHAR
STARTCHAR 30C3
ENCODING 12483
SWIDTH 1000 0
DWIDTH 16 0
BBX 9 9 3 0
BITMAP
9880
4880
4C80
0180
0100
0300
0600
1C00
3000
ENDCHAR
STARTCHAR 30C4
ENCODING 12484
SWIDTH 1000 0
DWIDTH 16 0
BBX 12 12 2 -1
BITMAP
1830
8820
CC20
4420
6060
0040
0040
0080
0180
0700
1C00
3000
ENDCHAR
STARTCHAR 30C5
ENCODING 12485
SWIDTH 1000 0
DWIDTH 16 0
BBX 13 13 2 0
BITMAP
0050
1868
8800
CC20
4420
6060
0040
00C0
0080
0180
0700
1C00
3000
ENDCHAR
STARTCHAR 30C6
ENCODING 12486
SWIDTH 1000 0
DWIDTH 16 0
BBX 13 12 1 -1
BITMAP
3FE0
0000
0000
FFF8
FFF8
0300
0200
0200
0200
0600
0C00
0800
ENDCHAR
STARTCHAR 30C7
ENCODING 12487
SWIDTH 1000 0
DWIDTH 16 0
BBX 14 14 1 -1
BITMAP
0008
003C
3FD4
0000
0000
FFF8
FFF8
0300
0200
0200
0200
0600
0C00
0800
ENDCHAR
STARTCHAR 30C8
ENCODING 12488
SWIDTH 1000 0
DWIDTH 16 0
BBX 7 14 6 -1
BITMAP
80
80
80
80
80
C0
B0
9C
86
80
80
80
80
80
ENDCHAR
STARTCHAR 30C9
ENCODING 12489
SWIDTH 1000 0
DWIDTH 16 0
BBX 8 14 6 -1
BITMAP
80
86
8B
84
80
C0
B0
9C
86
80
80
80
80
80
ENDCHAR
STARTCHAR 30CA
ENCODING 12490
SWIDTH 1000 0
DWIDTH 16 0
BBX 14 14 1 -1
BITMAP
0100
0100
0100
0100
01FC
FFFC
0100
0100
0100
0300
0200
0600
0C00
1800
ENDCHAR
STARTCHAR 30CB
ENCODING 12491
SWIDTH 1000 0
DWIDTH 16 0
BBX 13 8 2 2
BITMAP
7FE0
0000
0000
0000
0000
0000
0000
FFF8
ENDCHAR
STARTCHAR 30CC
ENCODING 12492
SWIDTH 1000 0
DWIDTH 16 0
BBX 12 11 2 0
BITMAP
7FE0
0040
0040
10C0
1D80
0700
0300
06C0
1860
7030
C000
ENDCHAR
STARTCHAR 30CD
ENCODING 12493
SWIDTH 1000 0
DWIDTH 16 0
BBX 13 14 2 -1
BITMAP
0600
0600
0600
7FC0
00C0
0180
0300
0E00
1EC0
7670
C618
0600
0600
0600
ENDCHAR
STARTCHAR 30CE
ENCODING 12494
SWIDTH 1000 0
DWIDTH 16 0
BBX 9 12 3 0
BITMAP
0080
0180
0100
0100
0300
0200
0600
0400
0C00
1800
3000
C000
ENDCHAR
STARTCHAR 30CF
ENCODING 12495
SWIDTH 1000 0
DWIDTH 16 0
BBX 13 9 1 1
BITMAP
0C80
0840
1860
1020
3030
2010
6018
C008
0008
ENDCHAR
STARTCHAR 30D0
ENCODING 12496
SWIDTH 1000 0
DWIDTH 16 0
BBX 14 11 1 1
BITMAP
0008
0034
0C90
0840
1860
1020
3030
2010
6018
C008
0008
ENDCHAR
STARTCHAR 30D1
ENCODING 12497
SWIDTH 1000 0
DWIDTH 16 0
BBX 14 11 1 1
BITMAP
003C
0024
0C98
0840
1860
1020
3030
2010
6018
C008
0008
ENDCHAR
STARTCHAR 30D2
ENCODING 12498
SWIDTH 1000 0
DWIDTH 16 0
BBX 10 12 3 0
BITMAP
C000
C000
C000
C080
CF80
F800
C000
C000
C000
C000
4000
7FC0
ENDCHAR
STARTCHAR 30D3
ENCODING 12499
SWIDTH 1000 0
DWIDTH 16 0
BBX 12 13 3 0
BITMAP
0040
C0A0
C0D0
C040
C080
CF80
F800
C000
C000
C000
C000
4000
7FC0
ENDCHAR
STARTCHAR 30D4
ENCODING 12500
SWIDTH 1000 0
DWIDTH 16 0
BBX 12 12 3 0
BITMAP
C0E0
C090
C060
C080
CF80
F800
C000
C000
C000
C000
4000
7FC0
ENDCHAR
STARTCHAR 30D5
ENCODING 12501
SWIDTH 1000 0
DWIDTH 16 0
BBX 11 10 2 -1
BITMAP
FFE0
0060
0060
0040
00C0
0080
0180
0300
0E00
7800
ENDCHAR
STARTCHAR 30D6
ENCODING 12502
SWIDTH 1000 0
DWIDTH 16 0
BBX 13 13 2 -1
BITMAP
0010
0078
0038
FFC0
00C0
0080
0080
0180
0100
0300
0600
0C00
7800
ENDCHAR
STARTCHAR 30D7
ENCODING 12503
SWIDTH 1000 0
DWIDTH 16 0
BBX 13 13 2 -1
BITMAP
0038
0028
0028
FFD0
00C0
0080
0080
0180
0100
0300
0600
0C00
7800
ENDCHAR
STARTCHAR 30D8
ENCODING 12504
SWIDTH 1000 0
DWIDTH 16 0
BBX 14 8 1 2
BITMAP
0400
0E00
1900
3080
6060
C030
0018
000C
ENDCHAR
STARTCHAR 30D9
ENCODING 12505
SWIDTH 1000 0
DWIDTH 16 0
BBX 14 10 1 2
BITMAP
0010
0058
0428
0E00
1900
3080
6060
C030
0018
000C
ENDCHAR
STARTCHAR 30DA
ENCODING 12506
SWIDTH 1000 0
DWIDTH 16 0
BBX 14 10 1 2
BITMAP
0030
0048
0448
0E30
1900
3080
6060
C030
0018
000C
ENDCHAR
STARTCHAR 30DB
ENCODING 12507
SWIDTH 1000 0
DWIDTH 16 0
BBX 13 14 2 -1
BITMAP
0600
0600
0600
0600
FFF8
0600
0600
36C0
2660
6620
C610
8618
8600
0600
ENDCHAR
STARTCHAR 30DC
ENCODING 12508
SWIDTH 1000 0
DWIDTH 16 0
BBX 13 14 2 -1
BITMAP
0600
0650
0628
0620
FFF8
0600
0600
36C0
2660
6620
C610
8618
8600
0600
ENDCHAR
STARTCHAR 30DD
ENCODING 12509
SWIDTH 1000 0
DWIDTH 16 0
BBX 13 14 2 -1
BITMAP
0630
0650
0650
0620
FFF8
0600
0600
36C0
2660
6620
C610
8618
8600
0600
ENDCHAR
STARTCHAR 30DE
ENCODING 12510
SWIDTH 1000 0
DWIDTH 16 0
BBX 12 10 2 0
BITMAP
FFF0
0030
0060
00C0
3180
1B00
0600
0200
0100
0180
ENDCHAR
STARTCHAR 30DF
ENCODING 12511
SWIDTH 1000 0
DWIDTH 16 0
BBX 8 12 4 0
BITMAP
80
FC
07
00
80
F8
0F
00
00
F0
1F
01
ENDCHAR
STARTCHAR 30E0
ENCODING 12512
SWIDTH 1000 0
DWIDTH 16 0
BBX 14 12 1 0
BITMAP
0300
0200
0200
0600
0400
0400
0C40
0860
0830
1010
FFF8
000C
ENDCHAR
STARTCHAR 30E1
ENCODING 12513
SWIDTH 1000 0
DWIDTH 16 0
BBX 10 12 3 -1
BITMAP
0180
0100
0100
0300
3200
1E00
0700
0D80
18C0
3000
6000
C000
ENDCHAR
STARTCHAR 30E2
ENCODING 12514
SWIDTH 1000 0
DWIDTH 16 0
BBX 14 11 1 0
BITMAP
7FF0
0200
0200
0200
FFFC
0200
0200
0200
0200
0200
03F8
ENDCHAR
STARTCHAR 30E3
ENCODING 12515
SWIDTH 1000 0
DWIDTH 16 0
BBX 11 10 2 0
BITMAP
1800
0820
0FE0
FC40
0CC0
0580
0400
0600
0200
0200
ENDCHAR
STARTCHAR 30E4
ENCODING 12516
SWIDTH 1000 0
DWIDTH 16 0
BBX 14 14 1 -1
BITMAP
0800
0800
0800
0C08
07FC
FE18
0430
0660
0200
0200
0200
0300
0100
0100
ENDCHAR
STARTCHAR 30E5
ENCODING 12517
SWIDTH 1000 0
DWIDTH 16 0
BBX 10 7 3 0
BITMAP
7F00
0300
0300
0200
0200
0200
FFC0
ENDCHAR
STARTCHAR 30E6
ENCODING 12518
SWIDTH 1000 0
DWIDTH 16 0
BBX 14 9 1 1
BITMAP
3FC0
0040
0040
0040
0040
0040
0040
0040
FFFC
ENDCHAR
STARTCHAR 30E7
ENCODING 12519
SWIDTH 1000 0
DWIDTH 16 0
BBX 7 9 4 -1
BITMAP
FE
FE
02
02
7E
02
02
FE
02
ENDCHAR
STARTCHAR 30E8
ENCODING 12520
SWIDTH 1000 0
DWIDTH 16 0
BBX 10 11 3 0
BITMAP
FFC0
00C0
00C0
00C0
00C0
7FC0
00C0
00C0
00C0
FFC0
00C0
ENDCHAR
STARTCHAR 30E9
ENCODING 12521
SWIDTH 1000 0
DWIDTH 16 0
BBX 12 13 2 -1
BITMAP
3FE0
0000
0000
0000
FFF0
0020
0020
0060
0040
00C0
0180
0600
0C00
ENDCHAR
STARTCHAR 30EA
ENCODING 12522
SWIDTH 1000 0
DWIDTH 16 0
BBX 8 14 4 -1
BITMAP
01
81
81
81
81
81
81
81
83
02
02
04
18
30
ENDCHAR
STARTCHAR 30EB
ENCODING 12523
SWIDTH 1000 0
DWIDTH 16 0
BBX 14 12 1 0
BITMAP
0100
1900
1900
1900
1900
1900
1904
110C
1118
3160
61C0
C100
ENDCHAR
STARTCHAR 30EC
ENCODING 12524
SWIDTH 1000 0
DWIDTH 16 0
BBX 11 12 3 0
BITMAP
8000
8000
8000
8000
8000
8060
80C0
8180
8300
8E00
F800
C000
ENDCHAR
STARTCHAR 30ED
ENCODING 12525
SWIDTH 1000 0
DWIDTH 16 0
BBX 10 10 3 1
BITMAP
FFC0
FFC0
C0C0
C0C0
C0C0
C0C0
C0C0
C0C0
FFC0
C0C0
ENDCHAR
STARTCHAR 30EE
ENCODING 12526
SWIDTH 1000 0
DWIDTH 16 0
BBX 8 10 4 -1
BITMAP
FF
FF
81
81
83
02
02
0C
18
30
ENDCHAR
STARTCHAR 30EF
ENCODING 12527
SWIDTH 1000 0
DWIDTH 16 0
BBX 10 12 3 -1
BITMAP
FFC0
8040
8040
8040
8040
80C0
0080
0080
0100
0300
0E00
1800
ENDCHAR
STARTCHAR 30F0
ENCODING 12528
SWIDTH 1000 0
DWIDTH 16 0
BBX 14 14 1 -1
BITMAP
0180
0180
0180
0180
7FF8
0980
0980
0980
0980
FFFC
0180
0180
0180
0180
ENDCHAR
STARTCHAR 30F1
ENCODING 12529
SWIDTH 1000 0
DWIDTH 16 0
BBX 14 10 1 1
BITMAP
3FF0
3FF0
0030
0360
03C0
0380
0300
0300
0300
FFFC
ENDCHAR
STARTCHAR 30F2
ENCODING 12530
SWIDTH 1000 0
DWIDTH 16 0
BBX 12 12 2 -1
BITMAP
FFF0
FFF0
0030
0020
7FE0
7FE0
0040
00C0
0180
0300
0E00
3800
ENDCHAR
STARTCHAR 30F3
ENCODING 12531
SWIDTH 1000 0
DWIDTH 16 0
BBX 12 11 2 0
BITMAP
E000
3000
1810
0030
0020
0040
00C0
0180
0600
3C00
6000
ENDCHAR
STARTCHAR 30F4
ENCODING 12532
SWIDTH 1000 0
DWIDTH 16 0
BBX 13 14 2 -1
BITMAP
0030
0458
0420
0400
FFE0
8020
8060
8040
8040
00C0
0080
0100
0600
1C00
ENDCHAR
STARTCHAR 30F5
ENCODING 12533
SWIDTH 1000 0
DWIDTH 16 0
BBX 8 11 4 -1
BITMAP
18
18
18
FF
FF
11
11
31
21
E1
86
ENDCHAR
STARTCHAR 30F6
ENCODING 12534
SWIDTH 1000 0
DWIDTH 16 0
BBX 10 10 3 -1
BITMAP
1000
3000
3FC0
6200
C200
8600
0400
0C00
1800
1000
ENDCHAR
STARTCHAR 30FC
ENCODING 12540
SWIDTH 1000 0
DWIDTH 16 0
BBX 12 1 2 5
BITMAP
FFF0
ENDCHAR
STARTCHAR 30FD
ENCODING 12541
SWIDTH 1000 0
DWIDTH 16 0
BBX 5 5 6 3
BITMAP
80
C0
60
30
18
ENDCHAR
STARTCHAR 30FE
ENCODING 12542
SWIDTH 1000 0
DWIDTH 16 0
BBX 7 8 6 2
BITMAP
04
06
0A
84
C0
60
30
18
ENDCHAR
STARTCHAR 3105
ENCODING 12549
SWIDTH 1000 0
DWIDTH 16 0
BBX 10 13 3 -1
BITMAP
6000
4000
C000
FFC0
0040
0040
0040
0040
0040
0040
00C0
0780
0700
ENDCHAR
STARTCHAR 3106
ENCODING 12550
SWIDTH 1000 0
DWIDTH 16 0
BBX 10 13 3 -1
BITMAP
1000
2000
6000
7FC0
00C0
0080
7180
1B00
0600
0F80
38C0
E040
8000
ENDCHAR
STARTCHAR 3107
ENCODING 12551
SWIDTH 1000 0
DWIDTH 16 0
BBX 10 10 3 1
BITMAP
FFC0
FFC0
8040
8040
8040
8040
8040
8040
8040
8040
ENDCHAR
STARTCHAR 3108
ENCODING 12552
SWIDTH 1000 0
DWIDTH 16 0
BBX 11 10 3 1
BITMAP
FFE0
C000
C000
C000
C000
C000
C000
C000
C000
7FE0
ENDCHAR
STARTCHAR 3109
ENCODING 12553
SWIDTH 1000 0
DWIDTH 16 0
BBX 11 12 2 -1
BITMAP
1000
2000
6000
7FE0
0620
0420
0420
0C20
0820
1820
3060
E3C0
ENDCHAR
STARTCHAR 310A
ENCODING 12554
SWIDTH 1000 0
DWIDTH 16 0
BBX 12 12 2 0
BITMAP
0600
0600
0600
FFF0
0400
0400
0800
1980
10C0
3040
7FE0
0030
ENDCHAR
STARTCHAR 310B
ENCODING 12555
SWIDTH 1000 0
DWIDTH 16 0
BBX 11 12 3 0
BITMAP
FE00
FE00
0600
0400
0C00
0FE0
0060
0040
0040
0040
0040
07C0
ENDCHAR
STARTCHAR 310C
ENCODING 12556
SWIDTH 1000 0
DWIDTH 16 0
BBX 11 13 2 -1
BITMAP
2200
2200
6200
7FE0
7FE0
0420
0420
0C20
1820
1060
6040
C3C0
0180
ENDCHAR
STARTCHAR 310D
ENCODING 12557
SWIDTH 1000 0
DWIDTH 16 0
BBX 10 12 3 -1
BITMAP
18C0
1080
3180
2300
4200
C600
8400
4600
6300
3100
1180
18C0
ENDCHAR
STARTCHAR 310E
ENCODING 12558
SWIDTH 1000 0
DWIDTH 16 0
BBX 12 12 2 0
BITMAP
FFF0
FFF0
0800
1800
1FC0
1FC0
0040
0040
0040
0040
00C0
0780
ENDCHAR
STARTCHAR 310F
ENCODING 12559
SWIDTH 1000 0
DWIDTH 16 0
BBX 13 12 1 0
BITMAP
3FF8
3FF8
1000
1000
1000
1000
1000
3000
3000
2000
6000
C000
ENDCHAR
STARTCHAR 3110
ENCODING 12560
SWIDTH 1000 0
DWIDTH 16 0
BBX 6 13 5 -1
BITMAP
04
C4
C4
C4
C4
C4
CC
FC
84
04
04
04
04
ENDCHAR
STARTCHAR 3111
ENCODING 12561
SWIDTH 1000 0
DWIDTH 16 0
BBX 6 12 5 -1
BITMAP
0C
18
10
20
60
C0
80
40
60
30
18
08
ENDCHAR
STARTCHAR 3112
ENCODING 12562
SWIDTH 1000 0
DWIDTH 16 0
BBX 12 12 2 -1
BITMAP
FFF0
0600
0600
0600
0600
0600
0600
0600
0600
0600
0600
0600
ENDCHAR
STARTCHAR 3113
ENCODING 12563
SWIDTH 1000 0
DWIDTH 16 0
BBX 12 12 2 0
BITMAP
0600
0600
6620
6620
6620
6620
6620
7FE0
6620
0600
0600
FFF0
ENDCHAR
STARTCHAR 3114
ENCODING 12564
SWIDTH 1000 0
DWIDTH 16 0
BBX 10 13 2 -1
BITMAP
0180
0300
0600
1CC0
3180
6300
0600
1C00
3400
C400
0400
0400
0400
ENDCHAR
STARTCHAR 3115
ENCODING 12565
SWIDTH 1000 0
DWIDTH 16 0
BBX 12 12 2 -1
BITMAP
3FF0
2030
2030
3FF0
3FF0
2000
2000
6000
6000
4000
C000
8000
ENDCHAR
STARTCHAR 3116
ENCODING 12566
SWIDTH 1000 0
DWIDTH 16 0
BBX 8 11 4 0
BITMAP
FF
81
81
A1
B9
8D
85
81
81
FF
81
ENDCHAR
STARTCHAR 3117
ENCODING 12567
SWIDTH 1000 0
DWIDTH 16 0
BBX 10 12 3 -1
BITMAP
FFC0
1040
1040
1040
1040
10C0
10C0
1380
1000
1000
1000
1000
ENDCHAR
STARTCHAR 3118
ENCODING 12568
SWIDTH 1000 0
DWIDTH 16 0
BBX 12 13 2 -1
BITMAP
0600
0400
0400
FFF0
0800
1800
1FC0
1FC0
00C0
0080
0180
0300
0200
ENDCHAR
STARTCHAR 3119
ENCODING 12569
SWIDTH 1000 0
DWIDTH 16 0
BBX 12 11 2 1
BITMAP
0600
0400
0400
0800
0800
1800
1180
30C0
2040
FFE0
4030
ENDCHAR
STARTCHAR 311A
ENCODING 12570
SWIDTH 1000 0
DWIDTH 16 0
BBX 10 13 3 -1
BITMAP
8040
40C0
2080
3100
1A00
0600
0C00
0C00
0C00
0C00
0C00
0C00
0C00
ENDCHAR
STARTCHAR 311B
ENCODING 12571
SWIDTH 1000 0
DWIDTH 16 0
BBX 12 11 2 0
BITMAP
FFF0
0200
0200
0E00
3800
2000
6000
6000
2040
39C0
0F00
ENDCHAR
STARTCHAR 311C
ENCODING 12572
SWIDTH 1000 0
DWIDTH 16 0
BBX 12 12 2 0
BITMAP
0200
0200
0200
FFF0
0200
0E00
3E00
2000
6000
6000
30C0
1F80
ENDCHAR
STARTCHAR 311D
ENCODING 12573
SWIDTH 1000 0
DWIDTH 16 0
BBX 12 12 2 0
BITMAP
10C0
10C0
10C0
10C0
FFF0
10C0
1080
1080
1080
1000
1000
1FE0
ENDCHAR
STARTCHAR 311E
ENCODING 12574
SWIDTH 1000 0
DWIDTH 16 0
BBX 12 13 2 -1
BITMAP
FFF0
0200
2200
6200
6200
7FE0
0420
0C20
0860
1840
6040
C0C0
0080
ENDCHAR
STARTCHAR 311F
ENCODING 12575
SWIDTH 1000 0
DWIDTH 16 0
BBX 13 11 2 0
BITMAP
1800
7800
C800
0C00
0400
0600
0200
0100
00C0
0070
0018
ENDCHAR
STARTCHAR 3120
ENCODING 12576
SWIDTH 1000 0
DWIDTH 16 0
BBX 10 13 3 -1
BITMAP
0800
1800
1100
2100
6300
FE00
FC00
0C00
1980
3080
7FC0
F040
0040
ENDCHAR
STARTCHAR 3121
ENCODING 12577
SWIDTH 1000 0
DWIDTH 16 0
BBX 12 11 2 -1
BITMAP
7FC0
0040
00C0
6080
3980
0D00
0700
0580
18C0
3030
E010
ENDCHAR
STARTCHAR 3122
ENCODING 12578
SWIDTH 1000 0
DWIDTH 16 0
BBX 12 12 2 -1
BITMAP
FFC0
0040
1040
30C0
2000
3FF0
0030
0020
0020
0060
0040
0040
ENDCHAR
STARTCHAR 3123
ENCODING 12579
SWIDTH 1000 0
DWIDTH 16 0
BBX 10 13 3 -1
BITMAP
4000
4000
4000
C000
8000
FFC0
0040
0040
0040
00C0
0080
0080
0080
ENDCHAR
STARTCHAR 3124
ENCODING 12580
SWIDTH 1000 0
DWIDTH 16 0
BBX 12 13 2 -1
BITMAP
0400
0400
0400
7FF0
0500
0500
0D00
0900
1900
3100
6100
C1F0
8000
ENDCHAR
STARTCHAR 3125
ENCODING 12581
SWIDTH 1000 0
DWIDTH 16 0
BBX 11 11 3 0
BITMAP
0C00
0800
0800
1000
1000
3000
2000
6000
C000
FFE0
FFE0
ENDCHAR
STARTCHAR 3126
ENCODING 12582
SWIDTH 1000 0
DWIDTH 16 0
BBX 12 12 2 0
BITMAP
0980
0980
0980
0980
0980
1980
1980
1180
1180
3180
6180
C0F0
ENDCHAR
STARTCHAR 3127
ENCODING 12583
SWIDTH 1000 0
DWIDTH 16 0
BBX 13 1 2 5
BITMAP
FFF8
ENDCHAR
STARTCHAR 3128
ENCODING 12584
SWIDTH 1000 0
DWIDTH 16 0
BBX 11 11 2 1
BITMAP
00C0
4080
3080
1900
0F00
0300
0780
0CC0
1860
6020
C020
ENDCHAR
STARTCHAR 3129
ENCODING 12585
SWIDTH 1000 0
DWIDTH 16 0
BBX 10 11 3 0
BITMAP
8040
8040
8040
8040
8040
8040
8040
8040
FFC0
FFC0
0040
ENDCHAR
STARTCHAR 3220
ENCODING 12832
SWIDTH 1000 0
DWIDTH 16 0
BBX 16 15 0 -2
BITMAP
2004
4004
4002
4002
8002
8001
8001
BFFD
8001
8001
8002
4002
4002
4004
2004
ENDCHAR
STARTCHAR 3221
ENCODING 12833
SWIDTH 1000 0
DWIDTH 16 0
BBX 16 15 0 -2
BITMAP
2004
4004
4002
5FF2
8002
8001
8001
8001
8001
8001
8002
5FFA
4002
4004
2004
ENDCHAR
STARTCHAR 3222
ENCODING 12834
SWIDTH 1000 0
DWIDTH 16 0
BBX 16 15 0 -2
BITMAP
2004
4004
4002
5FFA
8002
8001
8001
8FF1
8001
8001
8002
5FFA
4002
4004
2004
ENDCHAR
STARTCHAR 3223
ENCODING 12835
SWIDTH 1000 0
DWIDTH 16 0
BBX 16 15 0 -2
BITMAP
2004
4004
4002
5FFA
924A
9249
9249
9249
9479
9809
900A
5FFA
500A
4004
2004
ENDCHAR
STARTCHAR 3224
ENCODING 12836
SWIDTH 1000 0
DWIDTH 16 0
BBX 16 15 0 -2
BITMAP
2004
4004
4002
4FF2
8202
8201
9FF1
8211
8411
8411
8422
7FFA
4002
4004
2004
ENDCHAR
STARTCHAR 3225
ENCODING 12837
SWIDTH 1000 0
DWIDTH 16 0
BBX 16 15 0 -2
BITMAP
2004
4004
4102
4082
8002
9FF9
8001
8041
8421
8421
8812
500A
5002
4004
2004
ENDCHAR
STARTCHAR 3226
ENCODING 12838
SWIDTH 1000 0
DWIDTH 16 0
BBX 16 15 0 -2
BITMAP
2004
4004
4202
4202
8202
8279
BF81
8201
8201
8209
820A
43D2
4022
4004
2004
ENDCHAR
STARTCHAR 3227
ENCODING 12839
SWIDTH 1000 0
DWIDTH 16 0
BBX 16 15 0 -2
BITMAP
2004
4004
4242
4242
8242
8241
8241
8421
8421
8C31
8812
500E
4002
4004
2004
ENDCHAR
STARTCHAR 3228
ENCODING 12840
SWIDTH 1000 0
DWIDTH 16 0
BBX 16 15 0 -2
BITMAP
2004
4004
4202
4202
9FE2
8221
8221
8221
8221
8429
8C2A
582A
4012
4004
2004
ENDCHAR
STARTCHAR 3229
ENCODING 12841
SWIDTH 1000 0
DWIDTH 16 0
BBX 16 15 0 -2
BITMAP
2004
4004
4102
4102
8102
8101
9FF9
8101
8101
8101
8102
4102
4102
4004
2004
ENDCHAR
STARTCHAR 3231
ENCODING 12849
SWIDTH 1000 0
DWIDTH 16 0
BBX 14 14 1 -1
BITMAP
4008
5088
9284
93F4
BA84
9084
9BF4
B0C4
B1C4
91A4
92B4
9494
5088
4008
ENDCHAR
STARTCHAR 32A3
ENCODING 12963
SWIDTH 1000 0
DWIDTH 16 0
BBX 16 15 0 -2
BITMAP
07E0
1818
2004
4FFA
4082
8C82
8C81
8CF1
8C81
4C82
4C82
3FFA
2004
1818
07E0
ENDCHAR
STARTCHAR 338E
ENCODING 13198
SWIDTH 1000 0
DWIDTH 16 0
BBX 14 11 1 -2
BITMAP
A434
FE7C
D2CC
92C4
92C4
92C4
924C
9274
9204
004C
0078
ENDCHAR
STARTCHAR 338F
ENCODING 13199
SWIDTH 1000 0
DWIDTH 16 0
BBX 12 14 2 -2
BITMAP
8000
8000
8000
88D0
99F0
B330
E210
E210
E330
B130
99D0
8830
0120
01E0
ENDCHAR
STARTCHAR 339C
ENCODING 13212
SWIDTH 1000 0
DWIDTH 16 0
BBX 16 9 0 0
BITMAP
F6E6
7EFE
5BDB
5BDB
5BDB
5BDB
5BDB
5BDB
5BDB
ENDCHAR
STARTCHAR 339D
ENCODING 13213
SWIDTH 1000 0
DWIDTH 16 0
BBX 14 9 1 0
BITMAP
3148
79FC
CD24
8124
8124
8124
CD24
C924
7924
ENDCHAR
STARTCHAR 339E
ENCODING 13214
SWIDTH 1000 0
DWIDTH 16 0
BBX 14 12 1 0
BITMAP
C000
C000
C000
CF58
D9F8
F16C
E16C
E16C
F16C
D16C
D96C
C96C
ENDCHAR
STARTCHAR 33A1
ENCODING 13217
SWIDTH 1000 0
DWIDTH 16 0
BBX 14 14 1 0
BITMAP
0018
002C
0008
0010
003C
1100
FFC0
C440
C440
C440
C440
C440
C440
C440
ENDCHAR
STARTCHAR 33C4
ENCODING 13252
SWIDTH 1000 0
DWIDTH 16 0
BBX 12 9 2 0
BITMAP
3060
F8F0
8910
8100
8100
8100
8910
C990
70E0
ENDCHAR
STARTCHAR 33CE
ENCODING 13262
SWIDTH 1000 0
DWIDTH 16 0
BBX 12 12 2 0
BITMAP
8E10
9B10
9330
B3B0
A2D0
C2D0
C250
E210
B210
9210
9A10
8A10
ENDCHAR
STARTCHAR 33D1
ENCODING 13265
SWIDTH 1000 0
DWIDTH 16 0
BBX 10 12 3 0
BITMAP
8000
8000
8000
8100
8FC0
8840
8840
8840
8840
8840
8840
8840
ENDCHAR
STARTCHAR 33D2
ENCODING 13266
SWIDTH 1000 0
DWIDTH 16 0
BBX 14 14 1 -2
BITMAP
8000
8000
8000
8C34
9E7C
B344
A3C4
A3C4
A344
A34C
B23C
9E04
004C
0078
ENDCHAR
STARTCHAR 33D5
ENCODING 13269
SWIDTH 1000 0
DWIDTH 16 0
BBX 14 12 1 0
BITMAP
0064
0064
0004
0004
FF64
D964
9964
9964
9964
9964
9964
9964
ENDCHAR
STARTCHAR 3447
ENCODING 13383
SWIDTH 1000 0
DWIDTH 16 0
BBX 15 15 0 -2
BITMAP
0880
19FC
11FC
3208
3610
77FE
77FE
F002
3002
33FE
3002
3002
3002
37FE
3002
ENDCHAR
STARTCHAR 3473
ENCODING 13427
SWIDTH 1000 0
DWIDTH 16 0
BBX 15 15 0 -2
BITMAP
1900
13FE
1442
2E52
23F2
6042
639C
A500
23FE
2642
2E4A
23FA
2042
2082
271C
ENDCHAR
STARTCHAR 359E
ENCODING 13726
SWIDTH 1000 0
DWIDTH 16 0
BBX 14 15 1 -2
BITMAP
03F8
F208
9208
9208
93F8
9248
9040
97FC
9444
9444
F4B4
951C
8404
0404
043C
ENDCHAR
STARTCHAR 360E
ENCODING 13838
SWIDTH 1000 0
DWIDTH 16 0
BBX 14 15 1 -2
BITMAP
0400
E6FC
A024
ABA4
A924
AFFC
AAD4
AB94
AAB4
ABB4
EAD4
AFB4
88EC
08C4
0838
ENDCHAR
STARTCHAR 361A
ENCODING 13850
SWIDTH 1000 0
DWIDTH 16 0
BBX 14 15 1 -2
BITMAP
0FBC
E8A4
AFBC
A8A4
AF1C
ABA4
A93C
AAD4
ABD4
AAB4
EBB4
AAD4
8FAC
08CC
081C
ENDCHAR
STARTCHAR 3918
ENCODING 14616
SWIDTH 1000 0
DWIDTH 16 0
BBX 15 15 0 -2
BITMAP
2040
20FC
2084
7908
6E18
63FE
A002
2002
2002
23FE
2002
2002
2002
23FE
2002
ENDCHAR
STARTCHAR 396E
ENCODING 14702
SWIDTH 1000 0
DWIDTH 16 0
BBX 15 15 0 -2
BITMAP
3100
31FE
3242
7F4A
79FA
F042
B38E
3280
31FE
3242
354A
31FA
3042
3182
371C
ENDCHAR
STARTCHAR 39CF
ENCODING 14799
SWIDTH 1000 0
DWIDTH 16 0
BBX 15 15 0 -2
BITMAP
33FE
3202
3202
FA8A
3292
3252
3272
3A22
F272
B252
329A
338A
3202
3206
623C
ENDCHAR
STARTCHAR 39D0
ENCODING 14800
SWIDTH 1000 0
DWIDTH 16 0
BBX 16 15 0 -2
BITMAP
2000
27FE
2052
F892
2492
2292
2292
3996
E114
218C
238C
22CC
2656
2C33
E820
ENDCHAR
STARTCHAR 39DF
ENCODING 14815
SWIDTH 1000 0
DWIDTH 16 0
BBX 16 15 0 -2
BITMAP
2200
237F
2140
F840
2040
2640
2240
3840
E040
2140
2340
2240
2240
267F
E47F
ENDCHAR
STARTCHAR 3A73
ENCODING 14963
SWIDTH 1000 0
DWIDTH 16 0
BBX 16 15 0 -2
BITMAP
2294
2294
27FE
FEB4
23DE
2294
23DE
3A94
E3DA
2000
23FC
218C
2070
20F8
E707
ENDCHAR
STARTCHAR 3B4E
ENCODING 15182
SWIDTH 1000 0
DWIDTH 16 0
BBX 15 15 0 -2
BITMAP
1000
13FE
1202
FE8E
32CA
325A
3A72
5E32
5232
D25A
92CA
128A
1202
1202
121C
ENDCHAR
STARTCHAR 3C6E
ENCODING 15470
SWIDTH 1000 0
DWIDTH 16 0
BBX 16 15 0 -2
BITMAP
0020
7DFE
2122
2122
39FE
4820
4BFF
4800
A9FE
1902
1122
3122
2078
41CE
4703
ENDCHAR
STARTCHAR 3CE0
ENCODING 15584
SWIDTH 1000 0
DWIDTH 16 0
BBX 15 15 1 -2
BITMAP
4820
6420
2420
01FC
8020
DC20
4420
0470
0458
44CC
4584
C504
CE00
9BFE
90FC
ENDCHAR
STARTCHAR 4056
ENCODING 16470
SWIDTH 1000 0
DWIDTH 16 0
BBX 15 15 1 -2
BITMAP
0040
F248
9150
97FC
F0E0
9150
9248
9C44
F080
97FE
9310
93A0
F0E0
81B8
0E04
ENDCHAR
STARTCHAR 415F
ENCODING 16735
SWIDTH 1000 0
DWIDTH 16 0
BBX 16 15 0 -2
BITMAP
0060
78C8
1184
11FA
FC20
33FF
3888
398C
5267
5598
9030
10C6
1118
10E0
1380
ENDCHAR
STARTCHAR 4337
ENCODING 17207
SWIDTH 1000 0
DWIDTH 16 0
BBX 15 15 0 -2
BITMAP
1020
3020
2020
47FE
4A22
FA22
1222
2222
63FE
7E22
0222
0222
7E22
C3FE
0202
ENDCHAR
STARTCHAR 43AC
ENCODING 17324
SWIDTH 1000 0
DWIDTH 16 0
BBX 16 15 0 -2
BITMAP
11FE
114A
FD4A
114A
7DFE
1020
1020
FDFE
3020
3820
5FFF
5448
9084
11FE
1002
ENDCHAR
STARTCHAR 43B1
ENCODING 17329
SWIDTH 1000 0
DWIDTH 16 0
BBX 16 15 0 -2
BITMAP
13FE
1252
7A52
13FE
7990
1156
13F9
F831
33DE
3A50
5FD2
525C
93D1
9253
12CE
ENDCHAR
STARTCHAR 43DD
ENCODING 17373
SWIDTH 1000 0
DWIDTH 16 0
BBX 16 15 0 -2
BITMAP
0020
7C60
45FE
4440
7C40
47FF
4480
4480
7CFE
4406
440C
45C8
4470
4418
980C
ENDCHAR
STARTCHAR 44D6
ENCODING 17622
SWIDTH 1000 0
DWIDTH 16 0
BBX 16 15 0 -2
BITMAP
0C30
FFFF
0C30
0DB0
7FFE
4002
4E72
730E
4202
3FFC
020C
060C
0C08
3818
60F0
ENDCHAR
STARTCHAR 464C
ENCODING 17996
SWIDTH 1000 0
DWIDTH 16 0
BBX 16 15 0 -2
BITMAP
2020
11FE
0122
F922
19FE
1020
23FF
7800
F9FE
2D02
2122
2122
2070
21CE
2302
ENDCHAR
STARTCHAR 4661
ENCODING 18017
SWIDTH 1000 0
DWIDTH 16 0
BBX 15 15 0 -2
BITMAP
2020
13FE
0222
FBFE
1820
13DE
23FE
7A02
6BFE
AA02
23FE
2202
23FE
21DC
2706
ENDCHAR
STARTCHAR 4723
ENCODING 18211
SWIDTH 1000 0
DWIDTH 16 0
BBX 16 15 0 -2
BITMAP
2002
33FE
1A00
0200
0200
E200
23FF
2218
2218
2A18
3A18
3218
2418
0C18
0818
ENDCHAR
STARTCHAR 4729
ENCODING 18217
SWIDTH 1000 0
DWIDTH 16 0
BBX 16 15 0 -2
BITMAP
4090
27FE
3090
02F8
0298
EEEE
22A8
22A8
22A9
2EEE
2A80
3AA4
3492
2492
0892
ENDCHAR
STARTCHAR 477C
ENCODING 18300
SWIDTH 1000 0
DWIDTH 16 0
BBX 16 15 0 -2
BITMAP
0020
7FFE
4420
45FE
7C20
47FF
4400
7DFE
4502
45FE
7D02
01FE
6902
4506
813C
ENDCHAR
STARTCHAR 478D
ENCODING 18317
SWIDTH 1000 0
DWIDTH 16 0
BBX 16 15 0 -2
BITMAP
0010
7DFF
4410
55FE
5410
55FF
5400
55FE
5582
55FE
1182
39FE
2D82
4782
C19C
ENDCHAR
STARTCHAR 4947
ENCODING 18759
SWIDTH 1000 0
DWIDTH 16 0
BBX 15 15 0 -2
BITMAP
1020
2BFE
2B02
4702
FBFE
1302
13EE
7F22
13AA
5666
5A22
5AFE
1622
FE22
04EE
ENDCHAR
STARTCHAR 497A
ENCODING 18810
SWIDTH 1000 0
DWIDTH 16 0
BBX 16 15 0 -2
BITMAP
2000
23FF
7C08
4108
4108
BB08
33FF
3018
FC28
3068
30C8
3D88
3B08
3608
0078
ENDCHAR
STARTCHAR 497D
ENCODING 18813
SWIDTH 1000 0
DWIDTH 16 0
BBX 16 15 0 -2
BITMAP
2060
214C
7E40
43FF
4040
B880
30FC
3184
FD84
3348
3258
3830
3870
31CC
0306
ENDCHAR
STARTCHAR 4982
ENCODING 18818
SWIDTH 1000 0
DWIDTH 16 0
BBX 15 15 0 -2
BITMAP
2020
23FE
7E02
4202
43FE
BA02
12EE
1222
FEAA
12AA
1222
1EEE
1B22
3422
04EE
ENDCHAR
STARTCHAR 4983
ENCODING 18819
SWIDTH 1000 0
DWIDTH 16 0
BBX 16 15 0 -2
BITMAP
2088
23FF
7C88
4020
41FA
B82C
13FF
1060
FD80
13FE
1102
1DFE
1902
31FE
0102
ENDCHAR
STARTCHAR 4985
ENCODING 18821
SWIDTH 1000 0
DWIDTH 16 0
BBX 16 15 0 -2
BITMAP
208C
2088
7FFE
4020
C1FE
F820
23FF
2124
FFFF
2000
21FE
2902
3902
31FE
0102
ENDCHAR
STARTCHAR 4986
ENCODING 18822
SWIDTH 1000 0
DWIDTH 16 0
BBX 16 15 0 -2
BITMAP
23DE
2252
7FDE
43DE
C3DE
F920
21FE
23FE
F920
21FC
21FE
2BFC
3888
3070
078F
ENDCHAR
STARTCHAR 499B
ENCODING 18843
SWIDTH 1000 0
DWIDTH 16 0
BBX 14 15 1 -2
BITMAP
FCFC
8484
FCFC
8484
FCFC
8C04
9BC4
BFE4
8324
BFF4
8324
9FE4
8304
8E0C
8038
ENDCHAR
STARTCHAR 499F
ENCODING 18847
SWIDTH 1000 0
DWIDTH 16 0
BBX 14 15 1 -2
BITMAP
FCFC
8484
FCFC
8484
FCFC
8304
8B44
9B64
B794
8304
9FE4
8304
BFF4
800C
8038
ENDCHAR
STARTCHAR 49B6
ENCODING 18870
SWIDTH 1000 0
DWIDTH 16 0
BBX 14 15 1 -2
BITMAP
6000
37FC
0604
8FC4
98C4
B084
9FE4
8224
BFF4
8224
9FE4
8224
8204
8E0C
8038
ENDCHAR
STARTCHAR 49B7
ENCODING 18871
SWIDTH 1000 0
DWIDTH 16 0
BBX 14 15 1 -2
BITMAP
6000
37FC
0004
8B24
9344
9B64
B794
A394
9FE4
8304
8304
BFF4
8004
800C
8078
ENDCHAR
STARTCHAR 4C77
ENCODING 19575
SWIDTH 1000 0
DWIDTH 16 0
BBX 16 15 0 -2
BITMAP
0810
0F10
7FA0
48BF
5EA2
4F62
4862
5F24
7F94
5294
5F98
5288
5D94
DAA6
A442
ENDCHAR
STARTCHAR 4C9F
ENCODING 19615
SWIDTH 1000 0
DWIDTH 16 0
BBX 15 15 0 -2
BITMAP
3040
3DDE
4912
C912
7D12
55D2
5512
7D12
5512
5512
7D12
41DE
0710
F810
0010
ENDCHAR
STARTCHAR 4CA1
ENCODING 19617
SWIDTH 1000 0
DWIDTH 16 0
BBX 16 15 0 -2
BITMAP
20C4
3C6C
49FF
4828
7C28
55FE
552A
7D4A
554E
5582
7DFE
4502
0102
FFFE
0102
ENDCHAR
STARTCHAR 4CA2
ENCODING 19618
SWIDTH 1000 0
DWIDTH 16 0
BBX 16 15 0 -2
BITMAP
0124
792C
4BFE
4840
4BFE
7888
4B46
4EFA
4910
7BEC
49FC
4924
49FC
4800
BBFF
ENDCHAR
STARTCHAR 4CA3
ENCODING 19619
SWIDTH 1000 0
DWIDTH 16 0
BBX 16 15 0 -2
BITMAP
0810
0F10
7FA0
48BF
5EA2
4F62
4862
5F34
6214
5D94
5F88
5498
5BB4
C1E2
BE40
ENDCHAR
STARTCHAR 4CAD
ENCODING 19629
SWIDTH 1000 0
DWIDTH 16 0
BBX 16 15 0 -2
BITMAP
3030
3DFE
4420
48FE
7E20
5220
53FF
7E44
52FE
5387
7E84
42FC
0084
FEFC
0084
ENDCHAR
STARTCHAR 4D13
ENCODING 19731
SWIDTH 1000 0
DWIDTH 16 0
BBX 15 15 0 -2
BITMAP
FF30
18FE
18C2
18F2
7EDA
5AC6
5ADC
5AC0
5AFE
5A02
5AFA
5E02
5C02
183E
183C
ENDCHAR
STARTCHAR 4D14
ENCODING 19732
SWIDTH 1000 0
DWIDTH 16 0
BBX 14 15 1 -2
BITMAP
3060
11FC
FF84
01A4
69B4
458C
87B8
4D80
49FC
3804
13F4
3804
6C04
C47C
8078
ENDCHAR
STARTCHAR 4D15
ENCODING 19733
SWIDTH 1000 0
DWIDTH 16 0
BBX 14 15 1 -2
BITMAP
FF0C
104C
3F4C
C34C
B60C
1A38
E200
3FF0
2E10
22E0
3FFC
0004
FFE4
000C
0078
ENDCHAR
STARTCHAR 4D16
ENCODING 19734
SWIDTH 1000 0
DWIDTH 16 0
BBX 15 15 0 -2
BITMAP
1830
FFFE
1882
7EB2
1892
FF86
009C
7E80
42FE
7E02
43FA
7E02
4202
423E
4E3C
ENDCHAR
STARTCHAR 4D17
ENCODING 19735
SWIDTH 1000 0
DWIDTH 16 0
BBX 15 15 0 -2
BITMAP
0010
7E7E
4242
7E52
425A
7E46
425C
7E40
0C7E
0A02
FFFE
1802
3402
6306
401C
ENDCHAR
STARTCHAR 4D18
ENCODING 19736
SWIDTH 1000 0
DWIDTH 16 0
BBX 15 15 0 -2
BITMAP
0F98
703E
47A2
443A
5FAA
54A2
5F3C
54A0
573E
5002
577E
5902
6902
A982
A81C
ENDCHAR
STARTCHAR 4D19
ENCODING 19737
SWIDTH 1000 0
DWIDTH 16 0
BBX 15 15 0 -2
BITMAP
0108
793E
4FE2
486A
4AAE
7AA2
46EC
4120
793E
6902
6BFE
6902
A902
B902
291C
ENDCHAR
STARTCHAR 4DAE
ENCODING 19886
SWIDTH 1000 0
DWIDTH 16 0
BBX 16 15 0 -2
BITMAP
0230
7FFE
0240
045E
0CE2
37C2
603C
0000
7FFE
0100
7FFF
0180
0660
1C38
F00F
ENDCHAR
STARTCHAR 4E00
ENCODING 19968
SWIDTH 1000 0
DWIDTH 16 0
BBX 16 2 0 5
BITMAP
FFFF
FFFF
ENDCHAR
STARTCHAR 4E01
ENCODING 19969
SWIDTH 1000 0
DWIDTH 16 0
BBX 16 14 0 -2
BITMAP
FFFF
0080
0080
0080
0080
0080
0080
0080
0080
0080
0080
0080
0F80
0F00
ENDCHAR
STARTCHAR 4E02
ENCODING 19970
SWIDTH 1000 0
DWIDTH 16 0
BBX 16 14 0 -2
BITMAP
FFFF
0800
0800
1800
1800
1FFC
000C
000C
000C
0008
0008
0008
03F8
03F0
ENDCHAR
STARTCHAR 4E03
ENCODING 19971
SWIDTH 1000 0
DWIDTH 16 0
BBX 15 15 0 -2
BITMAP
0200
0200
0200
0200
020E
3FFC
FA00
0200
0200
0200
0202
0202
0202
03FE
01F8
ENDCHAR
STARTCHAR 4E04
ENCODING 19972
SWIDTH 1000 0
DWIDTH 16 0
BBX 16 14 0 -1
BITMAP
0180
0180
0180
0180
0180
0180
0180
0180
0180
0180
0180
0180
0180
FFFF
ENDCHAR
STARTCHAR 4E05
ENCODING 19973
SWIDTH 1000 0
DWIDTH 16 0
BBX 16 14 0 -2
BITMAP
FFFF
0180
0180
0180
0180
0180
0180
0180
0180
0180
0180
0180
0180
0180
ENDCHAR
STARTCHAR 4E06
ENCODING 19974
SWIDTH 1000 0
DWIDTH 16 0
BBX 14 14 1 -2
BITMAP
FFFC
0300
0300
0300
0300
0200
0200
0600
0600
0C00
1800
3000
E000
8000
ENDCHAR
STARTCHAR 4E07
ENCODING 19975
SWIDTH 1000 0
DWIDTH 16 0
BBX 16 14 0 -2
BITMAP
FFFF
0600
0600
0400
07FC
07FC
040C
040C
0C08
0808
1808
3008
61F8
41F0
ENDCHAR
STARTCHAR 4E08
ENCODING 19976
SWIDTH 1000 0
DWIDTH 16 0
BBX 16 15 0 -2
BITMAP
0060
0060
0060
FFFF
0060
1060
0840
0C40
0440
06C0
0380
03C0
0E70
781F
6006
ENDCHAR
STARTCHAR 4E09
ENCODING 19977
SWIDTH 1000 0
DWIDTH 16 0
BBX 16 13 0 -1
BITMAP
7FFE
7FFE
0000
0000
0000
0000
3FFC
0000
0000
0000
0000
0000
FFFF
ENDCHAR
STARTCHAR 4E0A
ENCODING 19978
SWIDTH 1000 0
DWIDTH 16 0
BBX 16 14 0 -1
BITMAP
0100
0100
0100
0100
0100
01FC
0100
0100
0100
0100
0100
0100
0100
FFFF
ENDCHAR
STARTCHAR 4E0B
ENCODING 19979
SWIDTH 1000 0
DWIDTH 16 0
BBX 16 14 0 -2
BITMAP
FFFF
0100
0100
0100
01C0
0170
0118
010E
0104
0100
0100
0100
0100
0100
ENDCHAR
STARTCHAR 4E0C
ENCODING 19980
SWIDTH 1000 0
DWIDTH 16 0
BBX 16 14 0 -2
BITMAP
FFFF
0810
0810
0810
0810
0810
0810
0810
0810
1810
1810
3010
6010
4010
ENDCHAR
STARTCHAR 4E0D
ENCODING 19981
SWIDTH 1000 0
DWIDTH 16 0
BBX 16 14 0 -2
BITMAP
7FFE
00C0
0180
0100
0380
07A0
0DB8
198C
7187
C180
0180
0180
0180
0180
ENDCHAR
STARTCHAR 4E0E
ENCODING 19982
SWIDTH 1000 0
DWIDTH 16 0
BBX 16 15 0 -2
BITMAP
1800
1800
1FFF
1000
1000
1000
1FFC
0004
0004
FFF4
FFF4
0004
0004
01DC
01F8
ENDCHAR
STARTCHAR 4E0F
ENCODING 19983
SWIDTH 1000 0
DWIDTH 16 0
BBX 14 14 1 -2
BITMAP
FFFC
0200
4200
43FC
420C
420C
420C
7FFC
000C
000C
0008
0008
0018
01F0
ENDCHAR
STARTCHAR 4E10
ENCODING 19984
SWIDTH 1000 0
DWIDTH 16 0
BBX 14 14 1 -2
BITMAP
FFFC
0200
4200
43F8
4200
4200
4200
7FF8
0008
0008
0008
0008
0118
01F0
ENDCHAR
STARTCHAR 4E11
ENCODING 19985
SWIDTH 1000 0
DWIDTH 16 0
BBX 16 13 0 -1
BITMAP
7FF8
0608
0608
0408
0408
7FF8
0408
0408
0408
0408
0C18
0C18
FFFF
ENDCHAR
STARTCHAR 4E12
ENCODING 19986
SWIDTH 1000 0
DWIDTH 16 0
BBX 15 13 1 -1
BITMAP
FFF8
0408
0408
4408
7C08
0F08
0988
1808
3018
E1F0
0000
0000
FFFE
ENDCHAR
STARTCHAR 4E13
ENCODING 19987
SWIDTH 1000 0
DWIDTH 16 0
BBX 16 15 0 -2
BITMAP
0300
0200
7FFE
0600
0400
FFFF
0800
0800
1FFC
000C
0018
0E20
03C0
00E0
0030
ENDCHAR
STARTCHAR 4E14
ENCODING 19988
SWIDTH 1000 0
DWIDTH 16 0
BBX 16 13 0 -1
BITMAP
3FFC
300C
300C
300C
3FFC
300C
300C
300C
3FFC
300C
300C
300C
FFFF
ENDCHAR
STARTCHAR 4E15
ENCODING 19989
SWIDTH 1000 0
DWIDTH 16 0
BBX 15 13 0 -1
BITMAP
7FFE
0180
0100
0380
07A0
0DB0
199C
3186
E182
0180
0180
0000
7FFE
ENDCHAR
STARTCHAR 4E16
ENCODING 19990
SWIDTH 1000 0
DWIDTH 16 0
BBX 16 14 0 -1
BITMAP
0108
3108
3108
3108
FFFF
3108
3108
3108
3108
31F8
3108
3000
3000
3FFE
ENDCHAR
STARTCHAR 4E17
ENCODING 19991
SWIDTH 1000 0
DWIDTH 16 0
BBX 16 15 0 -2
BITMAP
0180
2184
2184
2184
2184
FFFF
2184
2184
2184
2184
2184
2184
2184
3FFC
2004
ENDCHAR
STARTCHAR 4E18
ENCODING 19992
SWIDTH 1000 0
DWIDTH 16 0
BBX 16 14 0 -1
BITMAP
001C
1FF8
1000
1000
1000
1000
1FFE
1020
1020
1020
1020
1020
1020
FFFF
ENDCHAR
STARTCHAR 4E19
ENCODING 19993
SWIDTH 1000 0
DWIDTH 16 0
BBX 16 14 0 -2
BITMAP
FFFF
0180
0180
3FFC
2184
2104
2184
2264
2634
3C1C
2004
2004
2004
203C
ENDCHAR
STARTCHAR 4E1A
ENCODING 19994
SWIDTH 1000 0
DWIDTH 16 0
BBX 16 14 0 -1
BITMAP
0660
0660
0660
4662
6666
2664
3664
366C
1668
1678
0660
0660
0660
FFFF
ENDCHAR
STARTCHAR 4E1B
ENCODING 19995
SWIDTH 1000 0
DWIDTH 16 0
BBX 16 14 0 -1
BITMAP
0820
0820
0820
0820
0820
0830
0C30
1E70
1348
30CC
2184
6307
4202
FFFF
ENDCHAR
STARTCHAR 4E1C
ENCODING 19996
SWIDTH 1000 0
DWIDTH 16 0
BBX 16 15 0 -2
BITMAP
0400
0C00
FFFF
1800
1080
3080
2080
3FFE
0080
0090
1898
308C
6086
C183
0780
ENDCHAR
STARTCHAR 4E1D
ENCODING 19997
SWIDTH 1000 0
DWIDTH 16 0
BBX 16 14 0 -1
BITMAP
0810
1830
1020
3246
26CC
7DF8
0818
1830
1020
26CE
7CF8
0000
0000
FFFF
ENDCHAR
STARTCHAR 4E1E
ENCODING 19998
SWIDTH 1000 0
DWIDTH 16 0
BBX 16 13 0 -1
BITMAP
3FFC
0030
00C0
7CC6
04CC
0CB0
08B0
1098
208C
C083
0780
0000
FFFF
ENDCHAR
STARTCHAR 4E1F
ENCODING 19999
SWIDTH 1000 0
DWIDTH 16 0
BBX 16 14 0 -2
BITMAP
7FFE
0180
0180
0180
7FFE
0180
0180
FFFF
0300
0620
0C30
1818
3FFC
2006
ENDCHAR
STARTCHAR 4E20
ENCODING 20000
SWIDTH 1000 0
DWIDTH 16 0
BBX 15 14 1 -1
BITMAP
0C80
0C80
0C8C
FC98
FCE0
0C80
0C80
0C84
3C84
CC8C
0CF8
0C00
0000
FFFE
ENDCHAR
STARTCHAR 4E21
ENCODING 20001
SWIDTH 1000 0
DWIDTH 16 0
BBX 16 14 0 -2
BITMAP
FFFF
0180
0180
7FFE
6186
6996
6996
6996
6996
6FF6
6006
6006
6006
603C
ENDCHAR
STARTCHAR 4E22
ENCODING 20002
SWIDTH 1000 0
DWIDTH 16 0
BBX 16 15 0 -2
BITMAP
0004
3FFC
0180
0180
0180
7FFE
0180
0180
FFFF
0300
0620
0C30
1818
3FFC
2006
ENDCHAR
STARTCHAR 4E23
ENCODING 20003
SWIDTH 1000 0
DWIDTH 16 0
BBX 14 14 1 -2
BITMAP
FFFC
08C0
08C0
F8FC
88C4
88C4
88C4
F8FC
08C4
08C0
18C0
30C0
60C0
40C0
ENDCHAR
STARTCHAR 4E24
ENCODING 20004
SWIDTH 1000 0
DWIDTH 16 0
BBX 16 14 0 -2
BITMAP
FFFF
0420
0420
7FFE
6426
6466
6446
6F66
69D6
788E
7186
6006
6006
603C
ENDCHAR
STARTCHAR 4E25
ENCODING 20005
SWIDTH 1000 0
DWIDTH 16 0
BBX 16 14 0 -2
BITMAP
7FFF
2264
3264
1A68
0260
3FFF
2000
2000
2000
2000
6000
4000
4000
8000
ENDCHAR
STARTCHAR 4E26
ENCODING 20006
SWIDTH 1000 0
DWIDTH 16 0
BBX 16 14 0 -1
BITMAP
0818
0C30
0460
7FFE
0660
0660
6666
2664
2664
366C
1668
1668
0660
FFFF
ENDCHAR
STARTCHAR 4E27
ENCODING 20007
SWIDTH 1000 0
DWIDTH 16 0
BBX 16 15 0 -2
BITMAP
0180
7FFE
0180
318C
1998
09B0
0180
FFFF
1104
118C
10B0
1060
1330
1F1F
1802
ENDCHAR
STARTCHAR 4E28
ENCODING 20008
SWIDTH 1000 0
DWIDTH 16 0
BBX 2 15 7 -2
BITMAP
C0
C0
C0
C0
C0
C0
C0
C0
C0
C0
C0
C0
C0
C0
C0
ENDCHAR
STARTCHAR 4E29
ENCODING 20009
SWIDTH 1000 0
DWIDTH 16 0
BBX 6 15 5 -2
BITMAP
04
04
84
84
84
84
84
84
8C
BC
E4
84
04
04
04
ENDCHAR
STARTCHAR 4E2A
ENCODING 20010
SWIDTH 1000 0
DWIDTH 16 0
BBX 15 15 1 -2
BITMAP
0300
0700
0480
0CC0
1860
7338
C30E
8304
0300
0300
0300
0300
0300
0300
0300
ENDCHAR
STARTCHAR 4E2B
ENCODING 20011
SWIDTH 1000 0
DWIDTH 16 0
BBX 14 15 1 -2
BITMAP
C008
601C
3030
1860
08C0
0300
0300
0300
0300
0300
0300
0300
0300
0300
0300
ENDCHAR
STARTCHAR 4E2C
ENCODING 20012
SWIDTH 1000 0
DWIDTH 16 0
BBX 7 15 4 -2
BITMAP
06
46
46
66
36
16
06
06
1E
76
E6
86
06
06
06
ENDCHAR
STARTCHAR 4E2D
ENCODING 20013
SWIDTH 1000 0
DWIDTH 16 0
BBX 14 15 1 -2
BITMAP
0300
0300
0300
FFFC
C30C
C30C
C30C
C30C
FFFC
C30C
0300
0300
0300
0300
0300
ENDCHAR
STARTCHAR 4E2E
ENCODING 20014
SWIDTH 1000 0
DWIDTH 16 0
BBX 16 14 0 -2
BITMAP
7FF8
0408
0408
0408
FFC8
0408
0408
0408
FFE8
0408
0409
040B
040F
0406
ENDCHAR
STARTCHAR 4E2F
ENCODING 20015
SWIDTH 1000 0
DWIDTH 16 0
BBX 13 15 2 -2
BITMAP
0660
06C0
0700
3E00
6670
06C0
0700
3E08
6630
06E0
0780
1E00
F600
0600
0600
ENDCHAR
STARTCHAR 4E30
ENCODING 20016
SWIDTH 1000 0
DWIDTH 16 0
BBX 16 15 0 -2
BITMAP
0180
0180
7FFE
0180
0180
0180
3FFC
0180
0180
0180
FFFF
0180
0180
0180
0180
ENDCHAR
STARTCHAR 4E31
ENCODING 20017
SWIDTH 1000 0
DWIDTH 16 0
BBX 14 15 1 -2
BITMAP
08C0
88C4
88C4
88C4
88C4
88C4
88C4
B8FC
E8C4
08C0
18C0
10C0
30C0
60C0
C0C0
ENDCHAR
STARTCHAR 4E32
ENCODING 20018
SWIDTH 1000 0
DWIDTH 16 0
BBX 14 15 1 -2
BITMAP
0300
0300
7FF8
4308
4308
7FF8
0300
FFFC
FFFC
C30C
C30C
FFFC
C30C
0300
0300
ENDCHAR
STARTCHAR 4E33
ENCODING 20019
SWIDTH 1000 0
DWIDTH 16 0
BBX 14 15 1 -2
BITMAP
0480
7FF8
7FF8
4488
7FF8
4488
0480
FFFC
8484
8484
FFFC
8884
1880
3080
6080
ENDCHAR
STARTCHAR 4E34
ENCODING 20020
SWIDTH 1000 0
DWIDTH 16 0
BBX 15 15 1 -2
BITMAP
1180
9100
93FE
9200
9660
9430
9000
93FC
9244
9244
9244
9244
9244
93FC
1204
ENDCHAR
STARTCHAR 4E35
ENCODING 20021
SWIDTH 1000 0
DWIDTH 16 0
BBX 16 15 0 -2
BITMAP
2244
3244
1A48
0240
7FFF
0810
0430
7FFE
0180
0180
FFFF
FFFF
0180
0180
0180
ENDCHAR
STARTCHAR 4E36
ENCODING 20022
SWIDTH 1000 0
DWIDTH 16 0
BBX 6 6 2 3
BITMAP
40
E0
60
30
18
0C
ENDCHAR
STARTCHAR 4E37
ENCODING 20023
SWIDTH 1000 0
DWIDTH 16 0
BBX 11 5 3 6
BITMAP
8060
C040
4080
6180
3300
ENDCHAR
STARTCHAR 4E38
ENCODING 20024
SWIDTH 1000 0
DWIDTH 16 0
BBX 15 15 1 -2
BITMAP
0C00
0C00
0C00
FFE0
0C60
0860
C860
7860
1860
1E60
1366
3066
6066
C07C
8038
ENDCHAR
STARTCHAR 4E39
ENCODING 20025
SWIDTH 1000 0
DWIDTH 16 0
BBX 16 15 0 -2
BITMAP
1FF8
1008
1008
1108
1188
1088
1008
FFFF
1008
1008
1008
3008
2008
6008
4078
ENDCHAR
STARTCHAR 4E3A
ENCODING 20026
SWIDTH 1000 0
DWIDTH 16 0
BBX 14 15 1 -2
BITMAP
6200
3200
1200
0200
FFFC
060C
060C
048C
04CC
0C6C
180C
1008
3008
E1F8
C1F0
ENDCHAR
STARTCHAR 4E3B
ENCODING 20027
SWIDTH 1000 0
DWIDTH 16 0
BBX 16 14 0 -1
BITMAP
0100
0180
0000
7FFE
0180
0180
0180
3FFC
0180
0180
0180
0180
0180
FFFF
ENDCHAR
STARTCHAR 4E3C
ENCODING 20028
SWIDTH 1000 0
DWIDTH 16 0
BBX 16 15 0 -2
BITMAP
0810
0810
7FFE
7FFE
0810
0910
0890
0850
0810
FFFF
0810
1810
1010
3010
6010
ENDCHAR
STARTCHAR 4E3D
ENCODING 20029
SWIDTH 1000 0
DWIDTH 16 0
BBX 16 14 0 -2
BITMAP
FFFF
0000
7E7E
4242
4242
5252
5252
4A52
4A4A
4242
4242
4242
4246
5E5C
ENDCHAR
STARTCHAR 4E3E
ENCODING 20030
SWIDTH 1000 0
DWIDTH 16 0
BBX 16 15 0 -2
BITMAP
210C
1198
1890
0000
FFFF
0DB0
1998
318C
EFF7
0180
0180
7FFE
0180
0180
0180
ENDCHAR
STARTCHAR 4E3F
ENCODING 20031
SWIDTH 1000 0
DWIDTH 16 0
BBX 6 15 4 -2
BITMAP
04
04
04
04
04
04
04
04
0C
0C
08
18
30
E0
C0
ENDCHAR
STARTCHAR 4E40
ENCODING 20032
SWIDTH 1000 0
DWIDTH 16 0
BBX 14 13 1 -1
BITMAP
0400
1C00
7600
C200
0200
0300
0180
0080
00C0
0060
0030
001C
0004
ENDCHAR
STARTCHAR 4E41
ENCODING 20033
SWIDTH 1000 0
DWIDTH 16 0
BBX 13 14 2 -2
BITMAP
FF80
0080
0080
0080
0080
0080
0080
0080
00C0
0040
0060
0030
0018
0008
ENDCHAR
STARTCHAR 4E42
ENCODING 20034
SWIDTH 1000 0
DWIDTH 16 0
BBX 14 14 1 -2
BITMAP
6018
2010
2030
3030
1020
1860
0840
0CC0
0780
0300
0FC0
1C70
F03C
C00C
ENDCHAR
STARTCHAR 4E43
ENCODING 20035
SWIDTH 1000 0
DWIDTH 16 0
BBX 14 14 1 -2
BITMAP
FFF0
1830
1820
1860
1840
107C
1004
1004
1004
3004
200C
600C
C1F8
81F0
ENDCHAR
STARTCHAR 4E44
ENCODING 20036
SWIDTH 1000 0
DWIDTH 16 0
BBX 13 15 1 -2
BITMAP
0040
0040
0040
00C0
10C0
18C0
0680
0380
01C0
0160
8338
8208
8C00
D800
7000
ENDCHAR
STARTCHAR 4E45
ENCODING 20037
SWIDTH 1000 0
DWIDTH 16 0
BBX 14 15 1 -2
BITMAP
0800
1800
1FC0
3040
20C0
60C0
C080
0180
0380
06C0
0C40
1820
3038
E00C
8004
ENDCHAR
STARTCHAR 4E46
ENCODING 20038
SWIDTH 1000 0
DWIDTH 16 0
BBX 15 15 1 -2
BITMAP
0080
10C0
3080
2080
2080
6180
7F00
6180
0280
0640
0460
1830
3018
E00E
8004
ENDCHAR
STARTCHAR 4E47
ENCODING 20039
SWIDTH 1000 0
DWIDTH 16 0
BBX 16 14 0 -2
BITMAP
3FFC
3F00
0100
0100
0100
017F
FFF8
0100
0100
0102
0102
0102
01FE
00F8
ENDCHAR
STARTCHAR 4E48
ENCODING 20040
SWIDTH 1000 0
DWIDTH 16 0
BBX 14 15 1 -2
BITMAP
0300
0600
0400
0C60
18C0
30C0
6180
C300
8620
0430
0810
1818
307C
7FFC
0004
ENDCHAR
STARTCHAR 4E49
ENCODING 20041
SWIDTH 1000 0
DWIDTH 16 0
BBX 15 15 1 -2
BITMAP
0600
6210
2310
2110
3030
1020
1860
0840
0CC0
0780
0300
0780
1CF0
F03E
C004
ENDCHAR
STARTCHAR 4E4A
ENCODING 20042
SWIDTH 1000 0
DWIDTH 16 0
BBX 14 7 1 6
BITMAP
FFFC
E000
0010
3030
1020
1860
08C0
ENDCHAR
STARTCHAR 4E4B
ENCODING 20043
SWIDTH 1000 0
DWIDTH 16 0
BBX 16 15 0 -2
BITMAP
0100
0180
0000
7FFC
000C
0010
0060
00C0
0180
0700
0C00
3800
5C00
C7FF
00FE
ENDCHAR
STARTCHAR 4E4C
ENCODING 20044
SWIDTH 1000 0
DWIDTH 16 0
BBX 15 15 0 -2
BITMAP
0300
1FF8
1008
1008
1008
10F8
1000
1FFE
1FFE
0006
FFF6
FFF6
0004
00EC
00F8
ENDCHAR
STARTCHAR 4E4D
ENCODING 20045
SWIDTH 1000 0
DWIDTH 16 0
BBX 15 15 0 -2
BITMAP
0C00
0800
1FFE
1300
2300
6300
C3FC
0300
0300
0300
03FE
0300
0300
0300
0300
ENDCHAR
STARTCHAR 4E4E
ENCODING 20046
SWIDTH 1000 0
DWIDTH 16 0
BBX 16 15 0 -2
BITMAP
000E
7FFE
0180
318C
1188
1990
0190
FFFF
FFFF
0180
0180
0180
0180
0180
0F00
ENDCHAR
STARTCHAR 4E4F
ENCODING 20047
SWIDTH 1000 0
DWIDTH 16 0
BBX 16 14 0 -2
BITMAP
7FFE
0000
0100
0080
3FFC
3FFC
0038
0060
0180
0600
3800
7800
CFFF
01FE
ENDCHAR
STARTCHAR 4E50
ENCODING 20048
SWIDTH 1000 0
DWIDTH 16 0
BBX 16 15 0 -2
BITMAP
001C
3FFC
3000
2080
2080
2080
2080
3FFE
0080
0890
1888
3084
6086
C183
0700
ENDCHAR
STARTCHAR 4E51
ENCODING 20049
SWIDTH 1000 0
DWIDTH 16 0
BBX 15 14 0 -2
BITMAP
7FFE
0180
0180
05C2
19CE
31F8
61A0
07B0
0D98
198C
3186
C182
0180
0180
ENDCHAR
STARTCHAR 4E52
ENCODING 20050
SWIDTH 1000 0
DWIDTH 16 0
BBX 16 15 0 -2
BITMAP
0018
1FF8
1000
1000
1000
1FFE
1020
1020
1020
FFFF
0000
0400
0C00
3000
6000
ENDCHAR
STARTCHAR 4E53
ENCODING 20051
SWIDTH 1000 0
DWIDTH 16 0
BBX 16 15 0 -2
BITMAP
0018
1FF8
1000
1000
1000
1FFE
1020
1020
1020
FFFF
0000
0060
0030
000C
0004
ENDCHAR
STARTCHAR 4E54
ENCODING 20052
SWIDTH 1000 0
DWIDTH 16 0
BBX 14 15 1 -2
BITMAP
0018
7FF8
0300
0200
FFFC
FFFC
0CC0
1860
E85C
8844
0840
1840
1040
7040
C040
ENDCHAR
STARTCHAR 4E55
ENCODING 20053
SWIDTH 1000 0
DWIDTH 16 0
BBX 14 15 1 -2
BITMAP
01FC
7F80
4080
5FFC
4080
4080
5FFC
4080
4080
5FFC
5084
D084
908C
90B8
8080
ENDCHAR
STARTCHAR 4E56
ENCODING 20054
SWIDTH 1000 0
DWIDTH 16 0
BBX 16 15 0 -2
BITMAP
01FC
3F80
0180
0180
FFFF
0180
0990
7996
0998
0990
3993
699E
098C
0180
0180
ENDCHAR
STARTCHAR 4E57
ENCODING 20055
SWIDTH 1000 0
DWIDTH 16 0
BBX 16 15 0 -2
BITMAP
07FC
3F80
0180
7FFE
1998
1998
7FFF
1998
1998
7FFE
03C0
05A0
199C
E187
0180
ENDCHAR
STARTCHAR 4E58
ENCODING 20056
SWIDTH 1000 0
DWIDTH 16 0
BBX 16 15 0 -2
BITMAP
03FC
3F80
0180
FFFF
0180
0992
799C
0991
1993
7BDE
07E0
0DB0
399C
E187
0180
ENDCHAR
STARTCHAR 4E59
ENCODING 20057
SWIDTH 1000 0
DWIDTH 16 0
BBX 14 13 1 -1
BITMAP
FFF0
0030
00C0
0180
0300
0600
0C00
3000
6004
4004
C004
C00C
7FF8
ENDCHAR
STARTCHAR 4E5A
ENCODING 20058
SWIDTH 1000 0
DWIDTH 16 0
BBX 9 15 6 -2
BITMAP
8000
8000
8000
8000
8000
8000
8000
8000
8000
8000
8080
8080
8180
FF00
7E00
ENDCHAR
STARTCHAR 4E5B
ENCODING 20059
SWIDTH 1000 0
DWIDTH 16 0
BBX 14 5 1 7
BITMAP
FFFC
FFFC
0008
0018
0010
ENDCHAR
STARTCHAR 4E5C
ENCODING 20060
SWIDTH 1000 0
DWIDTH 16 0
BBX 16 15 0 -2
BITMAP
1800
1800
180C
19FC
1F0C
F80C
180C
1808
1898
18F0
1803
1803
1802
0FFE
07F8
ENDCHAR
STARTCHAR 4E5D
ENCODING 20061
SWIDTH 1000 0
DWIDTH 16 0
BBX 15 15 1 -2
BITMAP
0C00
0C00
0C00
FFC0
0840
0840
0840
0840
0840
1840
1046
3046
6046
C07C
8038
ENDCHAR
STARTCHAR 4E5E
ENCODING 20062
SWIDTH 1000 0
DWIDTH 16 0
BBX 14 15 1 -2
BITMAP
1000
3000
3FFC
6000
C000
BFF0
0070
01C0
0300
0C00
1804
3004
600C
3FF8
1FE0
ENDCHAR
STARTCHAR 4E5F
ENCODING 20063
SWIDTH 1000 0
DWIDTH 16 0
BBX 16 14 0 -1
BITMAP
0180
0180
1180
11FC
1F84
F184
1184
1184
118C
11B8
1183
1183
1002
1FFE
ENDCHAR
STARTCHAR 4E60
ENCODING 20064
SWIDTH 1000 0
DWIDTH 16 0
BBX 13 14 1 -2
BITMAP
FFF8
0008
0008
3808
0E08
0308
0028
01E8
0F08
7808
E008
0018
03F0
01C0
ENDCHAR
STARTCHAR 4E61
ENCODING 20065
SWIDTH 1000 0
DWIDTH 16 0
BBX 13 15 1 -1
BITMAP
0200
0400
0830
3060
7F80
0100
0608
0C18
3010
7FF0
0060
01C0
0700
3C00
E000
ENDCHAR
STARTCHAR 4E62
ENCODING 20066
SWIDTH 1000 0
DWIDTH 16 0
BBX 15 15 1 -2
BITMAP
1080
1080
1080
9680
9680
9680
9680
9680
9680
9680
9686
9686
FE84
86C4
0078
ENDCHAR
STARTCHAR 4E63
ENCODING 20067
SWIDTH 1000 0
DWIDTH 16 0
BBX 15 15 1 -2
BITMAP
1040
3040
2040
6040
4640
C440
9C40
F840
1040
3040
2446
4246
DE46
F344
007C
ENDCHAR
STARTCHAR 4E64
ENCODING 20068
SWIDTH 1000 0
DWIDTH 16 0
BBX 16 14 0 -2
BITMAP
FFFF
0100
01E0
011C
0104
0000
3FF8
00E0
0700
1C02
3002
2002
3FFE
1FF8
ENDCHAR
STARTCHAR 4E65
ENCODING 20069
SWIDTH 1000 0
DWIDTH 16 0
BBX 14 15 1 -2
BITMAP
0078
FFF8
2000
3020
1840
0000
7FF0
0060
0380
0E00
3804
6004
4004
7FFC
3FF0
ENDCHAR
STARTCHAR 4E66
ENCODING 20070
SWIDTH 1000 0
DWIDTH 16 0
BBX 15 15 0 -2
BITMAP
0318
030C
7FFA
7FF8
0308
0308
0318
FFFE
0302
0302
0302
0306
033C
0300
0300
ENDCHAR
STARTCHAR 4E67
ENCODING 20071
SWIDTH 1000 0
DWIDTH 16 0
BBX 15 14 1 -1
BITMAP
3840
0E40
6040
3C40
0044
FFFE
0040
0000
7FE0
01C0
0E00
3804
4004
FFFC
ENDCHAR
STARTCHAR 4E68
ENCODING 20072
SWIDTH 1000 0
DWIDTH 16 0
BBX 15 15 1 -2
BITMAP
1040
2040
2440
4640
C240
FF40
0140
0040
FE40
C240
C246
C246
C246
FE6C
C238
ENDCHAR
STARTCHAR 4E69
ENCODING 20073
SWIDTH 1000 0
DWIDTH 16 0
BBX 15 15 1 -2
BITMAP
1040
1040
1040
1F40
1040
1040
1040
1040
FE40
8240
8246
8246
8246
FE64
8238
ENDCHAR
STARTCHAR 4E6A
ENCODING 20074
SWIDTH 1000 0
DWIDTH 16 0
BBX 15 13 1 -1
BITMAP
F3F8
1258
3258
2258
23F8
6258
4258
4258
C258
83FA
821E
8006
FFFC
ENDCHAR
STARTCHAR 4E6B
ENCODING 20075
SWIDTH 1000 0
DWIDTH 16 0
BBX 15 14 0 -1
BITMAP
1000
107E
7F42
1142
3142
637E
CE42
0000
3FF0
00E0
0700
1C02
6002
7FFE
ENDCHAR
STARTCHAR 4E6C
ENCODING 20076
SWIDTH 1000 0
DWIDTH 16 0
BBX 14 14 1 -2
BITMAP
FFFC
C000
FFF0
C010
FFF0
C000
FFFC
0000
7FE0
0780
3C04
6004
C03C
3FE0
ENDCHAR
STARTCHAR 4E6D
ENCODING 20077
SWIDTH 1000 0
DWIDTH 16 0
BBX 14 13 1 -1
BITMAP
FFFC
1000
3FF8
6018
A018
3FF8
0000
7FE0
01C0
0E00
3804
4004
FFFC
ENDCHAR
STARTCHAR 4E6E
ENCODING 20078
SWIDTH 1000 0
DWIDTH 16 0
BBX 14 15 1 -2
BITMAP
1C00
E0FC
C484
DC84
E484
08B8
7080
8000
7FE0
01E0
0F00
3804
4004
FFFC
3FF0
ENDCHAR
STARTCHAR 4E6F
ENCODING 20079
SWIDTH 1000 0
DWIDTH 16 0
BBX 14 14 1 -1
BITMAP
00F8
7FC0
2110
1120
FFFC
0100
1E00
0000
7FE0
01C0
0E00
3804
4004
FFFC
ENDCHAR
STARTCHAR 4E70
ENCODING 20080
SWIDTH 1000 0
DWIDTH 16 0
BBX 16 14 0 -2
BITMAP
7FFE
0046
0C44
064C
2240
1840
0C40
0040
FFFF
0080
01E0
0638
1C0C
7002
ENDCHAR
STARTCHAR 4E71
ENCODING 20081
SWIDTH 1000 0
DWIDTH 16 0
BBX 16 15 0 -2
BITMAP
0320
7F20
0820
0820
FFA0
FFA0
0820
0820
7F20
4120
4123
4123
4123
7F22
413E
ENDCHAR
STARTCHAR 4E72
ENCODING 20082
SWIDTH 1000 0
DWIDTH 16 0
BBX 16 15 0 -2
BITMAP
4100
33FE
1222
0664
1870
3198
C707
0000
3FF0
00E0
0700
1C02
2002
7FFE
1FF0
ENDCHAR
STARTCHAR 4E73
ENCODING 20083
SWIDTH 1000 0
DWIDTH 16 0
BBX 16 15 0 -2
BITMAP
1FA0
7820
49A0
6920
2720
7FA0
7FA0
0620
0C20
0FA0
FC21
0823
0823
083E
381C
ENDCHAR
STARTCHAR 4E74
ENCODING 20084
SWIDTH 1000 0
DWIDTH 16 0
BBX 15 14 1 -1
BITMAP
200C
21F8
FD00
25FE
F910
2210
E610
0000
7FE0
01C0
0E00
3804
4004
FFFC
ENDCHAR
STARTCHAR 4E75
ENCODING 20085
SWIDTH 1000 0
DWIDTH 16 0
BBX 16 15 0 -2
BITMAP
1820
0820
7F20
0020
2220
2620
FFA0
0820
0820
0820
FF21
0823
0823
0822
083E
ENDCHAR
STARTCHAR 4E76
ENCODING 20086
SWIDTH 1000 0
DWIDTH 16 0
BBX 14 15 1 -2
BITMAP
0318
FFFC
0300
7FF8
4308
7FF8
4308
7FF8
0000
7FF0
03C0
3C04
4004
FFFC
3FF0
ENDCHAR
STARTCHAR 4E77
ENCODING 20087
SWIDTH 1000 0
DWIDTH 16 0
BBX 15 14 1 -1
BITMAP
6040
3258
824C
6446
1458
3060
CF80
0800
7FE0
01E0
0F00
3804
4004
FFFC
ENDCHAR
STARTCHAR 4E78
ENCODING 20088
SWIDTH 1000 0
DWIDTH 16 0
BBX 16 15 0 -2
BITMAP
0800
087C
4844
4E54
FA44
4AFF
4AC4
4A94
4A94
4AFE
4E04
483D
403B
6002
3FFC
ENDCHAR
STARTCHAR 4E79
ENCODING 20089
SWIDTH 1000 0
DWIDTH 16 0
BBX 16 15 0 -2
BITMAP
0820
FFA0
0820
0820
7F20
4120
7F20
4120
4120
7F20
0823
FFA3
0823
0822
083E
ENDCHAR
STARTCHAR 4E7A
ENCODING 20090
SWIDTH 1000 0
DWIDTH 16 0
BBX 15 15 1 -2
BITMAP
040C
79F8
4180
7DFE
4510
FD10
8310
0000
7FE0
01C0
0E00
3804
4004
FFFC
3FE0
ENDCHAR
STARTCHAR 4E7B
ENCODING 20091
SWIDTH 1000 0
DWIDTH 16 0
BBX 16 15 0 -2
BITMAP
1030
FE68
20C6
3D63
2438
2480
44F8
DC08
3FF0
0070
0380
1C02
3002
7FFE
1FF0
ENDCHAR
STARTCHAR 4E7C
ENCODING 20092
SWIDTH 1000 0
DWIDTH 16 0
BBX 14 15 1 -2
BITMAP
60C0
37FC
87C0
4040
17FC
3040
CFFC
0000
7FE0
00E0
0700
3804
6004
FFFC
3FE0
ENDCHAR
STARTCHAR 4E7D
ENCODING 20093
SWIDTH 1000 0
DWIDTH 16 0
BBX 15 15 0 -2
BITMAP
0100
3FEC
0130
7FCE
0FF8
F008
1FF8
1008
1FF8
3FF0
0070
0782
3802
3FFE
1FF8
ENDCHAR
STARTCHAR 4E7E
ENCODING 20094
SWIDTH 1000 0
DWIDTH 16 0
BBX 16 15 0 -2
BITMAP
1040
7E40
10FF
1080
7F80
43FC
7EFC
4208
4210
7E20
1061
FEC3
1083
10C6
107C
ENDCHAR
STARTCHAR 4E7F
ENCODING 20095
SWIDTH 1000 0
DWIDTH 16 0
BBX 15 15 1 -2
BITMAP
FF20
F020
D920
4A20
1020
6320
FC20
1220
6320
FFA0
0822
4A26
8926
9924
303C
ENDCHAR
STARTCHAR 4E80
ENCODING 20096
SWIDTH 1000 0
DWIDTH 16 0
BBX 15 15 1 -2
BITMAP
1000
3FE0
40C0
FF30
7FF0
4210
7FF0
0200
7FF8
4208
7FF8
4208
7FFE
0204
01F8
ENDCHAR
STARTCHAR 4E81
ENCODING 20097
SWIDTH 1000 0
DWIDTH 16 0
BBX 16 15 0 -2
BITMAP
0820
FF40
087F
7EC0
4280
7EFE
427E
7E0C
4218
7F30
0821
0841
FF83
08C2
087C
ENDCHAR
STARTCHAR 4E82
ENCODING 20098
SWIDTH 1000 0
DWIDTH 16 0
BBX 15 15 1 -2
BITMAP
FF20
0120
4B20
FF20
0320
3C20
FF20
9120
A520
9B20
BF22
A526
9D26
A124
871C
ENDCHAR
STARTCHAR 4E83
ENCODING 20099
SWIDTH 1000 0
DWIDTH 16 0
BBX 16 15 0 -2
BITMAP
0410
2490
2510
7FD0
0E10
3790
6490
2510
3FD0
4910
ED11
37D3
3113
6112
C11E
ENDCHAR
STARTCHAR 4E84
ENCODING 20100
SWIDTH 1000 0
DWIDTH 16 0
BBX 15 15 1 -2
BITMAP
0820
FFA0
0820
FF20
0020
FFA0
80A0
FF20
0020
FF20
FF22
C026
2626
1FAC
F038
ENDCHAR
STARTCHAR 4E85
ENCODING 20101
SWIDTH 1000 0
DWIDTH 16 0
BBX 5 15 7 -2
BITMAP
08
08
08
08
08
08
08
08
08
08
08
08
08
18
F8
ENDCHAR
STARTCHAR 4E86
ENCODING 20102
SWIDTH 1000 0
DWIDTH 16 0
BBX 14 14 1 -2
BITMAP
FFFC
001C
0030
00E0
0180
0100
0100
0100
0100
0100
0100
0100
1F00
1E00
ENDCHAR
STARTCHAR 4E87
ENCODING 20103
SWIDTH 1000 0
DWIDTH 16 0
BBX 14 15 1 -2
BITMAP
1800
1000
3FFC
6104
410C
C108
8100
0100
0100
0100
0100
0100
0100
0300
1E00
ENDCHAR
STARTCHAR 4E88
ENCODING 20104
SWIDTH 1000 0
DWIDTH 16 0
BBX 14 14 1 -2
BITMAP
7FF8
0030
1CC0
0780
0300
FFFC
030C
0308
0308
0300
0300
0300
2300
1E00
ENDCHAR
STARTCHAR 4E89
ENCODING 20105
SWIDTH 1000 0
DWIDTH 16 0
BBX 16 15 0 -2
BITMAP
0C00
0FF0
1020
2060
FFFC
010C
010C
FFFF
010C
010C
3FFC
0100
0100
0100
0F00
ENDCHAR
STARTCHAR 4E8A
ENCODING 20106
SWIDTH 1000 0
DWIDTH 16 0
BBX 16 15 0 -2
BITMAP
0180
FFFF
1188
1998
0990
7FFC
0184
0184
FFFF
0184
0184
7FFC
0180
0180
0F00
ENDCHAR
STARTCHAR 4E8B
ENCODING 20107
SWIDTH 1000 0
DWIDTH 16 0
BBX 16 15 0 -2
BITMAP
0180
FFFF
0180
3FFC
2184
3FFC
0180
7FFC
0184
FFFF
0184
7FFC
0184
0180
0F00
ENDCHAR
STARTCHAR 4E8C
ENCODING 20108
SWIDTH 1000 0
DWIDTH 16 0
BBX 15 11 0 0
BITMAP
3FFC
0000
0000
0000
0000
0000
0000
0000
0000
0000
FFFE
ENDCHAR
STARTCHAR 4E8D
ENCODING 20109
SWIDTH 1000 0
DWIDTH 16 0
BBX 16 14 0 -2
BITMAP
3FFC
0000
0000
0000
FFFF
FFFF
0080
0080
0080
0080
0080
0080
0F80
0F00
ENDCHAR
STARTCHAR 4E8E
ENCODING 20110
SWIDTH 1000 0
DWIDTH 16 0
BBX 16 14 0 -2
BITMAP
3FFE
0080
0080
0080
0080
FFFF
0080
0080
0080
0080
0080
0080
0F80
0F00
ENDCHAR
STARTCHAR 4E8F
ENCODING 20111
SWIDTH 1000 0
DWIDTH 16 0
BBX 16 14 0 -2
BITMAP
3FFC
0000
0000
FFFF
FFFF
0800
1800
1FFC
000C
000C
0008
0008
0018
01F0
ENDCHAR
STARTCHAR 4E90
ENCODING 20112
SWIDTH 1000 0
DWIDTH 16 0
BBX 16 14 0 -2
BITMAP
3FFC
0600
0400
FFFF
FFFF
0800
0800
1FFC
000C
000C
0008
0008
0118
01F0
ENDCHAR
STARTCHAR 4E91
ENCODING 20113
SWIDTH 1000 0
DWIDTH 16 0
BBX 16 13 0 -2
BITMAP
3FFC
0000
0000
0000
0000
FFFF
0200
0620
0C30
1810
1018
7FFC
3806
ENDCHAR
STARTCHAR 4E92
ENCODING 20114
SWIDTH 1000 0
DWIDTH 16 0
BBX 14 13 1 -1
BITMAP
FFFC
3000
3000
3FF0
3FF0
2010
2010
2030
3FF0
0030
0030
0030
FFFC
ENDCHAR
STARTCHAR 4E93
ENCODING 20115
SWIDTH 1000 0
DWIDTH 16 0
BBX 16 14 0 -2
BITMAP
3FFC
0000
0000
0000
FFFF
FFFF
0C10
0C10
0C10
0810
0810
1810
7010
4010
ENDCHAR
STARTCHAR 4E94
ENCODING 20116
SWIDTH 1000 0
DWIDTH 16 0
BBX 16 13 0 -1
BITMAP
7FFE
0200
0600
0600
0400
7FF8
0408
0408
0C08
0C08
0C08
0808
FFFF
ENDCHAR
STARTCHAR 4E95
ENCODING 20117
SWIDTH 1000 0
DWIDTH 16 0
BBX 16 15 0 -2
BITMAP
0C10
0C10
0C10
7FFE
0C10
0C10
0C10
0C10
FFFF
0C10
0810
0810
1810
3010
6010
ENDCHAR
STARTCHAR 4E96
ENCODING 20118
SWIDTH 1000 0
DWIDTH 16 0
BBX 16 13 0 -1
BITMAP
3FFC
0000
0000
0000
7FFF
0000
0000
0000
3FFC
0000
0000
0000
FFFF
ENDCHAR
STARTCHAR 4E97
ENCODING 20119
SWIDTH 1000 0
DWIDTH 16 0
BBX 16 14 0 -1
BITMAP
0180
2184
2184
2184
3FFC
0004
0000
0000
3FFC
0000
0000
0000
0000
FFFF
ENDCHAR
STARTCHAR 4E98
ENCODING 20120
SWIDTH 1000 0
DWIDTH 16 0
BBX 14 13 1 -1
BITMAP
FFFC
0000
7FF8
6018
6018
6018
7FF8
6018
6018
7FF8
6018
0000
FFFC
ENDCHAR
STARTCHAR 4E99
ENCODING 20121
SWIDTH 1000 0
DWIDTH 16 0
BBX 14 13 1 -1
BITMAP
FFFC
1000
3000
3FF0
2010
2010
2790
20B0
2830
6730
61B0
0020
FFFC
ENDCHAR
STARTCHAR 4E9A
ENCODING 20122
SWIDTH 1000 0
DWIDTH 16 0
BBX 16 13 0 -1
BITMAP
7FFE
0660
0660
6662
2666
2664
366C
1668
1E78
0660
0660
0660
FFFF
ENDCHAR
STARTCHAR 4E9B
ENCODING 20123
SWIDTH 1000 0
DWIDTH 16 0
BBX 16 14 0 -1
BITMAP
0460
2462
2466
27F8
2460
2463
24E2
3FE6
E01C
0000
3FFC
0000
0000
7FFE
ENDCHAR
STARTCHAR 4E9C
ENCODING 20124
SWIDTH 1000 0
DWIDTH 16 0
BBX 16 13 0 -1
BITMAP
7FFE
0240
0240
3FFC
2244
2244
2244
2244
3FFC
2244
0240
0240
FFFF
ENDCHAR
STARTCHAR 4E9D
ENCODING 20125
SWIDTH 1000 0
DWIDTH 16 0
BBX 16 14 0 -1
BITMAP
0300
0430
1818
3FFC
0014
1820
2664
7FFE
4102
0000
3FFC
0000
0000
FFFF
ENDCHAR
STARTCHAR 4E9E
ENCODING 20126
SWIDTH 1000 0
DWIDTH 16 0
BBX 16 13 0 -1
BITMAP
7FFE
0660
0660
0660
7E7E
6006
6006
6006
7E7E
0660
0660
0660
FFFF
ENDCHAR
STARTCHAR 4E9F
ENCODING 20127
SWIDTH 1000 0
DWIDTH 16 0
BBX 16 13 0 -1
BITMAP
3FFC
0030
00C0
7DBE
4586
45A4
459C
4588
7D94
41E2
0700
0000
FFFF
ENDCHAR
STARTCHAR 4EA0
ENCODING 20128
SWIDTH 1000 0
DWIDTH 16 0
BBX 14 6 1 7
BITMAP
0200
0300
0300
0100
FFFC
FFFC
ENDCHAR
STARTCHAR 4EA1
ENCODING 20129
SWIDTH 1000 0
DWIDTH 16 0
BBX 16 14 0 -1
BITMAP
0100
0080
0080
FFFF
1000
1000
1000
1000
1000
1000
1000
1000
1000
1FFE
ENDCHAR
STARTCHAR 4EA2
ENCODING 20130
SWIDTH 1000 0
DWIDTH 16 0
BBX 15 15 1 -2
BITMAP
0200
0300
FFFC
0000
0000
1FE0
1060
1060
1060
1060
1060
3062
6062
4066
803C
ENDCHAR
STARTCHAR 4EA3
ENCODING 20131
SWIDTH 1000 0
DWIDTH 16 0
BBX 16 15 0 -2
BITMAP
0100
0180
0000
FFFF
0420
0420
0420
0420
0420
0C20
0820
1820
1020
6020
4020
ENDCHAR
STARTCHAR 4EA4
ENCODING 20132
SWIDTH 1000 0
DWIDTH 16 0
BBX 15 15 0 -2
BITMAP
0100
0080
FFFE
0000
0430
0818
302C
6426
4460
0240
03C0
0180
0660
3C3E
6006
ENDCHAR
STARTCHAR 4EA5
ENCODING 20133
SWIDTH 1000 0
DWIDTH 16 0
BBX 14 15 1 -2
BITMAP
0200
0100
FFFC
0C00
1860
30C0
7F80
7310
0630
1C60
70C0
C1C0
0730
1C18
7004
ENDCHAR
STARTCHAR 4EA6
ENCODING 20134
SWIDTH 1000 0
DWIDTH 16 0
BBX 16 15 0 -2
BITMAP
0100
0080
FFFF
FE20
0620
2620
242C
6426
4422
C423
0C20
0820
1820
31E0
61C0
ENDCHAR
STARTCHAR 4EA7
ENCODING 20135
SWIDTH 1000 0
DWIDTH 16 0
BBX 15 15 1 -2
BITMAP
0300
01FE
FFFE
1020
0860
0840
7FFC
4000
4000
4000
4000
4000
C000
8000
8000
ENDCHAR
STARTCHAR 4EA8
ENCODING 20136
SWIDTH 1000 0
DWIDTH 16 0
BBX 16 15 0 -1
BITMAP
0180
0080
FFFF
0000
1FF8
1008
1FF8
1008
0000
7FFC
0070
0080
0080
0080
0F00
ENDCHAR
STARTCHAR 4EA9
ENCODING 20137
SWIDTH 1000 0
DWIDTH 16 0
BBX 15 15 1 -2
BITMAP
0300
0100
FFFE
0000
0000
7FF8
4308
4308
4308
7FF8
4308
4308
4308
7FF8
4008
ENDCHAR
STARTCHAR 4EAA
ENCODING 20138
SWIDTH 1000 0
DWIDTH 16 0
BBX 14 15 1 -2
BITMAP
0300
0100
FFFC
0440
6C58
C84C
9844
3180
0000
FFF0
0010
0010
0018
000C
0004
ENDCHAR
STARTCHAR 4EAB
ENCODING 20139
SWIDTH 1000 0
DWIDTH 16 0
BBX 16 15 0 -1
BITMAP
0100
0100
FFFF
0000
1FF8
1008
1FF8
0000
3FFC
0078
0080
FFFF
0080
0180
0F00
ENDCHAR
STARTCHAR 4EAC
ENCODING 20140
SWIDTH 1000 0
DWIDTH 16 0
BBX 16 15 0 -2
BITMAP
0100
0180
FFFF
0000
3FFC
300C
300C
300C
3FFC
308C
0880
1898
708E
4182
0700
ENDCHAR
STARTCHAR 4EAD
ENCODING 20141
SWIDTH 1000 0
DWIDTH 16 0
BBX 14 15 1 -2
BITMAP
0200
FFFC
0000
3FF0
2010
2010
3FF0
0000
FFFC
8004
3FF0
0100
0100
0100
0E00
ENDCHAR
STARTCHAR 4EAE
ENCODING 20142
SWIDTH 1000 0
DWIDTH 16 0
BBX 15 15 1 -2
BITMAP
0200
FFFC
0000
3FF0
2010
2010
3FF0
0000
FFFC
8004
0FC0
1842
1046
3044
C03C
ENDCHAR
STARTCHAR 4EAF
ENCODING 20143
SWIDTH 1000 0
DWIDTH 16 0
BBX 16 15 0 -2
BITMAP
0100
FFFF
0000
1FF8
1008
1008
1FF8
0000
3FFC
2004
2004
3FFC
2004
3FFC
2004
ENDCHAR
STARTCHAR 4EB0
ENCODING 20144
SWIDTH 1000 0
DWIDTH 16 0
BBX 16 15 0 -2
BITMAP
0100
0180
FFFF
0000
3FFC
300C
300C
3FFC
300C
3FFC
0080
1898
308C
C186
0700
ENDCHAR
STARTCHAR 4EB1
ENCODING 20145
SWIDTH 1000 0
DWIDTH 16 0
BBX 16 15 0 -2
BITMAP
0180
0080
FFFF
0800
13FC
1204
2204
23FC
6204
A204
23FC
2204
2000
2000
27FF
ENDCHAR
STARTCHAR 4EB2
ENCODING 20146
SWIDTH 1000 0
DWIDTH 16 0
BBX 16 15 0 -2
BITMAP
0180
7FFE
7FFE
0810
0C30
0820
FFFF
0080
0080
7FFE
0080
1898
308C
6186
0F00
ENDCHAR
STARTCHAR 4EB3
ENCODING 20147
SWIDTH 1000 0
DWIDTH 16 0
BBX 15 15 1 -2
BITMAP
0300
FFFE
0000
3FF0
2010
3FF0
0000
FFFC
8004
3FF0
0200
3FFE
C200
0204
03F8
ENDCHAR
STARTCHAR 4EB4
ENCODING 20148
SWIDTH 1000 0
DWIDTH 16 0
BBX 15 15 1 -2
BITMAP
0300
FFFE
0000
3FF0
3FF0
0000
FFFC
BFE4
0200
3FF0
0400
FFE0
0866
3064
E03C
ENDCHAR
STARTCHAR 4EB5
ENCODING 20149
SWIDTH 1000 0
DWIDTH 16 0
BBX 15 15 1 -2
BITMAP
0300
FFFE
2080
2080
FBF0
2090
7B12
A3D2
2C0C
E304
0D18
39B0
F060
173E
1804
ENDCHAR
STARTCHAR 4EB6
ENCODING 20150
SWIDTH 1000 0
DWIDTH 16 0
BBX 16 15 0 -2
BITMAP
0180
7FFF
0000
3FFC
27E4
2424
27E4
3FFC
0000
1FF8
1FF8
1008
1FF8
0000
FFFF
ENDCHAR
STARTCHAR 4EB7
ENCODING 20151
SWIDTH 1000 0
DWIDTH 16 0
BBX 16 15 0 -2
BITMAP
0080
7FFF
0410
0610
3FFE
2120
2FFC
2124
3FFF
6124
6FFC
4330
4528
5926
8120
ENDCHAR
STARTCHAR 4EB8
ENCODING 20152
SWIDTH 1000 0
DWIDTH 16 0
BBX 16 15 0 -2
BITMAP
10C6
106C
6CFE
0092
7C92
44FE
7C92
0092
7CFE
0C92
1010
FFFF
1010
1010
7010
ENDCHAR
STARTCHAR 4EB9
ENCODING 20153
SWIDTH 1000 0
DWIDTH 16 0
BBX 16 15 0 -2
BITMAP
0100
FFFF
1800
27EC
3DBC
25A4
3DBC
2424
5BDA
5FFA
1008
1FF8
1FF8
1008
FFFF
ENDCHAR
STARTCHAR 4EBA
ENCODING 20154
SWIDTH 1000 0
DWIDTH 16 0
BBX 15 15 1 -2
BITMAP
0300
0300
0300
0300
0300
0300
0780
0480
0CC0
0840
1860
3030
6018
C00E
8004
ENDCHAR
STARTCHAR 4EBB
ENCODING 20155
SWIDTH 1000 0
DWIDTH 16 0
BBX 7 15 1 -2
BITMAP
02
06
0C
08
18
38
68
C8
88
08
08
08
08
08
08
ENDCHAR
STARTCHAR 4EBC
ENCODING 20156
SWIDTH 1000 0
DWIDTH 16 0
BBX 16 14 0 -1
BITMAP
0180
0180
0100
0180
0380
02C0
0640
0460
0C30
1818
300C
6006
0000
FFFF
ENDCHAR
STARTCHAR 4EBD
ENCODING 20157
SWIDTH 1000 0
DWIDTH 16 0
BBX 16 15 0 -2
BITMAP
0180
0180
0240
0660
0C30
1818
300E
C003
0000
0000
0E00
0380
00E0
0030
0010
ENDCHAR
STARTCHAR 4EBE
ENCODING 20158
SWIDTH 1000 0
DWIDTH 16 0
BBX 15 14 1 -1
BITMAP
0100
8100
8100
8180
8180
8180
8140
8240
8260
8430
8C18
B00C
8000
FFFE
ENDCHAR
STARTCHAR 4EBF
ENCODING 20159
SWIDTH 1000 0
DWIDTH 16 0
BBX 16 15 0 -2
BITMAP
0800
1BFC
1004
3008
3018
7030
7060
F0C0
3180
3103
3303
3203
3602
33FE
3000
ENDCHAR
STARTCHAR 4EC0
ENCODING 20160
SWIDTH 1000 0
DWIDTH 16 0
BBX 16 15 0 -2
BITMAP
0820
1820
1020
1020
3020
37FF
57FF
D020
1020
1020
1020
1020
1020
1020
1020
ENDCHAR
STARTCHAR 4EC1
ENCODING 20161
SWIDTH 1000 0
DWIDTH 16 0
BBX 16 15 0 -2
BITMAP
0800
1800
13FE
3000
3000
7000
5000
D000
1000
1000
1000
1000
17FF
17FF
1000
ENDCHAR
STARTCHAR 4EC2
ENCODING 20162
SWIDTH 1000 0
DWIDTH 16 0
BBX 15 15 0 -2
BITMAP
1840
1040
1040
37FE
3042
70C2
70C2
F0C2
3082
3082
3182
3102
3302
3626
3C3C
ENDCHAR
STARTCHAR 4EC3
ENCODING 20163
SWIDTH 1000 0
DWIDTH 16 0
BBX 16 15 0 -2
BITMAP
0800
1BFF
1010
3010
3010
7010
5010
D010
1010
1010
1010
1010
1010
11B0
11E0
ENDCHAR
STARTCHAR 4EC4
ENCODING 20164
SWIDTH 1000 0
DWIDTH 16 0
BBX 16 14 0 -2
BITMAP
3FFF
2000
2040
20C0
20C0
20C0
20E0
20A0
21A0
2110
6318
460C
4C06
9802
ENDCHAR
STARTCHAR 4EC5
ENCODING 20165
SWIDTH 1000 0
DWIDTH 16 0
BBX 15 15 0 -2
BITMAP
0800
1FFE
1206
3304
2104
6104
610C
A188
2098
2070
2060
20F0
2198
270E
2402
ENDCHAR
STARTCHAR 4EC6
ENCODING 20166
SWIDTH 1000 0
DWIDTH 16 0
BBX 16 15 0 -2
BITMAP
08C0
08C0
18C0
10C0
30E0
70F0
50CC
90C6
10C3
10C0
10C0
10C0
10C0
10C0
10C0
ENDCHAR
STARTCHAR 4EC7
ENCODING 20167
SWIDTH 1000 0
DWIDTH 16 0
BBX 16 15 0 -2
BITMAP
1980
1180
1180
37F8
3198
7198
7198
F118
3118
3118
3119
331B
361B
3C0E
380C
ENDCHAR
STARTCHAR 4EC8
ENCODING 20168
SWIDTH 1000 0
DWIDTH 16 0
BBX 15 15 0 -2
BITMAP
0990
1990
1198
3198
3198
7108
7108
B108
3108
3108
330C
3204
3606
3402
3402
ENDCHAR
STARTCHAR 4EC9
ENCODING 20169
SWIDTH 1000 0
DWIDTH 16 0
BBX 16 15 0 -2
BITMAP
0800
1BF8
1308
3308
3308
7308
F308
B308
3308
3308
3209
3209
3609
340F
3C04
ENDCHAR
STARTCHAR 4ECA
ENCODING 20170
SWIDTH 1000 0
DWIDTH 16 0
BBX 15 15 0 -2
BITMAP
0180
03C0
0660
0C30
1918
710E
C082
0000
3FF8
3FF8
0018
0030
0060
0040
00C0
ENDCHAR
STARTCHAR 4ECB
ENCODING 20171
SWIDTH 1000 0
DWIDTH 16 0
BBX 16 15 0 -2
BITMAP
0180
03C0
0640
0C20
1818
300C
EC27
0C20
0C20
0C20
0820
0820
1820
3020
6020
ENDCHAR
STARTCHAR 4ECC
ENCODING 20172
SWIDTH 1000 0
DWIDTH 16 0
BBX 14 15 1 -2
BITMAP
0100
0300
0200
0780
0CE0
3838
E30C
8300
0200
0300
0780
04C0
1860
703C
C00C
ENDCHAR
STARTCHAR 4ECD
ENCODING 20173
SWIDTH 1000 0
DWIDTH 16 0
BBX 15 15 0 -2
BITMAP
1800
17FC
118C
3188
3118
7110
711E
F102
3102
3102
3302
3302
3606
343C
3438
ENDCHAR
STARTCHAR 4ECE
ENCODING 20174
SWIDTH 1000 0
DWIDTH 16 0
BBX 16 15 0 -2
BITMAP
1820
1820
1820
1820
1860
1860
1860
1470
1250
13D0
3098
218C
6304
C607
0402
ENDCHAR
STARTCHAR 4ECF
ENCODING 20175
SWIDTH 1000 0
DWIDTH 16 0
BBX 16 15 0 -2
BITMAP
0820
0860
1860
1040
30C0
7080
5080
D198
1108
130C
1204
1204
17FE
17E2
1003
ENDCHAR
STARTCHAR 4ED0
ENCODING 20176
SWIDTH 1000 0
DWIDTH 16 0
BBX 16 15 0 -2
BITMAP
0180
03C0
0660
1C30
318C
E187
0180
0180
0180
7FFE
0180
0180
0180
0180
0180
ENDCHAR
STARTCHAR 4ED1
ENCODING 20177
SWIDTH 1000 0
DWIDTH 16 0
BBX 15 15 1 -2
BITMAP
0300
0780
0CC0
1860
7038
C00E
B030
30E0
3780
3C00
3008
3008
3018
1FF0
0FE0
ENDCHAR
STARTCHAR 4ED2
ENCODING 20178
SWIDTH 1000 0
DWIDTH 16 0
BBX 16 15 0 -2
BITMAP
0180
03C0
0240
0420
0818
300C
6407
C382
00F0
0000
1000
1E00
03C0
0070
0010
ENDCHAR
STARTCHAR 4ED3
ENCODING 20179
SWIDTH 1000 0
DWIDTH 16 0
BBX 16 15 0 -2
BITMAP
0180
03C0
0660
0C30
381C
E007
1FF0
1810
1810
1810
18F2
1806
1804
1C0C
0FF8
ENDCHAR
STARTCHAR 4ED4
ENCODING 20180
SWIDTH 1000 0
DWIDTH 16 0
BBX 15 15 1 -2
BITMAP
1000
37FC
2008
6018
6030
E060
E060
EFFE
6060
6060
6060
6060
6060
63C0
63C0
ENDCHAR
STARTCHAR 4ED5
ENCODING 20181
SWIDTH 1000 0
DWIDTH 16 0
BBX 16 15 0 -2
BITMAP
0820
0820
1020
1020
3020
37FF
5020
D020
1020
1020
1020
1020
1020
17FE
1000
ENDCHAR
STARTCHAR 4ED6
ENCODING 20182
SWIDTH 1000 0
DWIDTH 16 0
BBX 16 15 0 -2
BITMAP
0820
1820
1220
322E
23FA
6F22
6222
A222
2226
223C
2221
2223
2203
23FE
21FC
ENDCHAR
STARTCHAR 4ED7
ENCODING 20183
SWIDTH 1000 0
DWIDTH 16 0
BBX 16 15 0 -2
BITMAP
0810
1810
1010
37FF
2010
6210
6210
E130
2120
20A0
20E0
20E0
21B8
270F
2C02
ENDCHAR
STARTCHAR 4ED8
ENCODING 20184
SWIDTH 1000 0
DWIDTH 16 0
BBX 15 15 0 -2
BITMAP
0808
1808
1008
37FE
3008
7008
7208
F308
3108
3188
3008
3008
3008
30D8
3070
ENDCHAR
STARTCHAR 4ED9
ENCODING 20185
SWIDTH 1000 0
DWIDTH 16 0
BBX 15 15 0 -2
BITMAP
0820
1820
1020
3222
3222
7222
7222
F222
3222
3222
3222
3222
3222
33FE
3002
ENDCHAR
STARTCHAR 4EDA
ENCODING 20186
SWIDTH 1000 0
DWIDTH 16 0
BBX 16 15 0 -2
BITMAP
0180
03C0
0660
0C30
1818
300E
E187
0180
2184
2184
2184
2184
2184
3FFC
3FFC
ENDCHAR
STARTCHAR 4EDB
ENCODING 20187
SWIDTH 1000 0
DWIDTH 16 0
BBX 16 15 0 -2
BITMAP
0804
19FE
13C0
3040
3040
7040
507E
D7F0
1040
1040
1043
1043
1042
107E
103C
ENDCHAR
STARTCHAR 4EDC
ENCODING 20188
SWIDTH 1000 0
DWIDTH 16 0
BBX 16 15 0 -2
BITMAP
0800
1BFE
13FE
3020
3020
7020
5020
D020
1020
1020
1020
1020
1020
17FF
1000
ENDCHAR
STARTCHAR 4EDD
ENCODING 20189
SWIDTH 1000 0
DWIDTH 16 0
BBX 16 14 0 -1
BITMAP
0180
03C0
0640
0C20
1818
300C
E007
1FF8
0180
0180
0180
0180
0180
7FFE
ENDCHAR
STARTCHAR 4EDE
ENCODING 20190
SWIDTH 1000 0
DWIDTH 16 0
BBX 15 15 0 -2
BITMAP
0800
1BFE
1042
3042
3242
7242
7242
F642
3442
30C2
3086
3186
3106
323C
3638
ENDCHAR
STARTCHAR 4EDF
ENCODING 20191
SWIDTH 1000 0
DWIDTH 16 0
BBX 16 15 0 -2
BITMAP
0800
1BFE
1020
3020
3020
7020
5020
D7FF
1020
1020
1020
1020
1020
1020
1020
ENDCHAR
STARTCHAR 4EE0
ENCODING 20192
SWIDTH 1000 0
DWIDTH 16 0
BBX 16 15 0 -2
BITMAP
0800
1BFE
1020
1020
3020
7020
5020
D7FF
1020
1020
1020
1020
1020
1020
1020
ENDCHAR
STARTCHAR 4EE1
ENCODING 20193
SWIDTH 1000 0
DWIDTH 16 0
BBX 16 15 0 -2
BITMAP
0980
1900
13FF
3200
3600
75FC
51FC
D018
1020
1040
1083
1103
1302
13FE
11FC
ENDCHAR
STARTCHAR 4EE2
ENCODING 20194
SWIDTH 1000 0
DWIDTH 16 0
BBX 15 15 0 -2
BITMAP
0980
1900
13FE
3202
3602
7402
5182
D082
1042
1062
1002
1002
1006
10FC
10F8
ENDCHAR
STARTCHAR 4EE3
ENCODING 20195
SWIDTH 1000 0
DWIDTH 16 0
BBX 16 15 0 -2
BITMAP
0890
1898
1084
30C0
30FE
77F0
7040
B040
3040
3060
3060
3023
3033
301A
300E
ENDCHAR
STARTCHAR 4EE4
ENCODING 20196
SWIDTH 1000 0
DWIDTH 16 0
BBX 14 15 1 -2
BITMAP
0300
0780
0CC0
1860
3230
C30C
8104
0000
7FF0
0030
1060
1CC0
0780
0380
0080
ENDCHAR
STARTCHAR 4EE5
ENCODING 20197
SWIDTH 1000 0
DWIDTH 16 0
BBX 15 15 1 -2
BITMAP
C410
C610
C210
C310
C010
C010
C010
C010
C030
C420
DC70
F0D8
E18C
8306
0600
ENDCHAR
STARTCHAR 4EE6
ENCODING 20198
SWIDTH 1000 0
DWIDTH 16 0
BBX 16 15 0 -2
BITMAP
0820
1820
1020
3020
3124
7324
7224
F226
3222
3622
3423
3020
3020
3060
31C0
ENDCHAR
STARTCHAR 4EE7
ENCODING 20199
SWIDTH 1000 0
DWIDTH 16 0
BBX 16 15 0 -2
BITMAP
0100
0100
01FC
0100
0100
0100
FFFF
0180
0100
0100
0180
02C0
0670
381C
6006
ENDCHAR
STARTCHAR 4EE8
ENCODING 20200
SWIDTH 1000 0
DWIDTH 16 0
BBX 16 15 0 -2
BITMAP
1800
1BFE
13FE
3000
3000
7000
7000
F3FE
3000
3000
3000
3000
3000
37FF
3000
ENDCHAR
STARTCHAR 4EE9
ENCODING 20201
SWIDTH 1000 0
DWIDTH 16 0
BBX 16 15 0 -2
BITMAP
0440
0C40
0840
1040
3040
307E
5040
D040
1040
1040
1040
1040
1040
17FF
1000
ENDCHAR
STARTCHAR 4EEA
ENCODING 20202
SWIDTH 1000 0
DWIDTH 16 0
BBX 15 15 0 -2
BITMAP
0840
1846
1266
3224
3304
7304
710C
F188
3098
30F0
3060
30F0
3198
370E
3402
ENDCHAR
STARTCHAR 4EEB
ENCODING 20203
SWIDTH 1000 0
DWIDTH 16 0
BBX 16 15 0 -2
BITMAP
0820
1840
10C0
1088
3108
7218
7630
B420
3040
30D8
318C
3304
360E
37FF
3000
ENDCHAR
STARTCHAR 4EEC
ENCODING 20204
SWIDTH 1000 0
DWIDTH 16 0
BBX 15 15 0 -2
BITMAP
1A00
113E
1102
3202
3202
7202
7202
F202
3202
3202
3202
3202
3202
3206
323C
ENDCHAR
STARTCHAR 4EED
ENCODING 20205
SWIDTH 1000 0
DWIDTH 16 0
BBX 15 15 0 -2
BITMAP
0800
1BFC
10C4
30C4
30C4
7684
7384
F184
30C4
30F4
319C
3106
330C
3678
3470
ENDCHAR
STARTCHAR 4EEE
ENCODING 20206
SWIDTH 1000 0
DWIDTH 16 0
BBX 15 15 0 -2
BITMAP
0806
1BFE
1200
3200
3200
73FE
52C6
9244
1244
1268
1238
1230
146C
15C6
1502
ENDCHAR
STARTCHAR 4EEF
ENCODING 20207
SWIDTH 1000 0
DWIDTH 16 0
BBX 15 15 0 -2
BITMAP
0860
0860
1868
116C
3364
7262
5662
9460
1066
106C
1018
1030
10E0
1380
1600
ENDCHAR
STARTCHAR 4EF0
ENCODING 20208
SWIDTH 1000 0
DWIDTH 16 0
BBX 15 15 0 -2
BITMAP
10C0
17BE
363E
2622
2622
6622
6622
A622
2622
2622
26A2
27BE
2620
2020
2020
ENDCHAR
STARTCHAR 4EF1
ENCODING 20209
SWIDTH 1000 0
DWIDTH 16 0
BBX 16 15 0 -2
BITMAP
0860
18E0
1190
3118
220C
6C47
6020
A000
27FC
200C
2008
2018
2010
2030
2060
ENDCHAR
STARTCHAR 4EF2
ENCODING 20210
SWIDTH 1000 0
DWIDTH 16 0
BBX 15 15 0 -2
BITMAP
1820
1020
1020
37FE
3622
7622
7622
F622
3622
37FE
3622
3020
3020
3020
3020
ENDCHAR
STARTCHAR 4EF3
ENCODING 20211
SWIDTH 1000 0
DWIDTH 16 0
BBX 16 15 0 -2
BITMAP
1220
1220
3220
2223
2226
63AC
6230
A220
2220
2220
2221
2223
23A3
2732
261E
ENDCHAR
STARTCHAR 4EF4
ENCODING 20212
SWIDTH 1000 0
DWIDTH 16 0
BBX 15 15 0 -2
BITMAP
0800
19FE
1102
1102
3102
71FE
5102
D102
1102
11FE
1302
1202
1202
1602
143C
ENDCHAR
STARTCHAR 4EF5
ENCODING 20213
SWIDTH 1000 0
DWIDTH 16 0
BBX 16 15 0 -2
BITMAP
0980
1900
11FE
3320
3220
7620
7020
B020
37FF
3020
3020
3020
3020
3020
3020
ENDCHAR
STARTCHAR 4EF6
ENCODING 20214
SWIDTH 1000 0
DWIDTH 16 0
BBX 16 15 0 -2
BITMAP
1830
1130
1130
33FE
3230
7230
7430
F030
37FF
37FF
3030
3030
3030
3030
3030
ENDCHAR
STARTCHAR 4EF7
ENCODING 20215
SWIDTH 1000 0
DWIDTH 16 0
BBX 15 15 0 -2
BITMAP
1860
10E0
1090
3108
3206
7C02
7108
F108
3108
3108
3108
3108
3308
3608
3408
ENDCHAR
STARTCHAR 4EF8
ENCODING 20216
SWIDTH 1000 0
DWIDTH 16 0
BBX 16 15 0 -2
BITMAP
1806
17FE
1060
3060
3060
7060
77FF
B060
3060
30F0
3090
3198
330C
3607
3402
ENDCHAR
STARTCHAR 4EF9
ENCODING 20217
SWIDTH 1000 0
DWIDTH 16 0
BBX 16 15 0 -2
BITMAP
0860
1860
17FE
3060
3060
7060
73FE
B060
3060
3060
3FFF
3060
3060
3060
3060
ENDCHAR
STARTCHAR 4EFA
ENCODING 20218
SWIDTH 1000 0
DWIDTH 16 0
BBX 16 14 0 -1
BITMAP
0180
03C0
0660
0C30
300C
E007
1FFC
1000
1000
1000
1FFC
1000
1000
1FFE
ENDCHAR
STARTCHAR 4EFB
ENCODING 20219
SWIDTH 1000 0
DWIDTH 16 0
BBX 16 15 0 -2
BITMAP
0800
1BFE
1020
3020
3020
7020
5020
D7FF
1020
1020
1020
1020
1020
17FF
1000
ENDCHAR
STARTCHAR 4EFC
ENCODING 20220
SWIDTH 1000 0
DWIDTH 16 0
BBX 16 15 0 -2
BITMAP
1800
17FE
1060
3060
3060
7060
7060
F7FE
3060
3060
3060
3060
3060
3FFF
3000
ENDCHAR
STARTCHAR 4EFD
ENCODING 20221
SWIDTH 1000 0
DWIDTH 16 0
BBX 16 15 0 -2
BITMAP
0820
1990
1110
3308
220C
6407
6BF8
A188
2188
2188
2108
2108
2208
2698
2470
ENDCHAR
STARTCHAR 4EFE
ENCODING 20222
SWIDTH 1000 0
DWIDTH 16 0
BBX 16 15 0 -2
BITMAP
1000
17FF
1100
2100
23FC
63FC
6204
A204
2204
23FC
2004
2004
2004
2FFF
2000
ENDCHAR
STARTCHAR 4EFF
ENCODING 20223
SWIDTH 1000 0
DWIDTH 16 0
BBX 16 15 0 -2
BITMAP
1860
1020
17FF
37FF
3180
7180
71FE
F186
3106
3106
3106
3306
3204
367C
3438
ENDCHAR
STARTCHAR 4F00
ENCODING 20224
SWIDTH 1000 0
DWIDTH 16 0
BBX 16 15 0 -2
BITMAP
1810
1090
1198
3108
3304
7606
5463
D040
10C0
1088
1188
110C
1304
17FE
1002
ENDCHAR
STARTCHAR 4F01
ENCODING 20225
SWIDTH 1000 0
DWIDTH 16 0
BBX 15 14 1 -1
BITMAP
0300
0780
0CC0
1860
7038
C10E
8100
2100
21F8
2100
2100
2100
2100
FFFC
ENDCHAR
STARTCHAR 4F02
ENCODING 20226
SWIDTH 1000 0
DWIDTH 16 0
BBX 16 15 0 -2
BITMAP
1020
1020
17FF
2020
2020
67FE
6622
A622
2622
2622
2622
262E
262C
2020
2020
ENDCHAR
STARTCHAR 4F03
ENCODING 20227
SWIDTH 1000 0
DWIDTH 16 0
BBX 15 15 0 -2
BITMAP
1000
13FE
100C
2198
20F0
6020
67FE
A062
2062
2062
2060
2060
2060
2060
23C0
ENDCHAR
STARTCHAR 4F04
ENCODING 20228
SWIDTH 1000 0
DWIDTH 16 0
BBX 16 15 0 -2
BITMAP
1000
17FE
1062
2062
2062
67FE
6462
A460
27FF
2062
2062
2062
207E
2060
2060
ENDCHAR
STARTCHAR 4F05
ENCODING 20229
SWIDTH 1000 0
DWIDTH 16 0
BBX 16 15 0 -2
BITMAP
1040
1040
17FE
2040
2644
6644
6644
A644
2644
27FC
2040
2041
2043
207E
203C
ENDCHAR
STARTCHAR 4F06
ENCODING 20230
SWIDTH 1000 0
DWIDTH 16 0
BBX 15 15 0 -2
BITMAP
1100
1100
13FE
2252
26D2
6492
6092
A112
2322
2222
2462
24C2
2186
2304
223C
ENDCHAR
STARTCHAR 4F07
ENCODING 20231
SWIDTH 1000 0
DWIDTH 16 0
BBX 16 15 0 -2
BITMAP
19F8
11F8
1108
3108
320F
7607
7000
B3FC
3104
3188
3098
3070
30F0
339C
3E06
ENDCHAR
STARTCHAR 4F08
ENCODING 20232
SWIDTH 1000 0
DWIDTH 16 0
BBX 16 15 0 -2
BITMAP
1040
1020
1030
2180
2180
6586
6582
A582
2583
2D80
2184
2184
218C
2088
20F8
ENDCHAR
STARTCHAR 4F09
ENCODING 20233
SWIDTH 1000 0
DWIDTH 16 0
BBX 16 15 0 -2
BITMAP
0840
1820
17FE
1000
3000
71F8
5108
D108
1108
1108
1108
1309
1209
160B
1C0E
ENDCHAR
STARTCHAR 4F0A
ENCODING 20234
SWIDTH 1000 0
DWIDTH 16 0
BBX 16 15 0 -2
BITMAP
0800
1FFC
1084
3084
2084
6FFF
6084
A084
2084
27FC
2180
2100
2300
2600
2400
ENDCHAR
STARTCHAR 4F0B
ENCODING 20235
SWIDTH 1000 0
DWIDTH 16 0
BBX 15 15 0 -2
BITMAP
1800
17FC
110C
3108
3110
719E
7182
F186
3144
336C
3228
3610
3478
3CC6
3982
ENDCHAR
STARTCHAR 4F0C
ENCODING 20236
SWIDTH 1000 0
DWIDTH 16 0
BBX 16 15 0 -2
BITMAP
1000
17FF
1600
2600
26FE
6686
6686
A684
2684
249C
2480
2483
2483
2CE6
287C
ENDCHAR
STARTCHAR 4F0D
ENCODING 20237
SWIDTH 1000 0
DWIDTH 16 0
BBX 16 15 0 -2
BITMAP
1800
17FE
1080
3080
3080
7080
77FC
F184
3184
3104
3104
3104
3104
3FFF
3000
ENDCHAR
STARTCHAR 4F0E
ENCODING 20238
SWIDTH 1000 0
DWIDTH 16 0
BBX 16 15 0 -2
BITMAP
0820
1020
17FF
3020
3020
7020
77FE
F304
310C
3188
30D0
3070
30F0
339C
3606
ENDCHAR
STARTCHAR 4F0F
ENCODING 20239
SWIDTH 1000 0
DWIDTH 16 0
BBX 16 15 0 -2
BITMAP
0868
186C
1066
3060
27FF
67FF
6060
E060
2060
20D0
2090
2108
230C
2606
2C02
ENDCHAR
STARTCHAR 4F10
ENCODING 20240
SWIDTH 1000 0
DWIDTH 16 0
BBX 16 15 0 -2
BITMAP
08D0
08CC
1844
1042
37FE
3640
5042
D046
104C
1078
1060
11E3
1733
141A
100E
ENDCHAR
STARTCHAR 4F11
ENCODING 20241
SWIDTH 1000 0
DWIDTH 16 0
BBX 16 15 0 -2
BITMAP
0860
1860
1060
37FE
2060
60E0
60F0
A170
2168
226C
2666
2C63
2860
2060
2060
ENDCHAR
STARTCHAR 4F12
ENCODING 20242
SWIDTH 1000 0
DWIDTH 16 0
BBX 16 15 0 -2
BITMAP
1802
13FE
1200
3200
3200
7200
73FF
B210
3210
3210
3210
3610
3410
3C10
3810
ENDCHAR
STARTCHAR 4F13
ENCODING 20243
SWIDTH 1000 0
DWIDTH 16 0
BBX 16 15 0 -2
BITMAP
1000
17FE
1060
3040
30C0
70E0
71F8
B16C
3364
3662
3C63
3060
3060
3060
3060
ENDCHAR
STARTCHAR 4F14
ENCODING 20244
SWIDTH 1000 0
DWIDTH 16 0
BBX 16 15 0 -2
BITMAP
1000
17FE
1402
2402
2000
61F8
E118
A118
2118
2118
2318
2219
2619
2C1B
280E
ENDCHAR
STARTCHAR 4F15
ENCODING 20245
SWIDTH 1000 0
DWIDTH 16 0
BBX 16 15 0 -2
BITMAP
0860
1860
17FE
37FE
3060
7060
7040
B7FF
3060
3060
3090
3198
330C
3606
3C02
ENDCHAR
STARTCHAR 4F16
ENCODING 20246
SWIDTH 1000 0
DWIDTH 16 0
BBX 16 15 0 -2
BITMAP
1080
1080
17FF
2080
2180
6100
61FC
A184
228C
22C8
2658
2C30
2870
29CC
2306
ENDCHAR
STARTCHAR 4F17
ENCODING 20247
SWIDTH 1000 0
DWIDTH 16 0
BBX 15 15 0 -2
BITMAP
0180
03C0
0660
0C30
380C
E026
0820
0820
0830
1C30
1278
1348
30CC
6186
4302
ENDCHAR
STARTCHAR 4F18
ENCODING 20248
SWIDTH 1000 0
DWIDTH 16 0
BBX 16 15 0 -2
BITMAP
0890
188C
1084
3080
27FE
60A0
60A0
E0A0
21A0
2120
2123
2323
2622
2C3E
2808
ENDCHAR
STARTCHAR 4F19
ENCODING 20249
SWIDTH 1000 0
DWIDTH 16 0
BBX 15 15 0 -2
BITMAP
0860
1860
1060
1462
3446
7264
5368
D060
1060
10D0
1090
1108
130C
1606
1C02
ENDCHAR
STARTCHAR 4F1A
ENCODING 20250
SWIDTH 1000 0
DWIDTH 16 0
BBX 15 15 1 -2
BITMAP
0300
0780
0CC0
1860
3038
DFEE
8004
0000
0000
FFFC
0C00
0840
1020
7FF0
2008
ENDCHAR
STARTCHAR 4F1B
ENCODING 20251
SWIDTH 1000 0
DWIDTH 16 0
BBX 15 15 0 -2
BITMAP
1800
13FE
1200
3284
324C
7268
7238
F210
3238
3268
324C
3286
3280
33FE
33FE
ENDCHAR
STARTCHAR 4F1C
ENCODING 20252
SWIDTH 1000 0
DWIDTH 16 0
BBX 16 15 0 -2
BITMAP
1880
1080
17F8
3188
3109
7109
720B
B40E
3060
307E
37FE
3060
3060
3060
3060
ENDCHAR
STARTCHAR 4F1D
ENCODING 20253
SWIDTH 1000 0
DWIDTH 16 0
BBX 16 15 0 -2
BITMAP
1800
13FE
1000
3000
3000
7000
57FF
9040
10C0
1088
118C
1104
1206
17FE
1003
ENDCHAR
STARTCHAR 4F1E
ENCODING 20254
SWIDTH 1000 0
DWIDTH 16 0
BBX 16 15 0 -2
BITMAP
0180
03C0
0660
0C30
398C
E187
1188
1998
0DB0
0180
7FFE
7F80
0180
0180
0180
ENDCHAR
STARTCHAR 4F1F
ENCODING 20255
SWIDTH 1000 0
DWIDTH 16 0
BBX 15 15 0 -2
BITMAP
1840
1040
17FE
3040
3040
77FC
7040
F040
3FFE
3042
3042
3046
305C
3040
3040
ENDCHAR
STARTCHAR 4F20
ENCODING 20256
SWIDTH 1000 0
DWIDTH 16 0
BBX 16 15 0 -2
BITMAP
1840
10C0
17FE
3080
3080
77FF
7100
F100
31FE
3006
300C
3398
30F0
3030
3018
ENDCHAR
STARTCHAR 4F21
ENCODING 20257
SWIDTH 1000 0
DWIDTH 16 0
BBX 16 15 0 -2
BITMAP
18C0
1080
17FE
3100
3120
7320
7220
B3FE
3020
3020
3020
37FF
3020
3020
3020
ENDCHAR
STARTCHAR 4F22
ENCODING 20258
SWIDTH 1000 0
DWIDTH 16 0
BBX 16 15 0 -2
BITMAP
1800
13FF
1008
3208
3208
7208
77FF
F038
3068
3048
3188
3308
3608
3418
3070
ENDCHAR
STARTCHAR 4F23
ENCODING 20259
SWIDTH 1000 0
DWIDTH 16 0
BBX 16 15 0 -2
BITMAP
1000
13FC
1204
3264
3264
7264
7264
B244
3244
3264
30E0
30A1
3123
3633
3C1E
ENDCHAR
STARTCHAR 4F24
ENCODING 20260
SWIDTH 1000 0
DWIDTH 16 0
BBX 16 15 0 -2
BITMAP
1980
1100
13FF
3200
3640
7440
77FE
F042
30C2
30C2
3082
3182
3306
367C
3438
ENDCHAR
STARTCHAR 4F25
ENCODING 20261
SWIDTH 1000 0
DWIDTH 16 0
BBX 16 15 0 -2
BITMAP
0900
1906
110C
3118
3160
7100
77FF
F7FF
3130
3110
3118
3108
3166
33C3
3100
ENDCHAR
STARTCHAR 4F26
ENCODING 20262
SWIDTH 1000 0
DWIDTH 16 0
BBX 15 15 0 -2
BITMAP
0860
1870
1090
318C
3706
7402
7108
F118
3170
31C0
3102
3102
3106
31FC
30F8
ENDCHAR
STARTCHAR 4F27
ENCODING 20263
SWIDTH 1000 0
DWIDTH 16 0
BBX 15 15 0 -2
BITMAP
0860
18F0
1090
330C
3606
7C02
73FC
F20C
320C
3208
327A
3202
3202
3306
31FC
ENDCHAR
STARTCHAR 4F28
ENCODING 20264
SWIDTH 1000 0
DWIDTH 16 0
BBX 15 15 0 -2
BITMAP
1180
1100
13FE
3202
3602
7582
70C2
B062
300A
307A
33C2
3602
3002
3046
307C
ENDCHAR
STARTCHAR 4F29
ENCODING 20265
SWIDTH 1000 0
DWIDTH 16 0
BBX 15 15 0 -2
BITMAP
0840
1820
1000
37FE
3304
710C
7108
B188
3098
30F0
3060
30F0
3198
370E
3402
ENDCHAR
STARTCHAR 4F2A
ENCODING 20266
SWIDTH 1000 0
DWIDTH 16 0
BBX 15 15 0 -2
BITMAP
0840
1A40
13C0
30C0
37FE
70C2
7082
F0A2
30B2
3192
3102
3302
3206
363C
3C38
ENDCHAR
STARTCHAR 4F2B
ENCODING 20267
SWIDTH 1000 0
DWIDTH 16 0
BBX 16 15 0 -2
BITMAP
1840
1860
17FE
37FE
3402
7402
7000
F000
3000
3000
3000
3000
3000
37FF
3000
ENDCHAR
STARTCHAR 4F2C
ENCODING 20268
SWIDTH 1000 0
DWIDTH 16 0
BBX 15 15 0 -2
BITMAP
1800
13FE
1302
3302
3302
7302
53FE
9222
1220
1220
1210
1618
140C
1C06
1802
ENDCHAR
STARTCHAR 4F2D
ENCODING 20269
SWIDTH 1000 0
DWIDTH 16 0
BBX 16 15 0 -2
BITMAP
1060
1020
17FF
20C0
2080
610C
6308
A7F0
2630
2060
20CC
2184
2306
27FE
2002
ENDCHAR
STARTCHAR 4F2E
ENCODING 20270
SWIDTH 1000 0
DWIDTH 16 0
BBX 16 15 0 -2
BITMAP
1200
127E
1222
2FA2
26A2
64A6
64B4
A494
2594
271C
2308
239C
26B4
2C63
2840
ENDCHAR
STARTCHAR 4F2F
ENCODING 20271
SWIDTH 1000 0
DWIDTH 16 0
BBX 15 15 0 -2
BITMAP
1860
1040
13FE
3202
3202
7202
7202
F3FE
3202
3202
3202
3202
33FE
33FE
3202
ENDCHAR
STARTCHAR 4F30
ENCODING 20272
SWIDTH 1000 0
DWIDTH 16 0
BBX 16 15 0 -2
BITMAP
1860
1060
1060
3FFF
3060
7060
7060
B3FE
3206
3206
3206
3206
3206
33FE
3206
ENDCHAR
STARTCHAR 4F31
ENCODING 20273
SWIDTH 1000 0
DWIDTH 16 0
BBX 16 15 0 -2
BITMAP
1860
10E0
1090
3108
3606
7C63
7060
B36C
3264
3266
3462
3462
3460
3060
31C0
ENDCHAR
STARTCHAR 4F32
ENCODING 20274
SWIDTH 1000 0
DWIDTH 16 0
BBX 16 15 0 -2
BITMAP
1800
13FE
1202
3202
33FE
73FE
7200
F242
324C
3258
3260
3443
3442
3C42
387C
ENDCHAR
STARTCHAR 4F33
ENCODING 20275
SWIDTH 1000 0
DWIDTH 16 0
BBX 16 15 0 -2
BITMAP
1844
1244
1244
2244
2FFF
6244
E244
A244
2244
227C
2244
2200
2200
23FF
2000
ENDCHAR
STARTCHAR 4F34
ENCODING 20276
SWIDTH 1000 0
DWIDTH 16 0
BBX 16 15 0 -2
BITMAP
0820
1822
1226
132C
3120
7020
57FE
D020
1020
17FF
17E0
1020
1020
1020
1020
ENDCHAR
STARTCHAR 4F35
ENCODING 20277
SWIDTH 1000 0
DWIDTH 16 0
BBX 15 15 0 -2
BITMAP
1000
17FE
1492
2492
2492
6492
6492
A492
2592
251E
2702
2402
2402
27FE
2402
ENDCHAR
STARTCHAR 4F36
ENCODING 20278
SWIDTH 1000 0
DWIDTH 16 0
BBX 16 15 0 -2
BITMAP
0860
18F0
1090
3108
32C6
7C63
7020
F000
37FE
300C
3218
3330
30E0
3070
3018
ENDCHAR
STARTCHAR 4F37
ENCODING 20279
SWIDTH 1000 0
DWIDTH 16 0
BBX 15 15 0 -2
BITMAP
1020
1020
103E
27FE
2622
6622
6622
A622
27FE
2622
2622
2622
2622
27FE
2602
ENDCHAR
STARTCHAR 4F38
ENCODING 20280
SWIDTH 1000 0
DWIDTH 16 0
BBX 15 15 0 -2
BITMAP
1820
1020
17FE
3422
2422
6422
67FE
A422
2422
27FE
2422
2020
2020
2020
2020
ENDCHAR
STARTCHAR 4F39
ENCODING 20281
SWIDTH 1000 0
DWIDTH 16 0
BBX 16 15 0 -2
BITMAP
1000
13FC
1204
2204
2204
63FC
6204
A204
2204
23FC
2204
2204
2204
2FFF
2000
ENDCHAR
STARTCHAR 4F3A
ENCODING 20282
SWIDTH 1000 0
DWIDTH 16 0
BBX 15 15 0 -2
BITMAP
1800
13FE
1002
3002
37FA
7002
7002
F3F2
3232
3232
3232
33F2
3202
3002
303E
ENDCHAR
STARTCHAR 4F3B
ENCODING 20283
SWIDTH 1000 0
DWIDTH 16 0
BBX 16 15 0 -2
BITMAP
0800
1BFE
1020
3222
3226
7124
7128
F020
37FF
3020
3020
3020
3020
3020
3020
ENDCHAR
STARTCHAR 4F3C
ENCODING 20284
SWIDTH 1000 0
DWIDTH 16 0
BBX 15 15 0 -2
BITMAP
1084
1644
3644
2624
2604
6604
6604
A604
260C
2668
2788
271C
2436
2062
20C2
ENDCHAR
STARTCHAR 4F3D
ENCODING 20285
SWIDTH 1000 0
DWIDTH 16 0
BBX 15 15 0 -2
BITMAP
1200
1200
321E
2FD2
22D2
62D2
62D2
A2D2
26D2
2692
2492
2492
249E
2892
2B80
ENDCHAR
STARTCHAR 4F3E
ENCODING 20286
SWIDTH 1000 0
DWIDTH 16 0
BBX 16 15 0 -2
BITMAP
1000
17FF
1060
2040
20E0
60F8
E1E8
A364
2266
2462
2062
2060
2060
2FFF
2000
ENDCHAR
STARTCHAR 4F3F
ENCODING 20287
SWIDTH 1000 0
DWIDTH 16 0
BBX 15 15 0 -2
BITMAP
1800
13FE
1206
3206
3206
7206
7206
B3FE
3206
3000
3098
310C
3206
3602
3402
ENDCHAR
STARTCHAR 4F40
ENCODING 20288
SWIDTH 1000 0
DWIDTH 16 0
BBX 15 15 0 -2
BITMAP
1000
13FE
1206
2206
2206
63FE
E206
A200
23FE
2202
2202
2202
2202
23FE
2202
ENDCHAR
STARTCHAR 4F41
ENCODING 20289
SWIDTH 1000 0
DWIDTH 16 0
BBX 16 15 0 -2
BITMAP
10C0
1080
1188
210C
2204
67FE
E403
A000
23FC
2204
2204
2204
2204
23FC
2204
ENDCHAR
STARTCHAR 4F42
ENCODING 20290
SWIDTH 1000 0
DWIDTH 16 0
BBX 16 15 0 -2
BITMAP
1000
13FF
1020
3020
3020
7320
7320
B33E
3320
3320
3320
3320
3320
37FF
3000
ENDCHAR
STARTCHAR 4F43
ENCODING 20291
SWIDTH 1000 0
DWIDTH 16 0
BBX 15 15 0 -2
BITMAP
1800
13FE
1222
3222
3222
7222
7222
B3FE
3222
3222
3222
3222
33FE
33FE
3202
ENDCHAR
STARTCHAR 4F44
ENCODING 20292
SWIDTH 1000 0
DWIDTH 16 0
BBX 16 15 0 -2
BITMAP
1204
1204
1204
3FFF
3204
7204
7204
B204
33FC
3204
3204
3204
3204
33FC
3204
ENDCHAR
STARTCHAR 4F45
ENCODING 20293
SWIDTH 1000 0
DWIDTH 16 0
BBX 16 15 0 -2
BITMAP
1860
1060
17FE
37E0
3060
7060
57FF
D060
10F0
10F0
1168
126C
1666
1C62
1060
ENDCHAR
STARTCHAR 4F46
ENCODING 20294
SWIDTH 1000 0
DWIDTH 16 0
BBX 16 15 0 -2
BITMAP
0800
1BFC
1204
3204
2204
63FC
6204
E204
2204
23FC
2204
2000
2000
27FF
2000
ENDCHAR
STARTCHAR 4F47
ENCODING 20295
SWIDTH 1000 0
DWIDTH 16 0
BBX 16 15 0 -2
BITMAP
1860
1020
17FE
3602
3602
7000
77FF
B7FF
3020
3020
3020
3020
3020
3060
31C0
ENDCHAR
STARTCHAR 4F48
ENCODING 20296
SWIDTH 1000 0
DWIDTH 16 0
BBX 16 15 0 -2
BITMAP
0840
10C0
17FF
3180
3120
7320
77FE
B622
3A22
3222
3222
3222
322E
3020
3020
ENDCHAR
STARTCHAR 4F49
ENCODING 20297
SWIDTH 1000 0
DWIDTH 16 0
BBX 16 15 0 -2
BITMAP
1060
1060
1060
37FE
3060
7060
7060
BFFF
3040
3080
3198
310C
3204
37FE
3402
ENDCHAR
STARTCHAR 4F4A
ENCODING 20298
SWIDTH 1000 0
DWIDTH 16 0
BBX 16 15 0 -2
BITMAP
1820
1020
13FF
3222
3222
7220
73FC
B3FC
3284
32CC
3648
3430
3478
3CCE
3982
ENDCHAR
STARTCHAR 4F4B
ENCODING 20299
SWIDTH 1000 0
DWIDTH 16 0
BBX 15 15 0 -2
BITMAP
1000
17FE
1082
3082
3182
7306
7E3C
B000
33FE
3202
3202
3202
3202
33FE
3202
ENDCHAR
STARTCHAR 4F4C
ENCODING 20300
SWIDTH 1000 0
DWIDTH 16 0
BBX 16 15 0 -2
BITMAP
1090
1090
1090
2493
2496
64DC
6498
A490
2490
2490
2491
2491
24F1
2F9B
280E
ENDCHAR
STARTCHAR 4F4D
ENCODING 20301
SWIDTH 1000 0
DWIDTH 16 0
BBX 16 15 0 -2
BITMAP
1860
1020
1040
37FF
3000
7204
7304
F10C
3108
3188
3198
3090
3010
3FFF
3000
ENDCHAR
STARTCHAR 4F4E
ENCODING 20302
SWIDTH 1000 0
DWIDTH 16 0
BBX 16 15 0 -2
BITMAP
0802
13FE
1220
3220
2220
6220
E3FF
A230
2230
2210
2210
2251
2389
266F
2026
ENDCHAR
STARTCHAR 4F4F
ENCODING 20303
SWIDTH 1000 0
DWIDTH 16 0
BBX 16 15 0 -2
BITMAP
0860
1820
17FE
17FE
3020
7020
5020
D3FE
13FE
1020
1020
1020
1020
17FF
1000
ENDCHAR
STARTCHAR 4F50
ENCODING 20304
SWIDTH 1000 0
DWIDTH 16 0
BBX 16 15 0 -2
BITMAP
10C0
10C0
17FF
27FF
2180
6100
6300
A3FE
2620
2C20
2820
2820
2020
27FF
2000
ENDCHAR
STARTCHAR 4F51
ENCODING 20305
SWIDTH 1000 0
DWIDTH 16 0
BBX 16 15 0 -2
BITMAP
1040
1040
37FF
27FF
2080
6100
6100
A3FE
2702
2D02
2902
2102
2102
21FE
2102
ENDCHAR
STARTCHAR 4F52
ENCODING 20306
SWIDTH 1000 0
DWIDTH 16 0
BBX 16 15 0 -2
BITMAP
1820
1020
1020
23FC
2224
6264
6264
A264
2FFF
2060
20F0
2090
2108
2606
2402
ENDCHAR
STARTCHAR 4F53
ENCODING 20307
SWIDTH 1000 0
DWIDTH 16 0
BBX 16 15 0 -2
BITMAP
1840
1040
1040
2FFE
20F0
60D0
6150
A148
2248
2644
2446
29FB
2040
2040
2040
ENDCHAR
STARTCHAR 4F54
ENCODING 20308
SWIDTH 1000 0
DWIDTH 16 0
BBX 16 15 0 -2
BITMAP
0860
1860
1060
307F
3060
7060
5060
D060
13FE
1206
1206
1206
1206
13FE
1206
ENDCHAR
STARTCHAR 4F55
ENCODING 20309
SWIDTH 1000 0
DWIDTH 16 0
BBX 16 15 0 -2
BITMAP
1800
17FF
1004
3004
33E4
7224
7224
F224
3224
33E4
3204
3004
3004
3004
303C
ENDCHAR
STARTCHAR 4F56
ENCODING 20310
SWIDTH 1000 0
DWIDTH 16 0
BBX 16 15 0 -2
BITMAP
1840
1060
11A4
318C
2188
659A
6592
A5B2
25A3
2DC1
21C4
2184
2384
2E8C
20F8
ENDCHAR
STARTCHAR 4F57
ENCODING 20311
SWIDTH 1000 0
DWIDTH 16 0
BBX 15 15 0 -2
BITMAP
1860
1020
17FE
3402
3402
7300
730E
F318
3360
3380
3302
3302
3302
318E
30F8
ENDCHAR
STARTCHAR 4F58
ENCODING 20312
SWIDTH 1000 0
DWIDTH 16 0
BBX 16 15 0 -2
BITMAP
0180
03C0
0660
0C30
300C
EFF7
0000
0000
7FFE
0180
09B0
1198
318C
6182
0700
ENDCHAR
STARTCHAR 4F59
ENCODING 20313
SWIDTH 1000 0
DWIDTH 16 0
BBX 16 15 0 -2
BITMAP
0180
03C0
0660
0C30
380C
EFF7
0180
0180
7FFE
0180
0990
1998
318C
6182
0700
ENDCHAR
STARTCHAR 4F5A
ENCODING 20314
SWIDTH 1000 0
DWIDTH 16 0
BBX 16 15 0 -2
BITMAP
0820
1920
1220
33FE
3220
7420
7020
B7FF
3060
3050
30D0
3098
310C
3606
3402
ENDCHAR
STARTCHAR 4F5B
ENCODING 20315
SWIDTH 1000 0
DWIDTH 16 0
BBX 15 15 0 -2
BITMAP
11B0
11B0
17FE
21B6
21B6
67FE
65B6
ADB0
2D30
2FFE
2132
2132
223E
2630
2430
ENDCHAR
STARTCHAR 4F5C
ENCODING 20316
SWIDTH 1000 0
DWIDTH 16 0
BBX 16 15 0 -2
BITMAP
1980
1100
11FF
3240
3240
7440
747E
F040
3040
3040
307E
3040
3040
3040
3040
ENDCHAR
STARTCHAR 4F5D
ENCODING 20317
SWIDTH 1000 0
DWIDTH 16 0
BBX 15 15 0 -2
BITMAP
0900
1900
13FE
3202
3402
77F2
7212
F212
3212
3212
33F2
3202
3002
3046
307C
ENDCHAR
STARTCHAR 4F5E
ENCODING 20318
SWIDTH 1000 0
DWIDTH 16 0
BBX 16 15 0 -2
BITMAP
1800
1FFE
1000
3000
37FF
7000
70C0
F7FF
3788
3108
3318
30F0
3078
33CE
3602
ENDCHAR
STARTCHAR 4F5F
ENCODING 20319
SWIDTH 1000 0
DWIDTH 16 0
BBX 15 15 0 -2
BITMAP
0980
19FE
1306
370C
3498
7070
70F0
B39E
3E06
30E0
3038
3008
3380
30F8
300C
ENDCHAR
STARTCHAR 4F60
ENCODING 20320
SWIDTH 1000 0
DWIDTH 16 0
BBX 16 15 0 -2
BITMAP
0880
1980
11FE
1302
3202
7426
5020
D12C
1324
1226
1222
1423
1020
1060
11C0
ENDCHAR
STARTCHAR 4F61
ENCODING 20321
SWIDTH 1000 0
DWIDTH 16 0
BBX 16 15 0 -2
BITMAP
1860
10E0
1090
3118
330C
7667
7060
B060
3662
3662
3662
3662
3662
37FE
3002
ENDCHAR
STARTCHAR 4F62
ENCODING 20322
SWIDTH 1000 0
DWIDTH 16 0
BBX 16 15 0 -2
BITMAP
1000
13FE
1200
3200
33FE
73FE
7202
B202
3202
33FE
3202
3200
3200
33FF
3000
ENDCHAR
STARTCHAR 4F63
ENCODING 20323
SWIDTH 1000 0
DWIDTH 16 0
BBX 15 15 0 -2
BITMAP
1800
17FE
1622
2622
2622
67FE
6622
A622
2622
27FE
2422
2422
2422
2C22
280E
ENDCHAR
STARTCHAR 4F64
ENCODING 20324
SWIDTH 1000 0
DWIDTH 16 0
BBX 16 15 0 -2
BITMAP
0800
1FFE
1100
3100
3100
73F8
7308
B288
3248
3268
3229
3209
3269
37CA
3406
ENDCHAR
STARTCHAR 4F65
ENCODING 20325
SWIDTH 1000 0
DWIDTH 16 0
BBX 16 15 0 -2
BITMAP
0180
03C0
0660
0C30
380C
FFFF
1FF8
0100
310C
1188
1888
0810
0810
7FFE
7FFE
ENDCHAR
STARTCHAR 4F66
ENCODING 20326
SWIDTH 1000 0
DWIDTH 16 0
BBX 16 15 0 -2
BITMAP
1800
17FF
1040
30C0
3080
7180
7100
B3FE
3702
3D02
3102
3102
3102
31FE
3102
ENDCHAR
STARTCHAR 4F67
ENCODING 20327
SWIDTH 1000 0
DWIDTH 16 0
BBX 16 15 0 -2
BITMAP
0840
1840
107E
3040
3040
7040
5FFF
9040
1040
1070
105C
1046
1040
1040
1040
ENDCHAR
STARTCHAR 4F68
ENCODING 20328
SWIDTH 1000 0
DWIDTH 16 0
BBX 16 15 0 -2
BITMAP
1100
13FC
13FC
2204
2404
6FE4
6A24
A224
23E4
2204
223D
223B
2202
23FE
21FC
ENDCHAR
STARTCHAR 4F69
ENCODING 20329
SWIDTH 1000 0
DWIDTH 16 0
BBX 16 15 0 -2
BITMAP
1000
37FC
2404
27F4
2444
6444
67F4
A754
2754
2754
2F54
2B55
2B75
2847
2042
ENDCHAR
STARTCHAR 4F6A
ENCODING 20330
SWIDTH 1000 0
DWIDTH 16 0
BBX 15 15 0 -2
BITMAP
1000
17FE
1402
2402
24F2
6492
6492
A492
2492
24F2
2492
2402
2402
27FE
2402
ENDCHAR
STARTCHAR 4F6B
ENCODING 20331
SWIDTH 1000 0
DWIDTH 16 0
BBX 15 15 0 -2
BITMAP
1880
11FE
1104
338C
3698
7070
70F0
B38E
3E02
33FC
3204
3204
3204
33FC
3204
ENDCHAR
STARTCHAR 4F6C
ENCODING 20332
SWIDTH 1000 0
DWIDTH 16 0
BBX 16 15 0 -2
BITMAP
1880
1080
17F2
3084
2088
6FFF
6FFF
A0C0
2384
2F3C
29E0
2102
2102
2106
21FC
ENDCHAR
STARTCHAR 4F6D
ENCODING 20333
SWIDTH 1000 0
DWIDTH 16 0
BBX 16 15 0 -2
BITMAP
1980
11FC
1304
3798
34F0
70F8
7F0F
B020
37FE
3020
3420
3420
37FE
3020
3020
ENDCHAR
STARTCHAR 4F6E
ENCODING 20334
SWIDTH 1000 0
DWIDTH 16 0
BBX 16 15 0 -2
BITMAP
1860
1070
1090
3108
3206
7DFF
7000
B000
33FE
3206
3206
3206
3206
33FE
3206
ENDCHAR
STARTCHAR 4F6F
ENCODING 20335
SWIDTH 1000 0
DWIDTH 16 0
BBX 16 15 0 -2
BITMAP
0B0C
1988
17FE
37FE
3060
7060
73FE
F060
3060
3060
37FF
3060
3060
3060
3060
ENDCHAR
STARTCHAR 4F70
ENCODING 20336
SWIDTH 1000 0
DWIDTH 16 0
BBX 16 15 0 -2
BITMAP
1800
17FF
1040
3040
33FE
7202
7202
F202
33FE
3202
3202
3202
3202
33FE
3202
ENDCHAR
STARTCHAR 4F71
ENCODING 20337
SWIDTH 1000 0
DWIDTH 16 0
BBX 16 14 0 -1
BITMAP
0180
0240
0C30
181C
6FF7
4000
0000
7FFE
0080
1080
10FC
1080
1080
FFFF
ENDCHAR
STARTCHAR 4F72
ENCODING 20338
SWIDTH 1000 0
DWIDTH 16 0
BBX 15 15 0 -2
BITMAP
1880
11FE
1106
3204
3608
7590
70E0
B0C0
33FE
3F02
3102
3102
3102
31FE
3102
ENDCHAR
STARTCHAR 4F73
ENCODING 20339
SWIDTH 1000 0
DWIDTH 16 0
BBX 16 15 0 -2
BITMAP
1820
1020
13FE
3020
3020
7020
77FF
F020
3020
37FE
37FE
3020
3020
37FF
3000
ENDCHAR
STARTCHAR 4F74
ENCODING 20340
SWIDTH 1000 0
DWIDTH 16 0
BBX 16 15 0 -2
BITMAP
1800
17FE
120C
320C
23FC
620C
E20C
A20C
23FC
220C
220C
23FF
2E0C
200C
200C
ENDCHAR
STARTCHAR 4F75
ENCODING 20341
SWIDTH 1000 0
DWIDTH 16 0
BBX 16 15 0 -2
BITMAP
190C
1188
1010
37FE
3108
7108
7108
F108
37FF
3108
3108
3108
3208
3608
3408
ENDCHAR
STARTCHAR 4F76
ENCODING 20342
SWIDTH 1000 0
DWIDTH 16 0
BBX 16 15 0 -2
BITMAP
1860
1860
17FF
3060
3060
7060
77FE
F000
3000
33FE
3206
3206
3206
33FE
3206
ENDCHAR
STARTCHAR 4F77
ENCODING 20343
SWIDTH 1000 0
DWIDTH 16 0
BBX 15 15 0 -2
BITMAP
1800
13FE
1206
3206
33FE
7206
7206
B3FE
3240
3226
3238
3210
32CC
3386
3202
ENDCHAR
STARTCHAR 4F78
ENCODING 20344
SWIDTH 1000 0
DWIDTH 16 0
BBX 16 15 0 -2
BITMAP
1806
17FE
1020
3020
3020
77FF
7020
B020
33FE
3202
3202
3202
3202
33FE
3202
ENDCHAR
STARTCHAR 4F79
ENCODING 20345
SWIDTH 1000 0
DWIDTH 16 0
BBX 16 15 0 -2
BITMAP
1880
11FC
1308
3618
3FFF
7200
72FC
B2C4
32C4
32C4
32FC
36C1
34C3
3CC2
387E
ENDCHAR
STARTCHAR 4F7A
ENCODING 20346
SWIDTH 1000 0
DWIDTH 16 0
BBX 15 15 0 -2
BITMAP
0860
1870
1090
310C
3206
77FE
53FC
9060
1060
13FC
1060
1060
1060
17FE
1000
ENDCHAR
STARTCHAR 4F7B
ENCODING 20347
SWIDTH 1000 0
DWIDTH 16 0
BBX 16 15 0 -2
BITMAP
1890
1090
1492
3496
2694
6094
6090
A198
239C
2D92
2110
2111
2313
2612
2C1E
ENDCHAR
STARTCHAR 4F7C
ENCODING 20348
SWIDTH 1000 0
DWIDTH 16 0
BBX 15 15 0 -2
BITMAP
1840
1060
17FE
3000
3118
730C
7206
F50A
3118
3090
30F0
3060
30F0
338E
3602
ENDCHAR
STARTCHAR 4F7D
ENCODING 20349
SWIDTH 1000 0
DWIDTH 16 0
BBX 16 15 0 -2
BITMAP
1820
1460
167F
3242
32C2
7096
7090
B210
3210
3638
3428
346C
3C44
30C6
3182
ENDCHAR
STARTCHAR 4F7E
ENCODING 20350
SWIDTH 1000 0
DWIDTH 16 0
BBX 16 15 0 -2
BITMAP
0810
1198
1108
330C
23FE
6607
6A04
A3FC
23FC
2204
2204
23FC
2204
220C
2238
ENDCHAR
STARTCHAR 4F7F
ENCODING 20351
SWIDTH 1000 0
DWIDTH 16 0
BBX 16 15 0 -2
BITMAP
1860
1060
1FFF
2060
27FE
67FE
6462
A462
27FE
2240
2340
21C0
21C0
233C
2C0E
ENDCHAR
STARTCHAR 4F80
ENCODING 20352
SWIDTH 1000 0
DWIDTH 16 0
BBX 15 15 0 -2
BITMAP
1002
1FF2
3492
2492
6492
6492
E492
AFF2
2492
2492
2492
2492
2C82
2882
289E
ENDCHAR
STARTCHAR 4F81
ENCODING 20353
SWIDTH 1000 0
DWIDTH 16 0
BBX 16 15 0 -2
BITMAP
1060
1360
1260
23FE
2660
6460
6060
AFFF
2110
2110
2110
2111
2211
261A
2C0C
ENDCHAR
STARTCHAR 4F82
ENCODING 20354
SWIDTH 1000 0
DWIDTH 16 0
BBX 16 15 0 -2
BITMAP
1020
1020
37FF
2400
2400
65FC
6420
A420
242F
25FC
2420
2421
2C23
2832
281C
ENDCHAR
STARTCHAR 4F83
ENCODING 20355
SWIDTH 1000 0
DWIDTH 16 0
BBX 16 15 0 -2
BITMAP
1800
17FC
1604
2604
2604
67FC
6604
A000
2248
2248
2248
2249
2649
244B
2846
ENDCHAR
STARTCHAR 4F84
ENCODING 20356
SWIDTH 1000 0
DWIDTH 16 0
BBX 16 15 0 -2
BITMAP
0800
1FFE
10C0
3088
210C
620C
63FA
A020
2020
27FE
27FE
2020
2020
27FF
27FF
ENDCHAR
STARTCHAR 4F85
ENCODING 20357
SWIDTH 1000 0
DWIDTH 16 0
BBX 16 15 0 -2
BITMAP
1860
1020
17FF
3080
3188
7318
77F0
B266
30C4
3188
3710
3038
30CC
3386
3602
ENDCHAR
STARTCHAR 4F86
ENCODING 20358
SWIDTH 1000 0
DWIDTH 16 0
BBX 16 15 0 -2
BITMAP
0180
0180
FFFF
0988
1998
1998
3DBC
65A6
43C2
07E0
0DB0
1998
718E
4182
0180
ENDCHAR
STARTCHAR 4F87
ENCODING 20359
SWIDTH 1000 0
DWIDTH 16 0
BBX 15 15 0 -2
BITMAP
1820
17FE
1020
37FE
3062
7062
73FE
B640
37FE
3062
30E2
3096
3198
360E
3C02
ENDCHAR
STARTCHAR 4F88
ENCODING 20360
SWIDTH 1000 0
DWIDTH 16 0
BBX 16 15 0 -2
BITMAP
08C0
18FE
1106
328C
3478
7070
51C0
9760
10FF
1182
1344
1468
1030
11E0
1700
ENDCHAR
STARTCHAR 4F89
ENCODING 20361
SWIDTH 1000 0
DWIDTH 16 0
BBX 16 15 0 -2
BITMAP
1840
10C0
17FE
2198
230C
67FF
6800
AFFE
2FFE
2300
23FC
2004
2004
200C
20F8
ENDCHAR
STARTCHAR 4F8A
ENCODING 20362
SWIDTH 1000 0
DWIDTH 16 0
BBX 16 15 0 -2
BITMAP
1860
1262
1264
336C
3168
7060
77FE
B090
3090
3090
3110
3111
3313
3612
3C1E
ENDCHAR
STARTCHAR 4F8B
ENCODING 20363
SWIDTH 1000 0
DWIDTH 16 0
BBX 15 15 0 -2
BITMAP
1002
17E2
3212
2212
23D2
6652
6452
A4D2
2B92
2992
2192
2102
2202
2602
241E
ENDCHAR
STARTCHAR 4F8C
ENCODING 20364
SWIDTH 1000 0
DWIDTH 16 0
BBX 15 15 1 -2
BITMAP
0380
0CC0
3A30
E11E
8000
3FE0
0060
7FF8
0000
0000
FFFC
0C40
1030
7FF8
700C
ENDCHAR
STARTCHAR 4F8D
ENCODING 20365
SWIDTH 1000 0
DWIDTH 16 0
BBX 16 15 0 -2
BITMAP
0820
1820
13FE
3020
2020
67FF
6000
A008
27FF
2008
2208
2108
2008
2008
2078
ENDCHAR
STARTCHAR 4F8E
ENCODING 20366
SWIDTH 1000 0
DWIDTH 16 0
BBX 15 15 0 -2
BITMAP
1060
1264
1264
336C
3168
7060
77FE
B060
30F0
31F8
3168
326C
3666
3462
3060
ENDCHAR
STARTCHAR 4F8F
ENCODING 20367
SWIDTH 1000 0
DWIDTH 16 0
BBX 16 15 0 -2
BITMAP
1860
1360
1260
23FE
2660
6460
6060
A7FF
20F0
20F0
2168
236C
2666
2C62
2060
ENDCHAR
STARTCHAR 4F90
ENCODING 20368
SWIDTH 1000 0
DWIDTH 16 0
BBX 16 15 0 -2
BITMAP
1040
1040
17FE
2492
2492
6492
6492
A492
2492
2492
2492
2492
2492
2FFF
2000
ENDCHAR
STARTCHAR 4F91
ENCODING 20369
SWIDTH 1000 0
DWIDTH 16 0
BBX 16 15 0 -2
BITMAP
1840
1080
17FF
2180
2100
63FC
6704
AD04
29FC
2104
21FC
2104
2104
2104
211C
ENDCHAR
STARTCHAR 4F92
ENCODING 20370
SWIDTH 1000 0
DWIDTH 16 0
BBX 16 15 0 -2
BITMAP
1860
1020
17FE
3602
3642
70C0
7080
B7FF
3108
3108
3190
3070
30F8
338E
3602
ENDCHAR
STARTCHAR 4F93
ENCODING 20371
SWIDTH 1000 0
DWIDTH 16 0
BBX 16 15 0 -2
BITMAP
1040
13FC
1044
2044
27FF
6044
67FC
A044
2040
27FE
2040
2FFF
2040
2040
2040
ENDCHAR
STARTCHAR 4F94
ENCODING 20372
SWIDTH 1000 0
DWIDTH 16 0
BBX 16 15 0 -2
BITMAP
18C0
1188
110C
360C
27FA
6062
6260
A7FE
2460
2C60
2060
2FFF
2060
2060
2060
ENDCHAR
STARTCHAR 4F95
ENCODING 20373
SWIDTH 1000 0
DWIDTH 16 0
BBX 16 15 0 -2
BITMAP
1000
17FF
1040
2040
27FE
6692
6692
A692
2692
2692
2692
2692
2692
2602
261E
ENDCHAR
STARTCHAR 4F96
ENCODING 20374
SWIDTH 1000 0
DWIDTH 16 0
BBX 15 15 1 -2
BITMAP
0300
0480
1860
3038
DFEE
8000
7FF8
4488
4488
4488
7FF8
4488
4488
4488
4038
ENDCHAR
STARTCHAR 4F97
ENCODING 20375
SWIDTH 1000 0
DWIDTH 16 0
BBX 15 15 0 -2
BITMAP
1000
17FE
3402
25FA
25FA
6402
64F2
A492
2492
2492
24F2
2482
2402
2402
241E
ENDCHAR
STARTCHAR 4F98
ENCODING 20376
SWIDTH 1000 0
DWIDTH 16 0
BBX 16 15 0 -2
BITMAP
1840
1020
17FE
3402
3402
73FC
7040
B040
304E
37F8
3040
3043
3043
3066
303C
ENDCHAR
STARTCHAR 4F99
ENCODING 20377
SWIDTH 1000 0
DWIDTH 16 0
BBX 16 15 0 -2
BITMAP
1814
1016
1010
37FF
3010
7010
7010
B7D0
3110
3110
3110
3119
31CB
3F0E
3006
ENDCHAR
STARTCHAR 4F9A
ENCODING 20378
SWIDTH 1000 0
DWIDTH 16 0
BBX 15 15 0 -2
BITMAP
1900
1300
13FE
3602
3402
73F2
7212
B212
33F2
3212
3212
33F2
3202
3006
303C
ENDCHAR
STARTCHAR 4F9B
ENCODING 20379
SWIDTH 1000 0
DWIDTH 16 0
BBX 16 15 0 -2
BITMAP
0908
1908
1108
37FE
3108
7108
7108
B108
3108
3FFF
3000
3198
330C
3606
3402
ENDCHAR
STARTCHAR 4F9C
ENCODING 20380
SWIDTH 1000 0
DWIDTH 16 0
BBX 16 15 0 -2
BITMAP
1040
13FC
13FC
2244
2264
6234
6204
AFFF
2204
2244
2264
2234
2404
2404
281C
ENDCHAR
STARTCHAR 4F9D
ENCODING 20381
SWIDTH 1000 0
DWIDTH 16 0
BBX 16 15 0 -2
BITMAP
1040
1060
1FFF
2040
20C0
61C2
6166
A338
2730
2D10
2918
212C
2166
2382
2300
ENDCHAR
STARTCHAR 4F9E
ENCODING 20382
SWIDTH 1000 0
DWIDTH 16 0
BBX 15 15 0 -2
BITMAP
1200
121E
3212
2F92
6492
6492
E492
A492
2492
2792
2312
2392
26DE
2C12
2812
ENDCHAR
STARTCHAR 4F9F
ENCODING 20383
SWIDTH 1000 0
DWIDTH 16 0
BBX 16 15 0 -2
BITMAP
1080
1080
17FF
2100
2100
63FE
6204
A608
2E18
2AFF
2218
2218
2218
2218
2270
ENDCHAR
STARTCHAR 4FA0
ENCODING 20384
SWIDTH 1000 0
DWIDTH 16 0
BBX 16 15 0 -2
BITMAP
0820
1820
17FE
3020
3266
736C
7168
B060
37FF
3060
30D0
3098
310C
3606
3C02
ENDCHAR
STARTCHAR 4FA1
ENCODING 20385
SWIDTH 1000 0
DWIDTH 16 0
BBX 16 15 0 -2
BITMAP
1000
17FF
1090
2090
2090
67FE
6492
A492
2492
2492
2492
2492
2492
27FE
2402
ENDCHAR
STARTCHAR 4FA2
ENCODING 20386
SWIDTH 1000 0
DWIDTH 16 0
BBX 16 15 0 -2
BITMAP
1000
17FE
1020
23FE
2222
6222
6222
A3FE
2222
2222
2FFF
2202
2202
2202
221C
ENDCHAR
STARTCHAR 4FA3
ENCODING 20387
SWIDTH 1000 0
DWIDTH 16 0
BBX 15 15 0 -2
BITMAP
1800
13FC
1204
2204
2204
63FC
6204
A000
27FE
2402
2402
2402
2402
27FE
2402
ENDCHAR
STARTCHAR 4FA4
ENCODING 20388
SWIDTH 1000 0
DWIDTH 16 0
BBX 16 15 0 -2
BITMAP
1840
1046
13F4
3048
3050
77FF
7040
B1FE
3780
3C80
31FC
3004
3004
300C
3078
ENDCHAR
STARTCHAR 4FA5
ENCODING 20389
SWIDTH 1000 0
DWIDTH 16 0
BBX 16 15 0 -2
BITMAP
1100
113E
17E0
248C
2058
6062
63B2
A60E
2000
2FFE
2130
2133
2333
2632
2C1E
ENDCHAR
STARTCHAR 4FA6
ENCODING 20390
SWIDTH 1000 0
DWIDTH 16 0
BBX 16 15 0 -2
BITMAP
0860
187F
107F
3060
23FE
6206
6226
A226
2266
2266
2246
2276
20D8
238E
2602
ENDCHAR
STARTCHAR 4FA7
ENCODING 20391
SWIDTH 1000 0
DWIDTH 16 0
BBX 15 15 0 -2
BITMAP
1002
1FCA
284A
294A
694A
694A
694A
A94A
294A
294A
2B4A
238A
26C2
2C62
281E
ENDCHAR
STARTCHAR 4FA8
ENCODING 20392
SWIDTH 1000 0
DWIDTH 16 0
BBX 16 15 0 -2
BITMAP
081E
1BF8
1040
3040
27FE
60D0
6198
A30C
2607
2508
2108
2108
2108
2208
2408
ENDCHAR
STARTCHAR 4FA9
ENCODING 20393
SWIDTH 1000 0
DWIDTH 16 0
BBX 15 15 0 -2
BITMAP
0860
18E0
1090
3108
2606
6FFA
63F8
A000
2000
27FE
2080
2118
220C
27FE
2602
ENDCHAR
STARTCHAR 4FAA
ENCODING 20394
SWIDTH 1000 0
DWIDTH 16 0
BBX 16 15 0 -2
BITMAP
1040
1040
17FE
2118
2190
60E0
61F0
EF1F
2918
2118
2118
2318
2218
2618
2C18
ENDCHAR
STARTCHAR 4FAB
ENCODING 20395
SWIDTH 1000 0
DWIDTH 16 0
BBX 16 15 0 -2
BITMAP
1060
1020
17FF
2300
2300
6300
63FE
A0C0
2FFF
218C
2108
2198
2070
21DC
2706
ENDCHAR
STARTCHAR 4FAC
ENCODING 20396
SWIDTH 1000 0
DWIDTH 16 0
BBX 15 15 0 -2
BITMAP
1060
1040
17FE
2442
24C2
60C0
61A6
A32C
2338
2510
2D18
290C
2166
21C2
2100
ENDCHAR
STARTCHAR 4FAD
ENCODING 20397
SWIDTH 1000 0
DWIDTH 16 0
BBX 15 15 0 -2
BITMAP
1BFE
1206
1206
3206
33FE
7226
7210
B618
348E
3CE2
3030
3200
33C0
3078
300C
ENDCHAR
STARTCHAR 4FAE
ENCODING 20398
SWIDTH 1000 0
DWIDTH 16 0
BBX 16 15 0 -2
BITMAP
1900
13FE
1200
2400
23FC
6244
6224
A204
2FFF
2244
2264
27FE
27FE
200C
2078
ENDCHAR
STARTCHAR 4FAF
ENCODING 20399
SWIDTH 1000 0
DWIDTH 16 0
BBX 16 15 0 -2
BITMAP
1000
13FC
1004
2004
27FF
6100
6200
A7FE
2460
2040
27FE
20F0
2198
230E
2602
ENDCHAR
STARTCHAR 4FB0
ENCODING 20400
SWIDTH 1000 0
DWIDTH 16 0
BBX 16 15 0 -2
BITMAP
1800
17FE
1086
3086
37FF
7086
77FE
B106
3100
33FE
3706
3D06
3906
31FE
3106
ENDCHAR
STARTCHAR 4FB1
ENCODING 20401
SWIDTH 1000 0
DWIDTH 16 0
BBX 16 15 0 -2
BITMAP
1800
13FE
1206
3206
33FE
7206
7000
B7FE
3020
3020
37FE
3020
3020
3FFF
3000
ENDCHAR
STARTCHAR 4FB2
ENCODING 20402
SWIDTH 1000 0
DWIDTH 16 0
BBX 16 15 0 -2
BITMAP
1800
13FE
1200
3200
32FE
7200
7200
B3FE
32B2
3696
3698
3488
348C
3CE7
3880
ENDCHAR
ENDFONT
